/* XPM */
static char * skin_xpm[] = {
"28 28 258 2",
"  	c None",
". 	c #724825",
"+ 	c #764C26",
"@ 	c #7B4F29",
"# 	c #7C4F29",
"$ 	c #7E512A",
"% 	c #714824",
"& 	c #84562B",
"* 	c #8F5D2F",
"= 	c #996534",
"- 	c #9A6735",
"; 	c #966333",
"> 	c #8E5D30",
", 	c #8F5D31",
"' 	c #926031",
") 	c #7C5028",
"! 	c #956232",
"~ 	c #A7703A",
"{ 	c #B27840",
"] 	c #B37941",
"^ 	c #B27941",
"/ 	c #AD743F",
"( 	c #AB743F",
"_ 	c #A36D3A",
": 	c #A46D3B",
"< 	c #7E5129",
"[ 	c #966232",
"} 	c #AA723B",
"| 	c #BB8046",
"1 	c #C7894C",
"2 	c #C2864B",
"3 	c #C1854A",
"4 	c #C1864C",
"5 	c #C68A50",
"6 	c #C68A4F",
"7 	c #BA8048",
"8 	c #704623",
"9 	c #8E5B30",
"0 	c #A16A3A",
"a 	c #B47A44",
"b 	c #BF834B",
"c 	c #C3854E",
"d 	c #CC8E54",
"e 	c #D5975B",
"f 	c #CE9056",
"g 	c #C4884F",
"h 	c #C5884F",
"i 	c #794D27",
"j 	c #986234",
"k 	c #AD7341",
"l 	c #BD814B",
"m 	c #C88A53",
"n 	c #CB8C55",
"o 	c #C88A55",
"p 	c #C58852",
"q 	c #BE824E",
"r 	c #BB804C",
"s 	c #C38651",
"t 	c #85552D",
"u 	c #996336",
"v 	c #AF7442",
"w 	c #C1844D",
"x 	c #CC8D55",
"y 	c #CC8D56",
"z 	c #CB8D56",
"A 	c #CA8C55",
"B 	c #C78954",
"C 	c #C68954",
"D 	c #C68853",
"E 	c #C78953",
"F 	c #89582D",
"G 	c #9B6637",
"H 	c #AE7541",
"I 	c #BE814B",
"J 	c #CF9057",
"K 	c #D0925A",
"L 	c #C88A54",
"M 	c #C38652",
"N 	c #C28651",
"O 	c #C78853",
"P 	c #B0773F",
"Q 	c #C5884C",
"R 	c #CC8F52",
"S 	c #DC9E60",
"T 	c #DFA062",
"U 	c #D99B5F",
"V 	c #D1945A",
"W 	c #C78C54",
"X 	c #C18650",
"Y 	c #C38751",
"Z 	c #C48751",
"` 	c #7D5129",
" .	c #936132",
"..	c #B97F45",
"+.	c #D39557",
"@.	c #DEA061",
"#.	c #E5A565",
"$.	c #E7A766",
"%.	c #E7A667",
"&.	c #D6985C",
"*.	c #C68B52",
"=.	c #C38951",
"-.	c #84592E",
";.	c #875A2F",
">.	c #A97440",
",.	c #CC9056",
"'.	c #E9A867",
").	c #E8A767",
"!.	c #E9A967",
"~.	c #DE9F60",
"{.	c #D29559",
"].	c #C68B51",
"^.	c #C78B53",
"/.	c #C1864E",
"(.	c #AA7543",
"_.	c #966537",
":.	c #CA8F54",
"<.	c #9B6939",
"[.	c #D09457",
"}.	c #EAA967",
"|.	c #ECAB69",
"1.	c #E4A463",
"2.	c #D09356",
"3.	c #BD834B",
"4.	c #BA814A",
"5.	c #B67E47",
"6.	c #BF844B",
"7.	c #A46F3D",
"8.	c #794F29",
"9.	c #A06C3B",
"0.	c #9C6836",
"a.	c #D39556",
"b.	c #EAA965",
"c.	c #F4B06D",
"d.	c #EAA866",
"e.	c #CD9053",
"f.	c #B87F48",
"g.	c #BC824B",
"h.	c #946538",
"i.	c #DD9D5F",
"j.	c #D39558",
"k.	c #A36D3B",
"l.	c #734A25",
"m.	c #7E5128",
"n.	c #DF9E5C",
"o.	c #EFAD6A",
"p.	c #F4B16E",
"q.	c #E6A462",
"r.	c #C98D4F",
"s.	c #C88C52",
"t.	c #BF844A",
"u.	c #C4884E",
"v.	c #986536",
"w.	c #774E26",
"x.	c #9E6A37",
"y.	c #D29454",
"z.	c #F4B16C",
"A.	c #F4B06C",
"B.	c #ECAA66",
"C.	c #DD9C5B",
"D.	c #D49657",
"E.	c #DD9E60",
"F.	c #E2A162",
"G.	c #7D552D",
"H.	c #CE8F51",
"I.	c #C58A4F",
"J.	c #C88A4E",
"K.	c #916133",
"L.	c #83562B",
"M.	c #B57B42",
"N.	c #D89858",
"O.	c #E5A461",
"P.	c #E9A764",
"Q.	c #E3A160",
"R.	c #DA9959",
"S.	c #DB9B5B",
"T.	c #E5A464",
"U.	c #714A25",
"V.	c #9D6B3A",
"W.	c #966435",
"X.	c #906031",
"Y.	c #7E5229",
"Z.	c #B1783F",
"`.	c #DB9958",
" +	c #F6B36D",
".+	c #D59555",
"++	c #D09253",
"@+	c #D39456",
"#+	c #DD9D5C",
"$+	c #A8713A",
"%+	c #A9723C",
"&+	c #8A5A2E",
"*+	c #976433",
"=+	c #C4874A",
"-+	c #E5A361",
";+	c #F3B06D",
">+	c #EDAA66",
",+	c #CC8D50",
"'+	c #CA8C50",
")+	c #E1A05F",
"!+	c #E5A462",
"~+	c #8D5D30",
"{+	c #9D6938",
"]+	c #895B30",
"^+	c #82542B",
"/+	c #A76F3A",
"(+	c #D19252",
"_+	c #E7A562",
":+	c #E4A360",
"<+	c #C28549",
"[+	c #D49557",
"}+	c #E7A664",
"|+	c #86582D",
"1+	c #9D6A39",
"2+	c #895C32",
"3+	c #966332",
"4+	c #BF8346",
"5+	c #E19F5D",
"6+	c #F3AF6A",
"7+	c #E4A25E",
"8+	c #C38649",
"9+	c #ECA966",
"0+	c #936131",
"a+	c #BB8045",
"b+	c #D29353",
"c+	c #B37940",
"d+	c #B2773D",
"e+	c #C68849",
"f+	c #DF9E5A",
"g+	c #E6A562",
"h+	c #D29455",
"i+	c #B07740",
"j+	c #CF9154",
"k+	c #DF9F5D",
"l+	c #915F31",
"m+	c #B27943",
"n+	c #CD9054",
"o+	c #C5894D",
"p+	c #A7703D",
"q+	c #9A683A",
"r+	c #99673B",
"s+	c #916034",
"t+	c #9C693A",
"u+	c #B67E49",
"v+	c #D99B5D",
"w+	c #8B6037",
"x+	c #A67444",
"y+	c #A06E3F",
"z+	c #956336",
"A+	c #8C5D30",
"B+	c #87592F",
"C+	c #8F5F34",
"D+	c #A97443",
"E+	c #BE854E",
"F+	c #B98048",
"G+	c #865B32",
"H+	c #9A6A3B",
"I+	c #B67D47",
"                                                        ",
"                                                        ",
"                        . + @ # $ $                     ",
"                  % & * = - ; > , '                     ",
"                ) ! ~ { ] ^ / ( _ :                     ",
"              < [ } | 1 2 3 4 5 6 7                     ",
"            8 9 0 a b c d e f g f h                     ",
"            i j k l m n o p q r s s                     ",
"            t u v w x y z A B C D E                     ",
"            F G H I J K L M N D D O                     ",
"            - P Q R S T U V W X Y Z                     ",
"            `  ...+.@.#.$.%.T &.*.=.                    ",
"            -.  ;.>.,.'.).!.~.{.].^.                    ",
"            /.(._.:.<.[.}.|.1.2.3.4.                    ",
"          5.6.7.8.9.0.a.b.c.d.e.f.g.                    ",
"        h.i.j.k.l.m.^ n.o.p.q.r.6 s.                    ",
"        t.e.u.v.w.x.y.z.A.B.C.D.E.F.                    ",
"      G.H.I.J.K.L.M.N.O.P.Q.R.S.~.T.                    ",
"        U.V.W.X.Y.Z.`.B. +B..+++@+#+                    ",
"            $+%+&+*+=+-+;+>+,+'+)+!+                    ",
"            ~+{+]+^+/+(+_+:+.+<+[+}+                    ",
"            |+1+2+|+3+4+5+6+7+8+N.9+                    ",
"            0+a+b+c+d+e+f+g+h+i+j+k+                    ",
"            l+m+n+o+{ p+q+r+s+t+u+v+                    ",
"              w+x+y+z+K.A+B+C+D+E+F+                    ",
"                            G+H+I+H                     ",
"                                                        ",
"                                                        "};
