/* XPM */ 
static const char * album_xpm[] = {
"24 24 471 2",
"  	c None",
"! 	c #A0767E",
"# 	c #A59380",
"$ 	c #99A18F",
"% 	c #B8B3BB",
"& 	c #A4A0A3",
"' 	c #949699",
"( 	c #979B9B",
") 	c #A1A4A5",
"* 	c #A1A5A6",
"+ 	c #A4A7A8",
", 	c #A9AFB0",
"- 	c #AAABAB",
". 	c #ABB1B2",
"0 	c #A1A1A4",
"1 	c #A29EA7",
"2 	c #9F9D9F",
"3 	c #A1A1A1",
"4 	c #9A999A",
"5 	c #969591",
"6 	c #A3A299",
"7 	c #ACB1B7",
"8 	c #A1A5A8",
"9 	c #A6A5A5",
": 	c #737474",
"; 	c #A39D9A",
"< 	c #A9AA9E",
"= 	c #ACB1A9",
"> 	c #B3B4B2",
"? 	c #9CA3A5",
"@ 	c #ABA7A8",
"A 	c #B6B1B1",
"B 	c #B0AEAD",
"C 	c #B0ADAE",
"D 	c #B1ADB6",
"E 	c #BAB3AF",
"F 	c #C9C8C5",
"G 	c #A9B1C3",
"H 	c #C1C3C5",
"I 	c #A2B1BB",
"J 	c #BEC3C5",
"K 	c #9D9191",
"L 	c #A7A5A6",
"M 	c #ADADB2",
"N 	c #989AA9",
"O 	c #ADA495",
"P 	c #AAA49B",
"Q 	c #A4A7A9",
"R 	c #747373",
"S 	c #899187",
"T 	c #8F9990",
"U 	c #9FA5A1",
"V 	c #9BA39C",
"W 	c #9BA7A2",
"X 	c #A49E9D",
"Y 	c #AAA2A3",
"Z 	c #A8A2A3",
"[ 	c #A7A1A1",
"] 	c #AFA9AE",
"^ 	c #B1A3A2",
"_ 	c #BFBEBD",
"` 	c #ACA5AC",
"a 	c #B8BBBE",
"b 	c #A0B0AA",
"c 	c #BCC0BD",
"d 	c #999094",
"e 	c #A1A0A0",
"f 	c #A4A6AC",
"g 	c #888AA0",
"h 	c #9F9183",
"i 	c #9B938A",
"j 	c #9FA0A0",
"k 	c #6E6C6C",
"l 	c #AAADAF",
"m 	c #C0BFBF",
"n 	c #BCBCBD",
"o 	c #CACAC9",
"p 	c #D7D5D3",
"q 	c #CFD0CF",
"r 	c #DBDDDD",
"s 	c #E1E2E1",
"t 	c #E3E4E3",
"u 	c #E5E7E5",
"v 	c #E1E4E3",
"w 	c #E1E2E2",
"x 	c #ECE9E3",
"y 	c #C6CFD5",
"z 	c #ABBACA",
"{ 	c #CBC9CB",
"| 	c #D3D4D5",
"} 	c #D2D3D4",
"~ 	c #CCCCCA",
" !	c #CCCBC6",
"!!	c #CCCED3",
"#!	c #CDCECF",
"$!	c #AFB7C2",
"%!	c #707273",
"&!	c #8EA4C2",
"'!	c #8FAAD2",
"(!	c #9CB0CF",
")!	c #9EB3D5",
"*!	c #9FB4D6",
"+!	c #9CB1D1",
",!	c #ADC2E3",
"-!	c #B0C5E8",
".!	c #ACC3E7",
"0!	c #ADC3E7",
"1!	c #B6CBEC",
"2!	c #B8CDED",
"3!	c #A8C2ED",
"4!	c #98B6E4",
"5!	c #97B4D7",
"6!	c #CFD4DA",
"7!	c #A7A4A3",
"8!	c #979899",
"9!	c #DADADA",
":!	c #CACACA",
";!	c #7A7A7A",
"<!	c #ACA8A6",
"=!	c #B2C8E1",
">!	c #686B6C",
"?!	c #B3BECA",
"@!	c #C1CAD7",
"A!	c #B5BFC6",
"B!	c #B8C1C9",
"C!	c #AEB8C0",
"D!	c #C5CFD7",
"E!	c #C9D2DB",
"F!	c #C8CED7",
"G!	c #C3C9D4",
"H!	c #CBD4DD",
"I!	c #E5EBF6",
"J!	c #E6ECF6",
"K!	c #E2EBF7",
"L!	c #D3DAE8",
"M!	c #C9CED3",
"N!	c #D8DADB",
"O!	c #656565",
"P!	c #111111",
"Q!	c #B5B5B5",
"R!	c #A9A9A9",
"S!	c black",
"T!	c #52504F",
"U!	c #B3C9DF",
"V!	c #696C6D",
"W!	c #C3CFD2",
"X!	c #F1E3E0",
"Y!	c #EFC9C5",
"Z!	c #F1D0CC",
"[!	c #EDCECC",
"]!	c #F8E0DD",
"^!	c #FBDAD8",
"_!	c #FCEAE7",
"`!	c #FFFEFB",
"a!	c #FFFFFD",
"b!	c white",
"c!	c #FFFFFE",
"d!	c #F3F2ED",
"e!	c #D3D5D4",
"f!	c #D4D7D8",
"g!	c #686767",
"h!	c #212121",
"i!	c #B8B8B8",
"j!	c #2D2E2E",
"k!	c #726F6D",
"l!	c #B3C8E0",
"m!	c #696D6C",
"n!	c #C2CCD1",
"o!	c #DFDFE2",
"p!	c #D8C8CA",
"q!	c #DCCECF",
"r!	c #DBCFD2",
"s!	c #DFD3D4",
"t!	c #DDCECD",
"u!	c #E2DBDC",
"v!	c #EBEDED",
"w!	c #FAFAFB",
"x!	c #FDFDFD",
"y!	c #FBFBFB",
"z!	c #FDFEFE",
"{!	c #F2F2F1",
"|!	c #D7DADB",
"}!	c #D0D2D4",
"~!	c #C5C5C4",
" #	c #D0D0D0",
"!#	c #C7C7C7",
"##	c #919191",
"$#	c #8D8E8F",
"%#	c #8F8C8A",
"&#	c #889DB6",
"'#	c #76797A",
"(#	c #C8CCD0",
")#	c #DCDAD6",
"*#	c #BDBEB8",
"+#	c #C6C8C4",
",#	c #CDCCC6",
"-#	c #BEBFBD",
".#	c #D7DBDB",
"0#	c #F2F3F3",
"1#	c #F2F2F2",
"2#	c #F9F8F8",
"3#	c #F9F9F9",
"4#	c #FCFCFB",
"5#	c #EFEEEE",
"6#	c #CBCDCD",
"7#	c #D7D9DA",
"8#	c #939292",
"9#	c #7E7E7E",
":#	c #C4C4C4",
";#	c #6B6C6C",
"<#	c #353737",
"=#	c #4D4A48",
">#	c #7E94AB",
"?#	c #7A7E7F",
"@#	c #C1CAD2",
"A#	c #DFEBF9",
"B#	c #CAD7E4",
"C#	c #D1DEEB",
"D#	c #D5E3F2",
"E#	c #D9DEE2",
"F#	c #FCFCFC",
"G#	c #EDEFF1",
"H#	c #D0D4D6",
"I#	c #242323",
"J#	c #AAAAAA",
"K#	c #616161",
"L#	c #0E0F0E",
"M#	c #2C2926",
"N#	c #7E94AC",
"O#	c #7C7F80",
"P#	c #888F97",
"Q#	c #76889A",
"R#	c #72879A",
"S#	c #728597",
"T#	c #667C8F",
"U#	c #79828A",
"V#	c #8A8D8E",
"W#	c #888D90",
"X#	c #8B8E92",
"Y#	c #8A8E92",
"Z#	c #989C9E",
"[#	c #A3A7A9",
"]#	c #999DA0",
"^#	c #A7ACB0",
"_#	c #C8CACB",
"`#	c #727171",
"a#	c #565757",
"b#	c #6C6C6C",
"c#	c #2F3030",
"d#	c #423F3D",
"e#	c #8196AD",
"f#	c #7A7D7F",
"g#	c #5B5A59",
"h#	c #252220",
"i#	c #1B1815",
"j#	c #32302D",
"k#	c #4B4947",
"l#	c #484747",
"m#	c #353435",
"n#	c #282727",
"o#	c #3E3E3E",
"p#	c #484849",
"q#	c #3D3D3D",
"r#	c #29292A",
"s#	c #0A0A0B",
"t#	c #101010",
"u#	c #292929",
"v#	c #B8B7B7",
"w#	c #E7E6E6",
"x#	c #DBDADA",
"y#	c #DDDCDC",
"z#	c #CFCFCF",
"{#	c #C8C9CA",
"|#	c #D6D3D0",
"}#	c #A9BED5",
"~#	c #6A6E6F",
" $	c #5C5C5C",
"!$	c #100F0F",
"#$	c #787777",
"$$	c #636463",
"%$	c #565756",
"&$	c #727272",
"'$	c #737373",
"($	c #5B5B5A",
")$	c #3F3F40",
"*$	c #2C2B2A",
"+$	c #656665",
",$	c #5C5B5B",
"-$	c #151514",
".$	c #222222",
"0$	c #B5B5B6",
"1$	c #80807F",
"2$	c #4F4F4F",
"3$	c #CCCCCC",
"4$	c #C3C3C3",
"5$	c #4D4E4E",
"6$	c #8B8886",
"7$	c #B4C9E1",
"8$	c #505150",
"9$	c #040404",
":$	c #040504",
";$	c #040405",
"<$	c #070707",
"=$	c #838383",
">$	c #6B6B6B",
"?$	c #0A0A0A",
"@$	c #444444",
"A$	c #141414",
"B$	c #161616",
"C$	c #A2A2A2",
"D$	c #464646",
"E$	c #191919",
"F$	c #AEAEAE",
"G$	c #A0A09F",
"H$	c #0F0F0F",
"I$	c #4C4A48",
"J$	c #ACC0D8",
"K$	c #6E7272",
"L$	c #545A54",
"M$	c #0B120B",
"N$	c #010101",
"O$	c #474747",
"P$	c #DBDBDB",
"Q$	c #D8D8D8",
"R$	c #484848",
"S$	c #ABABAB",
"T$	c #878787",
"U$	c #6A6A6A",
"V$	c #C2C2C2",
"W$	c #BAB9BA",
"X$	c #666767",
"Y$	c #8C8A87",
"Z$	c #ADC1D9",
"[$	c #6D7071",
"]$	c #565D56",
"^$	c #9B9B9B",
"_$	c #DFDFDF",
"`$	c #808080",
"a$	c #020202",
"b$	c #B6B6B6",
"c$	c #E1E1E1",
"d$	c #CFD0D0",
"e$	c #E0E0E0",
"f$	c #DDDCDD",
"g$	c #E2DFDD",
"h$	c #ACC2DB",
"i$	c #686C6D",
"j$	c #5A625C",
"k$	c #0E150E",
"l$	c #9D9D9D",
"m$	c #C5C5C5",
"n$	c #707070",
"o$	c #151515",
"p$	c #B1B1B1",
"q$	c #6F6F6F",
"r$	c #3A3A3A",
"s$	c #343535",
"t$	c #767472",
"u$	c #BCCBDD",
"v$	c #6B6E6F",
"w$	c #535B54",
"x$	c #0A120A",
"y$	c #030303",
"z$	c #CBCBCB",
"{$	c #2F2F2F",
"|$	c #050505",
"}$	c #1B1B1B",
"~$	c #4C4C4C",
" %	c #202020",
"!%	c #171717",
"#%	c #494A4A",
"$%	c #DEDEDE",
"%%	c #797979",
"&%	c #545B54",
"'%	c #0A120B",
"(%	c #2B2B2B",
")%	c #434343",
"*%	c #262626",
"+%	c #515151",
",%	c #999999",
"-%	c #494949",
".%	c #0B0B0B",
"0%	c #969696",
"1%	c #7D7C7C",
"2%	c #BCBCBC",
"3%	c #939393",
"4%	c #767676",
"5%	c #050605",
"6%	c #0C0C0C",
"7%	c #191A19",
"8%	c #949594",
"9%	c #777777",
":%	c #0E0E0E",
";%	c #0C0D0C",
"<%	c #B4B4B4",
"=%	c #DCDBDC",
">%	c #C9C9C8",
"?%	c #D9D9D9",
"@%	c #CAC9C9",
"A%	c #D6D6D7",
"B%	c #E1E1E2",
"C%	c #565656",
"D%	c #1B1A1B",
"E%	c #0B0A0B",
"F%	c #6D6C6D",
"G%	c #6B696B",
"H%	c #020002",
"I%	c #1C1D1D",
"J%	c #AFAFAF",
"K%	c #696869",
"L%	c #343434",
"M%	c #B4B4B3",
"N%	c #2E2F2F",
"O%	c #6A6A69",
"P%	c #E5E5E5",
"Q%	c #747474",
"R%	c #1C1C1C",
"S%	c #181818",
"T%	c #1A1A1A",
"U%	c #141614",
"V%	c #7F877F",
"W%	c #BCC3BA",
"X%	c #8B9389",
"Y%	c #030A03",
"Z%	c #252525",
"[%	c #A7A7A7",
"]%	c #1E1E1E",
"^%	c #ADADAD",
"_%	c #9F9F9F",
"`%	c #151414",
"a%	c #4A4A49",
"b%	c #8D8D8E",
"c%	c #7F7F80",
"d%	c #848485",
"e%	c #8B8C8C",
"f%	c #878888",
"g%	c #989999",
"h%	c #B8BAB8",
"i%	c #AEB5B4",
"j%	c #B0B5B3",
"k%	c #979A97",
"l%	c #8F9091",
"m%	c #949495",
"n%	c #B0B0B1",
"o%	c #A0A0A1",
"p%	c #929293",
"q%	c #CDCDCD",
"r%	c #A8A8A8",
"s%	c #CECECE",
"t%	c #C9C9C9",
"u%	c #929292",
"v%	c #DDDDDD",
"w%	c #787878",
"x%	c #898989",
"y%	c #8B8B8B",
"z%	c #8C8C8C",
"{%	c #909191",
"|%	c #8F8E8F",
"}%	c #888787",
"~%	c #8A8B8D",
" &	c #8F8F91",
"!&	c #9F9E9F",
"#&	c #A6A5A6",
"$&	c #A6A7A7",
"%&	c #9E9E9E",
"&&	c #9D9D9E",
"'&	c #8E8E8E",
"(&	c #868686",
")&	c #979797",
"*&	c #8D8D8D",
"+&	c #4E4E4E",
"! # $ % & ' ( ) * + , - . 0 1 2 3 4 5 6 7 8 9 : ",
"; < = > ? @ A B C D E F G H I J K L M N O P Q R ",
"S T U V W X Y Z [ ] ^ _ ` a b c d e f g h i j k ",
"l m n o p q r s t u v w x y z { | } ~  !!!#!$!%!",
"&!'!(!)!*!+!,!-!.!0!1!2!3!4!5!6!7!8!9!:!;!<!=!>!",
"?!@!A!B!C!D!E!F!G!H!I!J!K!L!M!N!O!P!Q!R!S!T!U!V!",
"W!X!Y!Z![!]!^!_!`!a!b!c!b!d!e!f!g!h!Q!i!j!k!l!m!",
"n!o!p!q!r!s!t!u!v!w!x!y!z!{!|!}!~! #!###$#%#&#'#",
"(#)#*#+#,#-#.#0#1#2#3#3#4#5#6#7#8#9#:#;#<#=#>#?#",
"@#A#B#C#D#E#b!b!b!b!b!b!b!F#G#H#I#S!J#K#L#M#N#O#",
"P#Q#R#S#T#U#V#W#X#Y#Z#[#[#]#^#_#`#a#i!b#c#d#e#f#",
"g#h#i#j#k#l#m#n#o#p#q#r#s#t#u#v#w#x#y#z#{#|#}#~#",
" $!$I##$$$%$&$'$($)$*$+$,$-$.$0$1$2$3$4$5$6$7$>!",
"8$9$:$;$S!S!<$=$>$?$S!<$@$A$B$C$D$E$F$G$H$I$J$K$",
"L$M$S!S!9$N$O$P$Q$R$S!N$S!<$A$S$T$U$V$W$X$Y$Z$[$",
"]$M$S!N$N$?$^$:#_$`$a$a$9$S!H$b$c$d$e$f$d$g$h$i$",
"j$k$S!S!S!N$l$m$b!n$S!N$a$S!o$p$q$r$!#i!s$t$u$v$",
"w$x$S!S!y$o$l$1#z${$?$|$N$S!}$3 ~$ %F$3 !%#%$%%%",
"&%'%S!S!(%)%*%+%,%-%)%.%S!S!o$J#0%1%:#2%%%3%$%4%",
"8$5%S!S!6%S!7%8%9%S!:%a$y$S!;%<%=%>%$%?%@%A%B%&$",
"C%D%P!E%9$S!F%b!G%H%|$a$a$a$I%J%K%L%4$M%N%O%P%Q%",
"C%R%S%T%:%U%V%W%X%Y%S!S!B$T%Z%[%O$]%^%_%`%a%9!9%",
"b%c%d%e%f%g%h%i%j%k%l%m%n%o%p%q%r%0%s%t%u%[%v%9%",
"w%x%y%z%{%|%}%~% &!&#&$&%&&&^$'&^$_%T$(&)&*&;!+&"};