/* XPM */
static char * all_xpm[] = {
"24 24 365 2",
"  	c None",
". 	c #7991AA",
"+ 	c #6182A7",
"@ 	c #91AAC8",
"# 	c #D2E2F5",
"$ 	c #89A7C9",
"% 	c #658BB6",
"& 	c #9CB7D6",
"* 	c #D0DEF0",
"= 	c #B3CBE9",
"- 	c #5D799A",
"; 	c #6E8EB0",
"> 	c #7596BB",
", 	c #7897BB",
"' 	c #9DB9DA",
") 	c #C3D6ED",
"! 	c #A6C2E4",
"~ 	c #6E8FB5",
"{ 	c #7898BD",
"] 	c #758496",
"^ 	c #AE8D6C",
"/ 	c #D0A278",
"( 	c #CCA076",
"_ 	c #CDA178",
": 	c #CB9C6F",
"< 	c #BC936A",
"[ 	c #84A1C1",
"} 	c #9CBADC",
"| 	c #A4BEDE",
"1 	c #AFC8E6",
"2 	c #B4CCE9",
"3 	c #ADC7E7",
"4 	c #9DBBDD",
"5 	c #9CBBDF",
"6 	c #838FA0",
"7 	c #C6A17F",
"8 	c #FAD4A7",
"9 	c #F2CDA9",
"0 	c #F0CCA9",
"a 	c #F0CAA4",
"b 	c #F0C9A1",
"c 	c #F0CAA3",
"d 	c #F0C397",
"e 	c #C7A681",
"f 	c #7094BD",
"g 	c #7EABDF",
"h 	c #8BB4E3",
"i 	c #91B8E3",
"j 	c #9CBFE5",
"k 	c #A9C6E8",
"l 	c #A8C4E8",
"m 	c #A1C4ED",
"n 	c #7E8FA5",
"o 	c #9F856B",
"p 	c #CAB287",
"q 	c #F3BC76",
"r 	c #FFCC8C",
"s 	c #FFD49E",
"t 	c #FFDAAC",
"u 	c #FFD9A8",
"v 	c #FFD299",
"w 	c #CFA574",
"x 	c #B6834E",
"y 	c #4C7AAF",
"z 	c #3E81CD",
"A 	c #4C8DD6",
"B 	c #5493D8",
"C 	c #629DDB",
"D 	c #74A8DF",
"E 	c #91B6E1",
"F 	c #99B9E3",
"G 	c #7C9CC3",
"H 	c #6C819B",
"I 	c #728599",
"J 	c #897A5E",
"K 	c #EF971B",
"L 	c #FFB039",
"M 	c #FEBD60",
"N 	c #FECB86",
"O 	c #FFCC8A",
"P 	c #E9B26F",
"Q 	c #DAA269",
"R 	c #C59259",
"S 	c #9D8061",
"T 	c #477DB3",
"U 	c #3985D1",
"V 	c #4690D9",
"W 	c #4990DA",
"X 	c #4B8FDB",
"Y 	c #4892DB",
"Z 	c #52A0DE",
"` 	c #6FABDF",
" .	c #81AFDD",
"..	c #76ABDE",
"+.	c #70A7DE",
"@.	c #5785B7",
"#.	c #BD7A15",
"$.	c #FF9900",
"%.	c #FC9E09",
"&.	c #FCAA2E",
"*.	c #FDBD62",
"=.	c #FDC272",
"-.	c #FEBF71",
";.	c #F9B16C",
">.	c #B1792D",
",.	c #3F86BD",
"'.	c #2B97DC",
").	c #389EE1",
"!.	c #3986CF",
"~.	c #3375BE",
"{.	c #3587D1",
"].	c #2CA1E4",
"^.	c #32A9E6",
"/.	c #5CA7E1",
"(.	c #6BACE3",
"_.	c #60A5E2",
":.	c #4B7AA6",
"<.	c #CD810B",
"[.	c #FF9D00",
"}.	c #FCA000",
"|.	c #FC9F00",
"1.	c #FCA419",
"2.	c #FFB447",
"3.	c #FFB858",
"4.	c #F1A248",
"5.	c #9F753B",
"6.	c #3E8FC5",
"7.	c #23A3E7",
"8.	c #2892D1",
"9.	c #76817F",
"0.	c #C99461",
"a.	c #7E796F",
"b.	c #2899D4",
"c.	c #1EB5F1",
"d.	c #398FC4",
"e.	c #5C6C7C",
"f.	c #68706A",
"g.	c #B47F23",
"h.	c #F7A300",
"i.	c #FEB000",
"j.	c #FDAF00",
"k.	c #FEAE00",
"l.	c #FEA900",
"m.	c #D79014",
"n.	c #AD741E",
"o.	c #957442",
"p.	c #3F8FC6",
"q.	c #1E98E6",
"r.	c #4C86A6",
"s.	c #D1A775",
"t.	c #FFCC96",
"u.	c #ECB071",
"v.	c #4082A7",
"w.	c #1EAFF2",
"x.	c #3A89B2",
"y.	c #B9711C",
"z.	c #F79304",
"A.	c #FCAD00",
"B.	c #FFBE00",
"C.	c #FEC300",
"D.	c #FFC600",
"E.	c #FFC200",
"F.	c #FFB100",
"G.	c #CC9528",
"H.	c #377DB6",
"I.	c #1073C7",
"J.	c #456F90",
"K.	c #D3A365",
"L.	c #FFCC83",
"M.	c #EEB267",
"N.	c #376C94",
"O.	c #178AD9",
"P.	c #33739E",
"Q.	c #B77215",
"R.	c #EF9200",
"S.	c #F5A800",
"T.	c #FDBF00",
"U.	c #FFC500",
"V.	c #FBBF00",
"W.	c #F6B100",
"X.	c #EB9900",
"Y.	c #BF8625",
"Z.	c #8F7C6A",
"`.	c #8E7766",
" +	c #A17F5B",
".+	c #E2A85B",
"++	c #FFC775",
"@+	c #F1AF57",
"#+	c #9C7F61",
"$+	c #94806F",
"%+	c #796C60",
"&+	c #77746C",
"*+	c #948E79",
"=+	c #8E8056",
"-+	c #F2A800",
";+	c #FFBB00",
">+	c #DFA20E",
",+	c #9B8854",
"'+	c #898778",
")+	c #7E817B",
"!+	c #D89653",
"~+	c #FFA84F",
"{+	c #FFB056",
"]+	c #FEB95F",
"^+	c #FDBC62",
"/+	c #FEBB63",
"(+	c #FFB256",
"_+	c #FFAB53",
":+	c #B78451",
"<+	c #7391B2",
"[+	c #97BBE9",
"}+	c #697B89",
"|+	c #F2A000",
"1+	c #FFB600",
"2+	c #DB960C",
"3+	c #848D91",
"4+	c #7AAAE6",
"5+	c #7195C0",
"6+	c #DA994C",
"7+	c #FFB04E",
"8+	c #FDB452",
"9+	c #FDB54D",
"0+	c #FEAD36",
"a+	c #FCA320",
"b+	c #DC8E23",
"c+	c #B88038",
"d+	c #8D714D",
"e+	c #8099B7",
"f+	c #9DBFE7",
"g+	c #6E889E",
"h+	c #D28904",
"i+	c #F5A100",
"j+	c #C2891A",
"k+	c #84939F",
"l+	c #87B1E4",
"m+	c #7696BB",
"n+	c #B07E3D",
"o+	c #D58A37",
"p+	c #ED9531",
"q+	c #F8A538",
"r+	c #FDB040",
"s+	c #FDAA2C",
"t+	c #FF9C00",
"u+	c #D78506",
"v+	c #5B7185",
"w+	c #598FCF",
"x+	c #6093CD",
"y+	c #7CA6D6",
"z+	c #8BB3E2",
"A+	c #81A8D5",
"B+	c #727773",
"C+	c #A27B37",
"D+	c #7A817F",
"E+	c #7DA6D8",
"F+	c #86B0E0",
"G+	c #6E92BB",
"H+	c #D3790D",
"I+	c #F59A34",
"J+	c #FBA32E",
"K+	c #FEA72F",
"L+	c #FFA000",
"M+	c #A47627",
"N+	c #447BBC",
"O+	c #538CCF",
"P+	c #5490D6",
"Q+	c #5993D6",
"R+	c #5B95D6",
"S+	c #6498D5",
"T+	c #5F98DB",
"U+	c #538FDA",
"V+	c #76A5DE",
"W+	c #8BB0DD",
"X+	c #7CA7D9",
"Y+	c #698EBA",
"Z+	c #B08952",
"`+	c #D08A32",
" @	c #E39422",
".@	c #F49F14",
"+@	c #FEA800",
"@@	c #FDB000",
"#@	c #FDB300",
"$@	c #FFB000",
"%@	c #D78F0B",
"&@	c #516571",
"*@	c #2D6BAE",
"=@	c #3A76B8",
"-@	c #4184CE",
";@	c #428AD6",
">@	c #3D85D2",
",@	c #3C84CF",
"'@	c #4A8CD0",
")@	c #5B99D7",
"!@	c #6CA5DB",
"~@	c #6EA2DA",
"{@	c #648BB9",
"]@	c #C8841C",
"^@	c #DE9A15",
"/@	c #FFB200",
"(@	c #FEC100",
"_@	c #FEC400",
":@	c #FEC200",
"<@	c #D38813",
"[@	c #A16F37",
"}@	c #7C6851",
"|@	c #4183BB",
"1@	c #389CE3",
"2@	c #36A0E1",
"3@	c #339EE0",
"4@	c #2F9CDF",
"5@	c #2C9CE0",
"6@	c #37A4E3",
"7@	c #469EDD",
"8@	c #5988B9",
"9@	c #D8991E",
"0@	c #FFAF00",
"a@	c #FFC000",
"b@	c #FFB800",
"c@	c #FFA200",
"d@	c #FF8900",
"e@	c #B16B1B",
"f@	c #3283B6",
"g@	c #23ACF0",
"h@	c #20B4EF",
"i@	c #1EB7EF",
"j@	c #1DB7EF",
"k@	c #20B3ED",
"l@	c #22AFED",
"m@	c #249AE2",
"n@	c #4382B7",
"o@	c #C48E33",
"p@	c #DA9717",
"q@	c #DEA118",
"r@	c #DFA119",
"s@	c #DEA019",
"t@	c #DB9519",
"u@	c #DC8B16",
"v@	c #A37437",
"w@	c #3F7BA7",
"x@	c #3497D2",
"y@	c #2BA1DD",
"z@	c #1EB4ED",
"A@	c #1ABAF1",
"B@	c #25AAE7",
"C@	c #3797D1",
"D@	c #3686C1",
"E@	c #4578A8",
"F@	c #B5883D",
"G@	c #B88C3A",
"H@	c #B98C3A",
"I@	c #B1873B",
"J@	c #B38539",
"K@	c #947951",
"L@	c #537597",
"M@	c #477EB0",
"N@	c #528DB8",
"O@	c #26A2E4",
"P@	c #1FB5EE",
"Q@	c #2B99D8",
"R@	c #4A75A2",
"S@	c #2387CD",
"T@	c #2CA8E7",
"U@	c #2989CA",
"V@	c #3F77AA",
"W@	c #2276BC",
"X@	c #4779A7",
"            . +                                 ",
"            @ # $                               ",
"          % & * = -                             ",
"      ; > , ' ) ! ~ { ] ^ / ( ( ( ( _ : <       ",
"      [ } | 1 2 3 4 5 6 7 8 9 0 a b c d e       ",
"      f g h i j k l m n o p q r s t u v w x     ",
"      y z A B C D E F G H I J K L M N O P Q R S ",
"      T U V W X Y Z `  ...+.@.#.$.%.&.*.=.-.;.>.",
"      ,.'.).!.~.{.].^./.(._.:.<.[.}.|.1.2.3.4.5.",
"      6.7.8.9.0.a.b.c.d.e.f.g.h.i.j.k.l.m.n.o.  ",
"      p.q.r.s.t.u.v.w.x.y.z.A.B.C.D.E.F.G.      ",
"      H.I.J.K.L.M.N.O.P.Q.R.S.T.U.V.W.X.Y.      ",
"      Z.`. +.+++@+#+$+%+&+*+=+-+;+>+,+'+)+      ",
"      !+~+{+]+^+/+(+_+:+<+[+}+|+1+2+3+4+5+      ",
"      6+7+8+9+0+a+b+c+d+e+f+g+h+i+j+k+l+m+      ",
"n+o+p+q+r+s+%.t+u+v+w+x+y+z+A+B+C+D+E+F+G+      ",
"H+I+J+K+1.|.|.L+M+N+O+P+Q+R+S+T+U+V+W+X+Y+      ",
"Z+`+ @.@+@@@#@$@%@&@*@=@-@;@>@,@'@)@!@~@{@      ",
"    ]@^@/@(@_@:@F.<@[@}@|@1@2@3@4@5@6@7@8@      ",
"      9@0@a@E.E.b@c@d@e@f@g@h@i@j@k@l@m@n@      ",
"      o@p@q@r@r@s@t@u@v@w@x@y@z@A@B@C@D@E@      ",
"        F@G@G@G@H@I@J@K@L@M@N@O@P@Q@  R@        ",
"                              S@T@U@            ",
"                              V@W@X@            "};
