/* XPM */ 
static const char * angle_xpm[] = {
"28 28 136 2",
"  	c None",
"! 	c black",
"# 	c #58AB58",
"$ 	c #22C022",
"% 	c #DADCDA",
"& 	c #ADC1AD",
"' 	c #00BF00",
"( 	c #9FB89F",
") 	c #E5E7E5",
"* 	c #0EB90E",
"+ 	c #59B359",
", 	c #F4F4F4",
"- 	c #FAFAFA",
". 	c #8DB48D",
"0 	c #BEC6BE",
"1 	c #DCE0DC",
"2 	c #18B418",
"3 	c #7EB37E",
"4 	c #FBFBFB",
"5 	c #64AB64",
"6 	c #1DB71D",
"7 	c #DFE0DF",
"8 	c #B6C6B6",
"9 	c #08BB08",
": 	c #A2B9A2",
"; 	c #FDFDFD",
"< 	c #E9E9E9",
"= 	c #CDD0CD",
"> 	c #D3D5D3",
"? 	c #EEEEEE",
"@ 	c #E7E9E7",
"A 	c #36AE36",
"B 	c #33B633",
"C 	c #77B377",
"D 	c #29B629",
"E 	c #00BC00",
"F 	c #00C000",
"G 	c #14B314",
"H 	c #39B539",
"I 	c #92B592",
"J 	c #D0D2D0",
"K 	c #AEC2AE",
"L 	c #1AB51A",
"M 	c #0EC50E",
"N 	c #4CD44C",
"O 	c #6FDD6F",
"P 	c #8BE38B",
"Q 	c #86E286",
"R 	c #6BDB6B",
"S 	c #40D140",
"T 	c #05C205",
"U 	c #90B490",
"V 	c #F2F2F2",
"W 	c #44AC44",
"X 	c #29CC29",
"Y 	c #BCEFBC",
"Z 	c #5CD85C",
"[ 	c #00BE00",
"] 	c #59B159",
"^ 	c #E7E8E7",
"_ 	c #65AC65",
"` 	c #06C406",
"a 	c #C0F0C0",
"b 	c #C5F4CE",
"c 	c #A2EDB1",
"d 	c #98E698",
"e 	c #49B249",
"f 	c #ECECEC",
"g 	c #BBC9BB",
"h 	c #0CBB0C",
"i 	c #53D653",
"j 	c #D6F7DC",
"k 	c #2DD64E",
"l 	c #07CC22",
"m 	c #95EAA5",
"n 	c #99E799",
"o 	c #01C101",
"p 	c #75B275",
"q 	c #24B324",
"r 	c #19C819",
"s 	c #D0F6D8",
"t 	c #22D444",
"u 	c #03CB1F",
"v 	c #8AE89B",
"w 	c #70DD70",
"x 	c #15BA15",
"y 	c #8FB48F",
"z 	c #78B278",
"{ 	c #1EB61E",
"| 	c #0ABD0A",
"} 	c #93B693",
"~ 	c #02C102",
" !	c #74DE74",
"!!	c #BBF2C5",
"#!	c #CDF3CD",
"$!	c #79DF79",
"%!	c #05C305",
"&!	c #00C100",
"'!	c #12B812",
"(!	c #51AB51",
")!	c #A8BFA8",
"*!	c #F6F6F6",
"+!	c #26B126",
",!	c #2DCD2D",
"-!	c #ACEBAC",
".!	c #63D963",
"0!	c #09C409",
"1!	c #19B719",
"2!	c #6AAC6A",
"3!	c #B5C5B5",
"4!	c #77AE77",
"5!	c #09C309",
"6!	c #A6EAA6",
"7!	c #D4F4D4",
"8!	c #82E182",
"9!	c #3ED13E",
":!	c #00C200",
";!	c #0FB70F",
"<!	c #55AB55",
"=!	c #A6BEA6",
">!	c #C6D0C6",
"?!	c #D7DCD7",
"@!	c #13B713",
"A!	c #22C922",
"B!	c #28B028",
"C!	c #7DAF7D",
"D!	c #CFD6CF",
"E!	c #F3F3F3",
"F!	c #05C005",
"G!	c #0ABB0A",
"H!	c #3EAC3E",
"I!	c #9EBA9E",
"J!	c #E9EAE9",
"K!	c #BDCABD",
"L!	c #C0CCC0",
"M!	c #F2F3F2",
"                                                        ",
"                                                        ",
"                                                        ",
"    # $ %                                               ",
"    & ' (                                               ",
"    ) * + ,                                             ",
"    - . ' 0                                             ",
"      1 2 3                                             ",
"      4 5 6 7                                           ",
"        8 9 :   ; < = > ?                               ",
"        @ A B C D E F ' G H I J                         ",
"          K L M N O P Q R S T G U V                     ",
"            W X             Y Z [ ] ^                   ",
"            _ ` a     b c       d T e f                 ",
"            g h i   j k l m       n o p     < I         ",
"              q r   s t u v         w x y z { |         ",
"              } ~  !  !!m         #!$!%!&!'!(!)!        ",
"              *!+!,!          -!.!0![ 1!2!3!            ",
"                4!5!6!  7!8!9!:!;!<!=!>!                ",
"                ?!@!S .!A!F B!C!D!E!                    ",
"                  } F!G!H!I!J!;                         ",
"                  4 K!L!M!                              ",
"                                                        ",
"                                                        ",
"                                                        ",
"                                                        ",
"                                                        ",
"                                                        "};