/* XPM */
static const char * animate_xpm[] = {
"24 24 39 1",
" 	c None",
".	c #000000",
"+	c #1A1A1A",
"@	c #9F9F9F",
"#	c #707070",
"$	c #0E0E0E",
"%	c #878787",
"&	c #7E7E7E",
"*	c #838383",
"=	c #404040",
"-	c #484848",
";	c #353535",
">	c #696969",
",	c #585858",
"'	c #242424",
")	c #959595",
"!	c #737373",
"~	c #8F8F8F",
"{	c #898989",
"]	c #141414",
"^	c #6D6D6D",
"/	c #A9A9A9",
"(	c #A0A0A0",
"_	c #606060",
":	c #2D2D2D",
"<	c #3A3A3A",
"[	c #505050",
"}	c #757575",
"|	c #797979",
"1	c #F6F6F6",
"2	c #8D8D8D",
"3	c #B4B4B4",
"4	c #7A7A7A",
"5	c #626262",
"6	c #080808",
"7	c #030303",
"8	c #101010",
"9	c #808080",
"0	c #323232",
"........................",
"  .   .   .  ..  .   .  ",
"  .   .   .  ..  .   .  ",
"........................",
"  ..+              ..@  ",
"  ..               ..   ",
"  ..               ..   ",
"  ..    #$%&#*     ..   ",
"  ..   =-@+*;=&+   ..  >",
", ..  '))!~){>>#]  ..  -",
", ..  ^%~@@@@/(_:! .. _<",
"[/..  <},!_#~)@/[| .. 1>",
": ..  *|}#;=-,+}2# .. 3;",
"4 .. ~4&)))##,*5_6 .. 4{",
"_ ..  7&%@)((@{[>7 .. +|",
"  ..  @:*|)>)()^8  ..  8",
"  ..   _$94-!_,,   ..   ",
"  ..      _#_      ..   ",
"  ..               ..   ",
"  ..0              ..   ",
"........................",
"  .   .   .  ..  .   .  ",
"  .   .   .  ..  .   .  ",
"........................"};
