/* XPM */
static const char * animate_xpm[] = {
"24 24 64 1",
" 	c None",
".	c #B4B4B4",
"+	c #404040",
"@	c #9F9F9F",
"#	c #303030",
"$	c #AFAFAF",
"%	c #3A3A3A",
"&	c #1A1A1A",
"*	c #FAFAFA",
"=	c #505050",
"-	c #F6F6F6",
";	c #878787",
">	c #242424",
",	c #202020",
"'	c #484848",
")	c #0E0E0E",
"!	c #606060",
"~	c #A9A9A9",
"{	c #EAEAEA",
"]	c #101010",
"^	c #2D2D2D",
"/	c #FDFDFD",
"(	c #D7D7D7",
"_	c #080808",
":	c #030303",
"<	c #898989",
"[	c #E6E6E6",
"}	c #696969",
"|	c #F1F1F1",
"1	c #353535",
"2	c #8D8D8D",
"3	c #272727",
"4	c #838383",
"5	c #141414",
"6	c #323232",
"7	c #808080",
"8	c #BFBFBF",
"9	c #D5D5D5",
"0	c #E4E4E4",
"a	c #797979",
"b	c #EFEFEF",
"c	c #DFDFDF",
"d	c #707070",
"e	c #CFCFCF",
"f	c #8F8F8F",
"g	c #C9C9C9",
"h	c #6D6D6D",
"i	c #E5E5E5",
"j	c #959595",
"k	c #DCDCDC",
"l	c #7A7A7A",
"m	c #626262",
"n	c #E3E3E3",
"o	c #BBBBBB",
"p	c #A0A0A0",
"q	c #757575",
"r	c #C2C2C2",
"s	c #737373",
"t	c #7E7E7E",
"u	c #676767",
"v	c #585858",
"w	c #EDEDED",
"x	c #000000",
"y	c #FFFFFF",
"x  x    }'%}1<a]    x  x",
"x  x      !-.l&     x  x",
"xxxx@               xxxx",
"x  xxxxxxxxxxxxxxxxxx  x",
"x  xxxxxxxxxxxxxxxxxx  x",
"x  x                x  x",
"xxxx      sad_:     xxxx",
"x  x     5^=2!}]    x  x",
"x  x    &d!~qm=hv   x  x",
"xxxx    t}p@&4<jv   xxxx",
"xxxx   4+}~jvv@p!   xxxx",
"x  x   d1<@f'dpjs!  x  x",
"x  x   t4j@d+dp}'d  x  x",
"xxxx   ;&f@!1jjjl!  xxxx",
"x  x   )@s@sdj@a7   x  x",
"x  x   d'jfvqj;4)   x  x",
"x  x    +j;qatt^!   x  x",
"xxxx     >h%4l:@    xxxx",
"x  x         f      x  x",
"x  x&              6x  x",
"x  xxxxxxxxxxxxxxxxxx  x",
"xxxxxxxxxxxxxxxxxxxxxxxx",
"x  x       ~        x  x",
"x  x     vv=^l!     x  x"};
