/* XPM */
static const char * anonymizer_xpm[] = {
"28 28 241 2",
"  	c None",
". 	c #929292",
"+ 	c #9B9B9B",
"@ 	c #9C9C9C",
"# 	c #A1A1A1",
"$ 	c #BABABA",
"% 	c #CDCDCD",
"& 	c #D1D1D1",
"* 	c #CECECE",
"= 	c #C7C7C7",
"- 	c #B0B0B0",
"; 	c #969696",
"> 	c #828282",
", 	c #D0D0D0",
"' 	c #DDDDDD",
") 	c #DADADA",
"! 	c #D5D5D5",
"~ 	c #C8C8C8",
"{ 	c #B2B2B2",
"] 	c #A5A5A5",
"^ 	c #B1B1B1",
"/ 	c #C4C4C4",
"( 	c #C3C3C3",
"_ 	c #BEBEBE",
": 	c #B3B3B3",
"< 	c #949494",
"[ 	c #939393",
"} 	c #C1C1C1",
"| 	c #ACACAC",
"1 	c #AEAEAE",
"2 	c #B5B5B5",
"3 	c #BFBFBF",
"4 	c #ADADAD",
"5 	c #9E9E9E",
"6 	c #7B7B7B",
"7 	c #7D7D7D",
"8 	c #B8B8B8",
"9 	c #CACACA",
"0 	c #C6C6C6",
"a 	c #C0C0C0",
"b 	c #BBBBBB",
"c 	c #B6B6B6",
"d 	c #A6A6A6",
"e 	c #9D9D9D",
"f 	c #878787",
"g 	c #898989",
"h 	c #B9B9B9",
"i 	c #C5C5C5",
"j 	c #BCBCBC",
"k 	c #B7B7B7",
"l 	c #ABABAB",
"m 	c #8A8A8A",
"n 	c #959595",
"o 	c #C2C2C2",
"p 	c #A7A7A7",
"q 	c #989898",
"r 	c #888888",
"s 	c #B4B4B4",
"t 	c #AFAFAF",
"u 	c #9F9F9F",
"v 	c #979797",
"w 	c #A9A9A9",
"x 	c #A0A0A0",
"y 	c #999999",
"z 	c #BDBDBD",
"A 	c #A2A2A2",
"B 	c #A4A4A4",
"C 	c #A3A3A3",
"D 	c #AAAAAA",
"E 	c #9A9A9A",
"F 	c #D4D4D4",
"G 	c #B0100D",
"H 	c #B10C0C",
"I 	c #AF0C0C",
"J 	c #B30C0C",
"K 	c #B10D0D",
"L 	c #CBCBCB",
"M 	c #AB190F",
"N 	c #B3100E",
"O 	c #B20D0D",
"P 	c #B11111",
"Q 	c #B00D0D",
"R 	c #B50D0D",
"S 	c #DCDCDC",
"T 	c #DBDBDB",
"U 	c #AD160F",
"V 	c #BA140F",
"W 	c #BD1510",
"X 	c #AE0808",
"Y 	c #DE9593",
"Z 	c #C14E4A",
"` 	c #B01110",
" .	c #AE0909",
"..	c #B01515",
"+.	c #BAA4A4",
"@.	c #C6C7C7",
"#.	c #E2E2E2",
"$.	c #E3E3E3",
"%.	c #B5140F",
"&.	c #C52115",
"*.	c #B4100E",
"=.	c #AD0606",
"-.	c #F7EAE7",
";.	c #FCFFFC",
">.	c #D3827E",
",.	c #B51E1D",
"'.	c #AE0000",
").	c #BD5A5A",
"!.	c #C7C4C4",
"~.	c #D2D2D2",
"{.	c #D7D7D7",
"].	c #AC1A10",
"^.	c #C11912",
"/.	c #C52316",
"(.	c #AD0405",
"_.	c #AB0000",
":.	c #A90000",
"<.	c #D5807D",
"[.	c #FFFFFF",
"}.	c #E6B9B5",
"|.	c #BF3E3C",
"1.	c #AF0000",
"2.	c #BA8989",
"3.	c #BDBEBE",
"4.	c #919191",
"5.	c #B0110E",
"6.	c #C72416",
"7.	c #C1160D",
"8.	c #C45855",
"9.	c #E4B4B1",
"0.	c #E5B0B0",
"a.	c #E5AFAF",
"b.	c #EECECC",
"c.	c #F5E3E1",
"d.	c #CA5857",
"e.	c #B42A2A",
"f.	c #B3B8B8",
"g.	c #B10E0D",
"h.	c #C82517",
"i.	c #C1170D",
"j.	c #CA6966",
"k.	c #FBFBF8",
"l.	c #FEFEFE",
"m.	c #CC6864",
"n.	c #B10A0A",
"o.	c #ABA0A0",
"p.	c #A9AAAA",
"q.	c #A8A8A8",
"r.	c #AC1810",
"s.	c #C41E14",
"t.	c #C52113",
"u.	c #B5221E",
"v.	c #EBC9C7",
"w.	c #E9C4C0",
"x.	c #B62422",
"y.	c #B00909",
"z.	c #A28181",
"A.	c #A0A3A3",
"B.	c #AA1C10",
"C.	c #B9130F",
"D.	c #CA2517",
"E.	c #B40603",
"F.	c #D27A78",
"G.	c #FAF0F0",
"H.	c #F2E4DF",
"I.	c #DC9692",
"J.	c #D78E88",
"K.	c #FBF8F6",
"L.	c #C45450",
"M.	c #AE0B0A",
"N.	c #9C7979",
"O.	c #969898",
"P.	c #909090",
"Q.	c #AF130E",
"R.	c #C31811",
"S.	c #C21410",
"T.	c #B10B0C",
"U.	c #B4231F",
"V.	c #AC0203",
"W.	c #B82625",
"X.	c #F8EFEB",
"Y.	c #DC9694",
"Z.	c #AF0B0B",
"`.	c #8E8B8B",
" +	c #8E8F8F",
".+	c #8F8F8F",
"++	c #8C8C8C",
"@+	c #AA170F",
"#+	c #B10F0E",
"$+	c #C00E0E",
"%+	c #B70D0D",
"&+	c #AF090A",
"*+	c #B21716",
"=+	c #C65954",
"-+	c #BB3331",
";+	c #B20707",
">+	c #9F3C3C",
",+	c #828585",
"'+	c #838383",
")+	c #848484",
"!+	c #868686",
"~+	c #7E7E7E",
"{+	c #A91A10",
"]+	c #B00F0D",
"^+	c #B30D0D",
"/+	c #B00C0D",
"(+	c #AF0B0C",
"_+	c #AD0505",
":+	c #AE0809",
"<+	c #B30807",
"[+	c #A62121",
"}+	c #837575",
"|+	c #7E7F7F",
"1+	c #7F7F7F",
"2+	c #808080",
"3+	c #818181",
"4+	c #7C7C7C",
"5+	c #8D8D8D",
"6+	c #A91B0F",
"7+	c #AC130E",
"8+	c #AF0E0D",
"9+	c #B00C0C",
"0+	c #9F2929",
"a+	c #8A6F6F",
"b+	c #7F8080",
"c+	c #797979",
"d+	c #6B6B6B",
"e+	c #B20B0B",
"f+	c #656666",
"g+	c #747474",
"h+	c #777777",
"i+	c #6C6C6C",
"j+	c #626262",
"k+	c #585858",
"l+	c #525252",
"m+	c #595959",
"n+	c #606060",
"o+	c #5F5F5F",
"p+	c #565656",
"q+	c #4E4E4E",
"r+	c #4F4F4F",
"                              . + @ .                   ",
"                          # $ % & * = - ;               ",
"                      > - , ' ) ! , % ~ { >             ",
"                      ] & % ^ { / = ( _ : <             ",
"                    [ } } | 1 2 _ 3 $ 2 4 5 6           ",
"                    7 8 9 0 ~ 0 a b c { d e f           ",
"                    g h % 9 i } j k { l # + m           ",
"                    n $ 9 = o j 8 : 4 p - q r           ",
"                    q h = o _ h s t d u 5 n             ",
"                    v 2 o _ $ 2 - w x y q r             ",
"                      1 z $ 2 ^ l A q e n               ",
"                      B k c ^ | C + [ $ D               ",
"                      E 4 { | B @ < B F 3               ",
"        G H I J K       x p A E ; # 3 ' L               ",
"    M N O I I P Q H R   ; + + B t - L S T k             ",
"  U V W Q I X Y Z `  ...+.@.o b s b % , #.$.% {         ",
"  %.&.*.I Q =.-.;.>.,.'.).!.} z b o ~ = = ~.' {.3 D     ",
"].^./.(._._.:.<.[.[.}.|.1.2.3.b j z z z z j a % ~.k 4.  ",
"5.6.7.8.9.0.a.b.[.[.[.c.d.e.f.: : : : : : : { j * h B   ",
"g.h.i.j.k.[.[.[.l.l.l.[.m.n.o.p.w w w w w w q.# - | p e ",
"r.s.t.u.v.[.[.[.[.l.[.w.x.y.z.A.x # # # # # y e # # # ; ",
"B.C.D.E.F.G.H.I.J.[.K.L.M.y.N.O.v v q q y y P.+ E y v P.",
"  Q.R.S.T.U._.V.W.X.Y.P Z.H `. +.+P.P.. 4.++.+. P.P.< ; ",
"  @+#+$+%+&+I I *+=+-+X ;+>+,+'+)+!+f r g ~+m g m .+5 v ",
"    {+]+^+/+I Q (+_+:+<+[+}+|+1+1+2+3+> '+4+!+!+m [ 5 5+",
"      6+7+8+9+9+9+9+n.0+a+b+6 6 6 4+7 ~+c+~+'+f 5+++1+d+",
"          B.M 8+8+@+e+  f+g+2+)+)+)+)+)+h+h+h+g+i+j+k+  ",
"                            l+m+n+j+o+p+q+q+r+          "};
