/* XPM */
static char * axial_xpm[] = {
"25 25 257 2",
"  	c None",
". 	c #1D1D1E",
"+ 	c #585859",
"@ 	c #838384",
"# 	c #858585",
"$ 	c #808080",
"% 	c #6C6C6C",
"& 	c #323232",
"* 	c #3A3A3A",
"= 	c #7B7B7C",
"- 	c #6F6F71",
"; 	c #58585A",
"> 	c #4C4C4E",
", 	c #454547",
"' 	c #636364",
") 	c #767678",
"! 	c #4D4D4D",
"~ 	c #131313",
"{ 	c #2E2E2E",
"] 	c #707071",
"^ 	c #5A5A5C",
"/ 	c #444446",
"( 	c #585759",
"_ 	c #515153",
": 	c #5A595C",
"< 	c #6F6E71",
"[ 	c #434245",
"} 	c #353437",
"| 	c #626262",
"1 	c #505050",
"2 	c #1C1C1C",
"3 	c #606060",
"4 	c #5A5A5B",
"5 	c #666667",
"6 	c #8C8B8F",
"7 	c #99969A",
"8 	c #6D6D6F",
"9 	c #646466",
"0 	c #989699",
"a 	c #747376",
"b 	c #504F51",
"c 	c #535355",
"d 	c #5E5E5F",
"e 	c #484848",
"f 	c #6B6A6A",
"g 	c #5E5E5E",
"h 	c #A4A4A6",
"i 	c #C1BFC2",
"j 	c #B8B6B9",
"k 	c #828284",
"l 	c #616062",
"m 	c #949294",
"n 	c #9F9DA0",
"o 	c #838184",
"p 	c #59595A",
"q 	c #515151",
"r 	c #212121",
"s 	c #191919",
"t 	c #5F5F5F",
"u 	c #767576",
"v 	c #B8B7B9",
"w 	c #D6D4D7",
"x 	c #DBD9DC",
"y 	c #B8B5B8",
"z 	c #969497",
"A 	c #BCBABD",
"B 	c #D4D2D5",
"C 	c #BDBBBE",
"D 	c #8C8A8D",
"E 	c #555456",
"F 	c #5C5C5D",
"G 	c #313131",
"H 	c #6B6B6C",
"I 	c #5C5D5E",
"J 	c #767578",
"K 	c #89878A",
"L 	c #C4C2C5",
"M 	c #C6C4C7",
"N 	c #E4E2E5",
"O 	c #D2D0D3",
"P 	c #D4D2D4",
"Q 	c #DCDADD",
"R 	c #ACABAD",
"S 	c #6B6A6C",
"T 	c #565658",
"U 	c #5C5C5C",
"V 	c #1C1B1C",
"W 	c #444443",
"X 	c #69696A",
"Y 	c #505053",
"Z 	c #747375",
"` 	c #716E71",
" .	c #9D9B9E",
"..	c #A4A2A5",
"+.	c #8C8B8E",
"@.	c #B0AEB1",
"#.	c #99979A",
"$.	c #E1DFE2",
"%.	c #D8D6D9",
"&.	c #585658",
"*.	c #676768",
"=.	c #373737",
"-.	c #666669",
";.	c #5E5C5F",
">.	c #929093",
",.	c #888689",
"'.	c #ADABAE",
").	c #B9B7BA",
"!.	c #717172",
"~.	c #464548",
"{.	c #757376",
"].	c #C4C2C6",
"^.	c #E1E0E4",
"/.	c #ADABAF",
"(.	c #676468",
"_.	c #717072",
":.	c #4F4F4F",
"<.	c #151515",
"[.	c #5B5B5D",
"}.	c #6A696C",
"|.	c #88878A",
"1.	c #ACAAAD",
"2.	c #9C9A9D",
"3.	c #6F6D70",
"4.	c #323134",
"5.	c #6A686B",
"6.	c #C2C0C4",
"7.	c #E3E1E6",
"8.	c #D8D6DB",
"9.	c #B8B7BA",
"0.	c #828184",
"a.	c #6E6D6F",
"b.	c #5D5D5D",
"c.	c #121313",
"d.	c #1B1B1B",
"e.	c #626263",
"f.	c #6D6C6F",
"g.	c #ABAAAD",
"h.	c #B6B4B7",
"i.	c #B7B5B8",
"j.	c #6D6B6E",
"k.	c #817E82",
"l.	c #7A787B",
"m.	c #A6A4A9",
"n.	c #E1DFE4",
"o.	c #D7D5D9",
"p.	c #BEBCBF",
"q.	c #888789",
"r.	c #686869",
"s.	c #646365",
"t.	c #99979B",
"u.	c #A6A4A7",
"v.	c #BBB9BC",
"w.	c #DAD8DB",
"x.	c #A19FA2",
"y.	c #79777A",
"z.	c #C3C1C4",
"A.	c #A9A7AA",
"B.	c #D8D6DA",
"C.	c #D1CFD2",
"D.	c #A3A1A4",
"E.	c #1D1D1D",
"F.	c #6A6A69",
"G.	c #4C4B4C",
"H.	c #868487",
"I.	c #C2C0C3",
"J.	c #A5A3A6",
"K.	c #A8A6A9",
"L.	c #C5C3C6",
"M.	c #D7D5D7",
"N.	c #D5D3D6",
"O.	c #767677",
"P.	c #767676",
"Q.	c #222222",
"R.	c #616261",
"S.	c #6C6A6D",
"T.	c #B3B1B4",
"U.	c #D3D1D4",
"V.	c #C8C6C9",
"W.	c #C0BEC1",
"X.	c #AAA8AB",
"Y.	c #6E6E6F",
"Z.	c #757575",
"`.	c #202020",
" +	c #606161",
".+	c #6C6D6D",
"++	c #5F5E61",
"@+	c #CBC9CC",
"#+	c #807E81",
"$+	c #969598",
"%+	c #79787B",
"&+	c #807F80",
"*+	c #727172",
"=+	c #161616",
"-+	c #7F7F80",
";+	c #4B4A4D",
">+	c #7A7A7C",
",+	c #A2A0A3",
"'+	c #777477",
")+	c #BAB8BB",
"!+	c #7E7C7F",
"~+	c #8A888B",
"{+	c #5E5D5F",
"]+	c #828183",
"^+	c #575757",
"/+	c #2D2D2D",
"(+	c #555557",
"_+	c #ACABAE",
":+	c #929194",
"<+	c #8E8D90",
"[+	c #979599",
"}+	c #868386",
"|+	c #696869",
"1+	c #5B5A5C",
"2+	c #252525",
"3+	c #585858",
"4+	c #797978",
"5+	c #444344",
"6+	c #656466",
"7+	c #858386",
"8+	c #78777A",
"9+	c #838185",
"0+	c #868387",
"a+	c #777578",
"b+	c #4D4E4D",
"c+	c #717271",
"d+	c #424242",
"e+	c #171717",
"f+	c #6F6F70",
"g+	c #434345",
"h+	c #424144",
"i+	c #575759",
"j+	c #4D4D4F",
"k+	c #434244",
"l+	c #333233",
"m+	c #2A292B",
"n+	c #4D4C4D",
"o+	c #7A7B7A",
"p+	c #535353",
"q+	c #4D4D4E",
"r+	c #616163",
"s+	c #48484A",
"t+	c #38383A",
"u+	c #383839",
"v+	c #3D3D3E",
"w+	c #474647",
"x+	c #616061",
"y+	c #6A6A6A",
"z+	c #3F403F",
"A+	c #212122",
"B+	c #4C4C4D",
"C+	c #666666",
"D+	c #696969",
"E+	c #686868",
"F+	c #555555",
"G+	c #303030",
"H+	c #141414",
"                                                  ",
"                                                  ",
"                . + @ # $ $ % &                   ",
"              * = - ; + > , ' ) ! ~               ",
"            { ] ^ / ( _ : < [ } | 1               ",
"          2 3 4 5 6 7 8 9 0 a b c d *             ",
"          e f g h i j k l m n o = p q r           ",
"        s t | u v w x y z A B C D E F e           ",
"        G H I J K j L M N O P Q R S T U V         ",
"        W X Y Z `  ...+.@.#.C $.%...&.*.=.        ",
"        c -.;.>.,.'.).!.~.{.].^.x /.(._.:.        ",
"      <.[.}.|.1.2.i L 3.4.5.6.7.8.9.0.a.b.c.      ",
"      d.e.f.g.h.1.B i.j.k.l.m.n.o.p.q.r.5 s       ",
"      r % s.t.u.v.w.x.y.z.1.A.B.C.D.Z e.% E.      ",
"      r F.G.H.I.B B J.#.K.L.M.w N.D.O.r.P.Q.      ",
"      2 R.G.S.T.B U.V.W.D.X.i B B 1.H.Y.Z.`.      ",
"         +.+++#.z.O @+1.D #+D.M J.$+%+&+*+=+      ",
"        q -+;+>+D.i V.,+'+H.)+,+!+~+{+]+^+        ",
"        /+= _ (+~+u._+:+a <+T.[+}+|+1+- 2+        ",
"          3+4+5+6+7+,.k 8+9+0+a+F b+c+d+          ",
"          e+3 f+g+h+T i+j+k+l+m+n+o+p+            ",
"            ~ q+- r+s+t+u+v+w+x+y+z+              ",
"                A+B+C+D+D+E+F+G+H+                ",
"                                                  ",
"                                                  "};
