/* XPM */
static char * axial_xpm[] = {
"25 25 277 2",
"  	c None",
". 	c #000000",
"+ 	c #010101",
"@ 	c #000001",
"# 	c #060606",
"$ 	c #0D0D0D",
"% 	c #0F0F0F",
"& 	c #101010",
"* 	c #090909",
"= 	c #020202",
"- 	c #030303",
"; 	c #1D1D1E",
"> 	c #585859",
", 	c #838384",
"' 	c #858585",
") 	c #808080",
"! 	c #6C6C6C",
"~ 	c #323232",
"{ 	c #0A0A0A",
"] 	c #3A3A3A",
"^ 	c #7B7B7C",
"/ 	c #6F6F71",
"( 	c #58585A",
"_ 	c #4C4C4E",
": 	c #454547",
"< 	c #636364",
"[ 	c #767678",
"} 	c #4D4D4D",
"| 	c #131313",
"1 	c #2E2E2E",
"2 	c #707071",
"3 	c #5A5A5C",
"4 	c #444446",
"5 	c #585759",
"6 	c #515153",
"7 	c #5A595C",
"8 	c #6F6E71",
"9 	c #434245",
"0 	c #353437",
"a 	c #626262",
"b 	c #505050",
"c 	c #121212",
"d 	c #1C1C1C",
"e 	c #606060",
"f 	c #5A5A5B",
"g 	c #666667",
"h 	c #8C8B8F",
"i 	c #99969A",
"j 	c #6D6D6F",
"k 	c #646466",
"l 	c #989699",
"m 	c #747376",
"n 	c #504F51",
"o 	c #535355",
"p 	c #5E5E5F",
"q 	c #080808",
"r 	c #484848",
"s 	c #6B6A6A",
"t 	c #5E5E5E",
"u 	c #A4A4A6",
"v 	c #C1BFC2",
"w 	c #B8B6B9",
"x 	c #828284",
"y 	c #616062",
"z 	c #949294",
"A 	c #9F9DA0",
"B 	c #838184",
"C 	c #59595A",
"D 	c #515151",
"E 	c #212121",
"F 	c #191919",
"G 	c #5F5F5F",
"H 	c #767576",
"I 	c #B8B7B9",
"J 	c #D6D4D7",
"K 	c #DBD9DC",
"L 	c #B8B5B8",
"M 	c #969497",
"N 	c #BCBABD",
"O 	c #D4D2D5",
"P 	c #BDBBBE",
"Q 	c #8C8A8D",
"R 	c #555456",
"S 	c #5C5C5D",
"T 	c #313131",
"U 	c #6B6B6C",
"V 	c #5C5D5E",
"W 	c #767578",
"X 	c #89878A",
"Y 	c #C4C2C5",
"Z 	c #C6C4C7",
"` 	c #E4E2E5",
" .	c #D2D0D3",
"..	c #D4D2D4",
"+.	c #DCDADD",
"@.	c #ACABAD",
"#.	c #6B6A6C",
"$.	c #565658",
"%.	c #5C5C5C",
"&.	c #1C1B1C",
"*.	c #010001",
"=.	c #444443",
"-.	c #69696A",
";.	c #505053",
">.	c #747375",
",.	c #716E71",
"'.	c #9D9B9E",
").	c #A4A2A5",
"!.	c #8C8B8E",
"~.	c #B0AEB1",
"{.	c #99979A",
"].	c #E1DFE2",
"^.	c #D8D6D9",
"/.	c #585658",
"(.	c #676768",
"_.	c #373737",
":.	c #0E0E0E",
"<.	c #666669",
"[.	c #5E5C5F",
"}.	c #929093",
"|.	c #888689",
"1.	c #ADABAE",
"2.	c #B9B7BA",
"3.	c #717172",
"4.	c #464548",
"5.	c #757376",
"6.	c #C4C2C6",
"7.	c #E1E0E4",
"8.	c #ADABAF",
"9.	c #676468",
"0.	c #717072",
"a.	c #4F4F4F",
"b.	c #151515",
"c.	c #5B5B5D",
"d.	c #6A696C",
"e.	c #88878A",
"f.	c #ACAAAD",
"g.	c #9C9A9D",
"h.	c #6F6D70",
"i.	c #323134",
"j.	c #6A686B",
"k.	c #C2C0C4",
"l.	c #E3E1E6",
"m.	c #D8D6DB",
"n.	c #B8B7BA",
"o.	c #828184",
"p.	c #6E6D6F",
"q.	c #5D5D5D",
"r.	c #121313",
"s.	c #1B1B1B",
"t.	c #626263",
"u.	c #6D6C6F",
"v.	c #ABAAAD",
"w.	c #B6B4B7",
"x.	c #B7B5B8",
"y.	c #6D6B6E",
"z.	c #817E82",
"A.	c #7A787B",
"B.	c #A6A4A9",
"C.	c #E1DFE4",
"D.	c #D7D5D9",
"E.	c #BEBCBF",
"F.	c #888789",
"G.	c #686869",
"H.	c #646365",
"I.	c #99979B",
"J.	c #A6A4A7",
"K.	c #BBB9BC",
"L.	c #DAD8DB",
"M.	c #A19FA2",
"N.	c #79777A",
"O.	c #C3C1C4",
"P.	c #A9A7AA",
"Q.	c #D8D6DA",
"R.	c #D1CFD2",
"S.	c #A3A1A4",
"T.	c #1D1D1D",
"U.	c #6A6A69",
"V.	c #4C4B4C",
"W.	c #868487",
"X.	c #C2C0C3",
"Y.	c #A5A3A6",
"Z.	c #A8A6A9",
"`.	c #C5C3C6",
" +	c #D7D5D7",
".+	c #D5D3D6",
"++	c #767677",
"@+	c #767676",
"#+	c #222222",
"$+	c #616261",
"%+	c #6C6A6D",
"&+	c #B3B1B4",
"*+	c #D3D1D4",
"=+	c #C8C6C9",
"-+	c #C0BEC1",
";+	c #AAA8AB",
">+	c #6E6E6F",
",+	c #757575",
"'+	c #202020",
")+	c #606161",
"!+	c #6C6D6D",
"~+	c #5F5E61",
"{+	c #CBC9CC",
"]+	c #807E81",
"^+	c #969598",
"/+	c #79787B",
"(+	c #807F80",
"_+	c #727172",
":+	c #161616",
"<+	c #070707",
"[+	c #7F7F80",
"}+	c #4B4A4D",
"|+	c #7A7A7C",
"1+	c #A2A0A3",
"2+	c #777477",
"3+	c #BAB8BB",
"4+	c #7E7C7F",
"5+	c #8A888B",
"6+	c #5E5D5F",
"7+	c #828183",
"8+	c #575757",
"9+	c #2D2D2D",
"0+	c #555557",
"a+	c #ACABAE",
"b+	c #929194",
"c+	c #8E8D90",
"d+	c #979599",
"e+	c #868386",
"f+	c #696869",
"g+	c #5B5A5C",
"h+	c #252525",
"i+	c #0B0B0B",
"j+	c #585858",
"k+	c #797978",
"l+	c #444344",
"m+	c #656466",
"n+	c #858386",
"o+	c #78777A",
"p+	c #838185",
"q+	c #868387",
"r+	c #777578",
"s+	c #4D4E4D",
"t+	c #717271",
"u+	c #424242",
"v+	c #171717",
"w+	c #6F6F70",
"x+	c #434345",
"y+	c #424144",
"z+	c #575759",
"A+	c #4D4D4F",
"B+	c #434244",
"C+	c #333233",
"D+	c #2A292B",
"E+	c #4D4C4D",
"F+	c #7A7B7A",
"G+	c #535353",
"H+	c #040404",
"I+	c #4D4D4E",
"J+	c #616163",
"K+	c #48484A",
"L+	c #38383A",
"M+	c #383839",
"N+	c #3D3D3E",
"O+	c #474647",
"P+	c #616061",
"Q+	c #6A6A6A",
"R+	c #3F403F",
"S+	c #070708",
"T+	c #212122",
"U+	c #4C4C4D",
"V+	c #666666",
"W+	c #696969",
"X+	c #686868",
"Y+	c #555555",
"Z+	c #303030",
"`+	c #141414",
" @	c #050505",
". . . + + . . . . . . . . . . . . + . . . + + . . ",
". . . + . . . . @ # $ % & % * = . . + . . . . . . ",
". . . . . . . - ; > , ' ) ) ! ~ { + . + . . . . . ",
". . . . . . # ] ^ / ( > _ : < [ } | . . . . . . . ",
". . . + . - 1 2 3 4 5 6 7 8 9 0 a b c . . . . . . ",
". . + + . d e f g h i j k l m n o p ] q . . . . . ",
". . . . q r s t u v w x y z A B ^ C D E + . . . . ",
". . . . F G a H I J K L M N O P Q R S r * . + . . ",
". . . = T U V W X w Y Z `  ...+.@.#.$.%.&.*.. . . ",
". . . # =.-.;.>.,.'.).!.~.{.P ].^.)./.(._.- . . . ",
". . . :.o <.[.}.|.1.2.3.4.5.6.7.K 8.9.0.a.* . . . ",
". . . b.c.d.e.f.g.v Y h.i.j.k.l.m.n.o.p.q.r.. . . ",
". . . s.t.u.v.w.f.O x.y.z.A.B.C.D.E.F.G.g F . . . ",
". . + E ! H.I.J.K.L.M.N.O.f.P.Q.R.S.>.t.! T.. . . ",
". . + E U.V.W.X.O O Y.{.Z.`. +J .+S.++G.@+#++ . . ",
". . . d $+V.%+&+O *+=+-+S.;+v O O f.W.>+,+'++ . . ",
". . . c )+!+~+{.O. .{+f.Q ]+S.Z Y.^+/+(+_+:+. . . ",
". . . <+D [+}+|+S.v =+1+2+W.3+1+4+5+6+7+8+q . . . ",
". . . + 9+^ 6 0+5+J.a+b+m c+&+d+e+f+g+/ h++ . . . ",
". . + + i+j+k+l+m+n+|.x o+p+q+r+S s+t+u+<+. . . . ",
". . + - . v+e w+x+y+$.z+A+B+C+D+E+F+G+:.. + . . . ",
". . = H+. . | I+/ J+K+L+M+N+O+P+Q+R+% . . + . . . ",
". . = - . . . S+T+U+V+W+W+X+Y+Z+`+H+. . + + + . . ",
". . = = . . + . +  @{ i+i+i+q = . . + . . . + . . ",
". . . . . . . . . . . . . . . . . . . . . . . . . "};
