/* XPM */
static char * bone_xpm[] = {
"28 28 303 2",
"  	c None",
". 	c #695C41",
"+ 	c #6D5E43",
"@ 	c #766648",
"# 	c #736547",
"$ 	c #7B6B4C",
"% 	c #907F5A",
"& 	c #9C8A61",
"* 	c #A18F65",
"= 	c #A59367",
"- 	c #A39065",
"; 	c #A28F65",
"> 	c #9E8C61",
", 	c #94825B",
"' 	c #7C6B4B",
") 	c #716345",
"! 	c #94835C",
"~ 	c #A69469",
"{ 	c #B3A172",
"] 	c #B5A374",
"^ 	c #B8A476",
"/ 	c #B7A474",
"( 	c #B4A071",
"_ 	c #B8A575",
": 	c #B5A274",
"< 	c #AB986C",
"[ 	c #9D8B62",
"} 	c #8A7955",
"| 	c #786949",
"1 	c #A08E64",
"2 	c #B8A475",
"3 	c #C5B27F",
"4 	c #CAB583",
"5 	c #CFB986",
"6 	c #D1BE8B",
"7 	c #D3BF8B",
"8 	c #DCC791",
"9 	c #DAC58F",
"0 	c #DAC590",
"a 	c #D8C490",
"b 	c #CDBA86",
"c 	c #B29F72",
"d 	c #98875F",
"e 	c #67593F",
"f 	c #A29065",
"g 	c #BEAB7A",
"h 	c #D4C08C",
"i 	c #DFCA95",
"j 	c #E4CE98",
"k 	c #ECD7A0",
"l 	c #F1DEA8",
"m 	c #EDD9A2",
"n 	c #ECD69D",
"o 	c #EFD9A1",
"p 	c #EBD59E",
"q 	c #E6D19A",
"r 	c #DEC993",
"s 	c #C9B683",
"t 	c #B19E71",
"u 	c #91805A",
"v 	c #BBA878",
"w 	c #DFCB96",
"x 	c #F3DEA6",
"y 	c #F9E8AE",
"z 	c #FEF2B5",
"A 	c #FCEEB6",
"B 	c #EDD8A1",
"C 	c #F6E2A7",
"D 	c #F7E0A7",
"E 	c #F1DBA3",
"F 	c #DFCA94",
"G 	c #D0BD89",
"H 	c #BAA878",
"I 	c #A19066",
"J 	c #998860",
"K 	c #BDAA79",
"L 	c #E3CF99",
"M 	c #F8E4AB",
"N 	c #FEEDB3",
"O 	c #FDF4B9",
"P 	c #FAEDB3",
"Q 	c #F8E9B0",
"R 	c #EDD7A1",
"S 	c #F1DBA1",
"T 	c #F5E0A7",
"U 	c #F5E1A8",
"V 	c #DEC992",
"W 	c #CEBB87",
"X 	c #BDAB7A",
"Y 	c #A59469",
"Z 	c #796A4B",
"` 	c #9F8D63",
" .	c #DBC791",
"..	c #F0DCA3",
"+.	c #FEECB4",
"@.	c #FBEDB0",
"#.	c #F3DFA5",
"$.	c #E8D39D",
"%.	c #DBC490",
"&.	c #ECD59D",
"*.	c #FDEDB2",
"=.	c #FAE7AC",
"-.	c #F0DAA3",
";.	c #E3CF97",
">.	c #D0BB88",
",.	c #BCA979",
"'.	c #A59468",
").	c #7E6F4D",
"!.	c #A8966B",
"~.	c #C7B381",
"{.	c #F4E0A9",
"].	c #F4E1AA",
"^.	c #E1CB95",
"/.	c #D8C38E",
"(.	c #C9B482",
"_.	c #CEB884",
":.	c #EDD89F",
"<.	c #FAE9AE",
"[.	c #F4DEA7",
"}.	c #EAD49D",
"|.	c #E3CE97",
"1.	c #D0BC89",
"2.	c #A08E65",
"3.	c #7F704F",
"4.	c #A49369",
"5.	c #CBB987",
"6.	c #F7E4AC",
"7.	c #D1BF8C",
"8.	c #B3A071",
"9.	c #B29E71",
"0.	c #C0AC7C",
"a.	c #DCC692",
"b.	c #E9D39D",
"c.	c #ECD69F",
"d.	c #EBD49E",
"e.	c #EFDAA3",
"f.	c #E2CD98",
"g.	c #B3A173",
"h.	c #9C8B62",
"i.	c #7C6C4C",
"j.	c #96855D",
"k.	c #A38D66",
"l.	c #A38B66",
"m.	c #C9B687",
"n.	c #B8A77A",
"o.	c #82704F",
"p.	c #A58D65",
"q.	c #DAC48F",
"r.	c #DDC893",
"s.	c #E1CC96",
"t.	c #E7D09A",
"u.	c #E6CF98",
"v.	c #D9C490",
"w.	c #CEBB89",
"x.	c #AE9B6F",
"y.	c #95855D",
"z.	c #63553C",
"A.	c #CCB685",
"B.	c #D0BA88",
"C.	c #B1976F",
"D.	c #B79B73",
"E.	c #B8A579",
"F.	c #A28E69",
"G.	c #A28C64",
"H.	c #C2AC7C",
"I.	c #D6C08B",
"J.	c #D4BF8A",
"K.	c #C8B481",
"L.	c #D0BA86",
"M.	c #DBC590",
"N.	c #CFBC89",
"O.	c #B09F72",
"P.	c #847352",
"Q.	c #95825E",
"R.	c #DFC791",
"S.	c #B4A177",
"T.	c #917F5C",
"U.	c #8C7455",
"V.	c #B29E74",
"W.	c #CDB78C",
"X.	c #9B805E",
"Y.	c #BAA576",
"Z.	c #D9C38D",
"`.	c #D1BC87",
" +	c #D7C08C",
".+	c #D1BC88",
"++	c #DBC690",
"@+	c #C5B281",
"#+	c #A6956A",
"$+	c #776749",
"%+	c #8A7958",
"&+	c #E2CC95",
"*+	c #BBA577",
"=+	c #A18D65",
"-+	c #756549",
";+	c #B19E77",
">+	c #E2D4A2",
",+	c #9A8160",
"'+	c #8C7958",
")+	c #C8B482",
"!+	c #C4B181",
"~+	c #AF9D72",
"{+	c #A8966D",
"]+	c #A39169",
"^+	c #C1AD7C",
"/+	c #C3B07F",
"(+	c #93835D",
"_+	c #9D8C66",
":+	c #C2AE7E",
"<+	c #9F8C66",
"[+	c #D7C590",
"}+	c #EFDEA6",
"|+	c #E2CD99",
"1+	c #B9A579",
"2+	c #867455",
"3+	c #78674A",
"4+	c #7F6C4E",
"5+	c #A18F69",
"6+	c #BDAB7D",
"7+	c #E5D099",
"8+	c #CBB887",
"9+	c #C0AA7B",
"0+	c #8C7858",
"a+	c #BBA777",
"b+	c #C6B384",
"c+	c #BBA87A",
"d+	c #857151",
"e+	c #AC9A72",
"f+	c #B7A479",
"g+	c #98845F",
"h+	c #9E8862",
"i+	c #C9B483",
"j+	c #645940",
"k+	c #6A5B42",
"l+	c #C7B17F",
"m+	c #AC936A",
"n+	c #A28964",
"o+	c #8D7656",
"p+	c #99805E",
"q+	c #98835F",
"r+	c #C6B281",
"s+	c #E8D49D",
"t+	c #A7926C",
"u+	c #7E654B",
"v+	c #68553E",
"w+	c #907E5C",
"x+	c #735F47",
"y+	c #9B805F",
"z+	c #877353",
"A+	c #806E51",
"B+	c #D3C190",
"C+	c #FCEBB2",
"D+	c #E1CE99",
"E+	c #A28C67",
"F+	c #766048",
"G+	c #9C8963",
"H+	c #867454",
"I+	c #F1E2AE",
"J+	c #FDF0B8",
"K+	c #DAC592",
"L+	c #9C8461",
"M+	c #846C50",
"N+	c #705D44",
"O+	c #887A60",
"P+	c #887456",
"Q+	c #706045",
"R+	c #B1A57C",
"S+	c #FDF7BE",
"T+	c #FDEEB6",
"U+	c #CDB685",
"V+	c #846B4F",
"W+	c #9C7F5F",
"X+	c #827253",
"Y+	c #AE9B71",
"Z+	c #A29066",
"`+	c #817250",
" @	c #AF9F76",
".@	c #F3E1AD",
"+@	c #FFF5BB",
"@@	c #EAD59D",
"#@	c #9B8661",
"$@	c #A18C67",
"%@	c #AA8F6B",
"&@	c #B9A678",
"*@	c #E0CB96",
"=@	c #D4C08B",
"-@	c #E6D29C",
";@	c #DBC794",
">@	c #9D8864",
",@	c #97825E",
"'@	c #9F8463",
")@	c #9E8361",
"!@	c #A7966C",
"~@	c #C5B485",
"{@	c #CDBB8C",
"]@	c #B1A077",
"^@	c #685C44",
"/@	c #9C8360",
"(@	c #88654F",
"_@	c #9E8260",
":@	c #745B45",
"<@	c #67493A",
"[@	c #7C644A",
"                                                        ",
"                                                        ",
"                          . + @ #                       ",
"                    $ % & * = - ; > , '                 ",
"                ) ! ~ { ] ^ / ( _ : < [ }               ",
"              | 1 2 3 4 5 6 7 8 9 0 a b c d             ",
"            e f g h i j k l m n o p q r s t %           ",
"            u v w m x y z A B C D E p F G H I           ",
"            J K L M N O P Q R S T U p V W X Y Z         ",
"            ` g  ...+.@.#.$.%.&.*.=.-.;.>.,.'.).        ",
"            !.~.a {.].^./.(._.:.<.[.}.|.1.^ 2.3.        ",
"            1 4.5.6.7.8.9.0.a.b.c.d.e.f.s g.h.i.        ",
"            j.k.l.m.n.o.p.q.r.s.t.u.^.v.w.x.y.z.        ",
"            A.B.C.D.E.F.G.H.I.J.K.L.M./.N.O.P.          ",
"          Q.R.S.T.U.V.W.X.Y.Z.L.`. +.+++@+#+$+          ",
"          %+&+*+=+-+;+>+,+'+)+!+~+{+]+^+/+(+            ",
"            _+:+  <+[+}+|+1+2+3+4+5+6+7+8+              ",
"              9+  0+a+7+b+c+d+e+f+g+h+i+j+              ",
"            k+l+m+n+o+p+q+r+q s+t+u+v+                  ",
"              w+x+y+z+A+  B+C+D+E+F+                    ",
"                  G+H+    I+J+K+L+M+N+                  ",
"              O+P+Q+    R+S+T+U+V+W+                    ",
"              X+Y+Z+`+ @.@+@@@#@$@%@                    ",
"              &@*@=@-@{.;@>@  ,@'@)@                    ",
"              !@~@{@]@^@      /@(@_@                    ",
"                              :@<@[@                    ",
"                                                        ",
"                                                        "};
