/* XPM */ 
static const char * confidenceconnected_xpm[] = {
"24 24 143 2",
"  	c None",
"! 	c #030303",
"# 	c #080808",
"$ 	c #090909",
"% 	c #0B0B0B",
"& 	c #070707",
"' 	c #020202",
"( 	c #010101",
") 	c #454545",
"* 	c #515151",
"+ 	c #1D1D1D",
", 	c #0C0C0C",
"- 	c #060606",
". 	c #0F0F0F",
"0 	c #0A0A0A",
"1 	c #444444",
"2 	c #ABABAB",
"3 	c #C7C7C7",
"4 	c #B5B5B5",
"5 	c #555555",
"6 	c #525252",
"7 	c #969696",
"8 	c #CFCFCF",
"9 	c #A7A7A7",
": 	c #DBDBDB",
"; 	c #050505",
"< 	c #0D0D0D",
"= 	c #D0D0D0",
"> 	c #B9B9B9",
"? 	c #C1C1C1",
"@ 	c #9D9D9D",
"A 	c #B3B3B3",
"B 	c #EAEAEA",
"C 	c #DCDCDC",
"D 	c #818181",
"E 	c #989898",
"F 	c #D4D4D4",
"G 	c #B1B1B1",
"H 	c #ACACAC",
"I 	c #C8C8C8",
"J 	c #535353",
"K 	c #D6D6D6",
"L 	c #BABABA",
"M 	c #B8B8B8",
"N 	c #F0F0F0",
"O 	c #262626",
"P 	c #2D2D2D",
"Q 	c #BFBFBF",
"R 	c #2A2A2A",
"S 	c #040404",
"T 	c #B6B6B6",
"U 	c #4C4C4C",
"V 	c #E3E3E3",
"W 	c #CDCDCD",
"X 	c #B0B0B0",
"Y 	c #9F9F9F",
"Z 	c #E2E2E2",
"[ 	c #BBBBBB",
"] 	c #CBCBCB",
"^ 	c #BEBEBE",
"_ 	c #CACACA",
"` 	c #E1E1E1",
"a 	c #868686",
"b 	c #D3D3D3",
"c 	c #AFAFAF",
"d 	c #CCCCCC",
"e 	c #AAAAAA",
"f 	c #DEDEDE",
"g 	c #6E6E6E",
"h 	c #A2A2A2",
"i 	c #505050",
"j 	c #C9C9C9",
"k 	c #A6A6A6",
"l 	c #A8A8A8",
"m 	c #C6C6C6",
"n 	c #B4B4B4",
"o 	c #CECECE",
"p 	c #C3C3C3",
"q 	c #A1A1A1",
"r 	c #0E0E0E",
"s 	c #A3A3A3",
"t 	c #717171",
"u 	c #ADADAD",
"v 	c #C5C5C5",
"w 	c #AEAEAE",
"x 	c #B2B2B2",
"y 	c #BDBDBD",
"z 	c #9E9E9E",
"{ 	c #393939",
"| 	c #666666",
"} 	c #979797",
"~ 	c #333333",
" !	c #A5A5A5",
"!!	c #A9A9A9",
"#!	c #787878",
"$!	c #E7E7E7",
"%!	c #DFDFDF",
"&!	c #A0A0A0",
"'!	c #BCBCBC",
"(!	c #E4E4E4",
")!	c #EDEDED",
"*!	c #ECECEC",
"+!	c #848484",
",!	c #B7B7B7",
"-!	c #E5E5E5",
".!	c #E6E6E6",
"0!	c #A4A4A4",
"1!	c #999999",
"2!	c #939393",
"3!	c #C4C4C4",
"4!	c #D7D7D7",
"5!	c #EBEBEB",
"6!	c #D1D1D1",
"7!	c #232323",
"8!	c #959595",
"9!	c #DDDDDD",
":!	c #D8D8D8",
";!	c #C0C0C0",
"<!	c #E0E0E0",
"=!	c #C2C2C2",
">!	c #222222",
"?!	c #9A9A9A",
"@!	c #9B9B9B",
"A!	c #2C2C2C",
"B!	c #2E2E2E",
"C!	c #626262",
"D!	c #888888",
"E!	c #828282",
"F!	c #141414",
"G!	c #161616",
"H!	c #484848",
"I!	c #9C9C9C",
"J!	c #8F8F8F",
"K!	c #5A5A5A",
"L!	c #191919",
"M!	c #8C8C8C",
"N!	c #1E1E1E",
"O!	c #424242",
"P!	c #212121",
"Q!	c #7D7D7D",
"R!	c #656565",
"S!	c #D2D2D2",
"T!	c #595959",
"! # $ # % $ ! & ' $ ( ) * + , % - . & # & & $ $ ",
"$ 0 $ & - # & 1 2 3 4 5 6 7 8 9 : # - $ # $ & ; ",
"$ - $ 0 ' < = > ? @ A B C D E F G H - & 0 - $ & ",
"$ $ & $ ! I J K L ? 9 3 C M ? N O P Q R % & - $ ",
"# S - - T U V W I X Y 3 Z [ ] ^ _ ` 3 M < 0 - $ ",
"# , . T a K b c 4 c ? Z d c H X e ] f g A % # 0 ",
"; # Q h i I j T k l L m = f n X o H p k q c r < ",
"$ ; s t 3 u v w 9 X e b d 4 x k y z 2 : ' q { # ",
"# | } ~ [  !9 H !!!!9 ] ] u h 2 T !!9 m z k 4 & ",
"! 4 E #!3 p k 2 H u $!x 9 %!2 w u 3 3 M F &!G & ",
"! '!&!W '!A k e !!M (!B )!*!w  !e 9 h T 4 +!k 0 ",
"! z z ,!@ &!9 q !!L -!-!$!.!l 2 k 0!s 3 x O 1!, ",
"$ 2!h 3!= 0!k l e 4!5!= 6!$!H w  !u 0!l x 7!8!, ",
"0 E s m l L n s k 9!:!e u (!$!2 k '!;!<!=!>!1!& ",
"$ &!0!4!] ^ q  !4 .!l K K u -!u !!s s k 3!?!@!- ",
"$ > e n v j k h h q 9 p F  !!!k 9 9 9 ;!z } H - ",
"$ r k A![ p ;!s &!T 3 v 3!j =!w ?!3 > 4 B!G C!# ",
"; $ w H D!,!L w s !!> W =!m v k k 3 ;!E!W &!0 0 ",
"# , ; ?!F!W ^ T n s !!8 > 9 0!y 9 2 6!G!h # & $ ",
"$ # $ H!9 i M E ^ 9 I!j ] ] k M 0!0!S n ! - - # ",
"% - S # F!E J!K!h !!w [ n ;!c y P _ h L!$ S # # ",
"& # # # $ & I!E M!N!O!5 P!, Q!'!l T , 0 # ; # - ",
"0 & ; # $ $ # ; R!S!3!L p = p T!. 0 # ! % ! $ # ",
"# $ , 0 $ - & 0 < # $ % % $ 0 & . ; % & # ( % , "};