/* XPM */
static char * confidenceconnected_xpm[] = {
"24 24 124 2",
"  	c None",
". 	c #000000",
"+ 	c #454545",
"@ 	c #515151",
"# 	c #444444",
"$ 	c #ABABAB",
"% 	c #C7C7C7",
"& 	c #B5B5B5",
"* 	c #555555",
"= 	c #525252",
"- 	c #969696",
"; 	c #CFCFCF",
"> 	c #A7A7A7",
", 	c #DBDBDB",
"' 	c #D0D0D0",
") 	c #B9B9B9",
"! 	c #C1C1C1",
"~ 	c #9D9D9D",
"{ 	c #B3B3B3",
"] 	c #EAEAEA",
"^ 	c #DCDCDC",
"/ 	c #818181",
"( 	c #989898",
"_ 	c #D4D4D4",
": 	c #B1B1B1",
"< 	c #ACACAC",
"[ 	c #C8C8C8",
"} 	c #535353",
"| 	c #D6D6D6",
"1 	c #BABABA",
"2 	c #B8B8B8",
"3 	c #F0F0F0",
"4 	c #262626",
"5 	c #2D2D2D",
"6 	c #BFBFBF",
"7 	c #2A2A2A",
"8 	c #B6B6B6",
"9 	c #4C4C4C",
"0 	c #E3E3E3",
"a 	c #CDCDCD",
"b 	c #B0B0B0",
"c 	c #9F9F9F",
"d 	c #E2E2E2",
"e 	c #BBBBBB",
"f 	c #CBCBCB",
"g 	c #BEBEBE",
"h 	c #CACACA",
"i 	c #E1E1E1",
"j 	c #868686",
"k 	c #D3D3D3",
"l 	c #AFAFAF",
"m 	c #CCCCCC",
"n 	c #AAAAAA",
"o 	c #DEDEDE",
"p 	c #6E6E6E",
"q 	c #A2A2A2",
"r 	c #505050",
"s 	c #C9C9C9",
"t 	c #A6A6A6",
"u 	c #A8A8A8",
"v 	c #C6C6C6",
"w 	c #B4B4B4",
"x 	c #CECECE",
"y 	c #C3C3C3",
"z 	c #A1A1A1",
"A 	c #A3A3A3",
"B 	c #717171",
"C 	c #ADADAD",
"D 	c #C5C5C5",
"E 	c #AEAEAE",
"F 	c #B2B2B2",
"G 	c #BDBDBD",
"H 	c #9E9E9E",
"I 	c #393939",
"J 	c #666666",
"K 	c #979797",
"L 	c #333333",
"M 	c #A5A5A5",
"N 	c #A9A9A9",
"O 	c #787878",
"P 	c #E7E7E7",
"Q 	c #DFDFDF",
"R 	c #A0A0A0",
"S 	c #BCBCBC",
"T 	c #E4E4E4",
"U 	c #EDEDED",
"V 	c #ECECEC",
"W 	c #848484",
"X 	c #B7B7B7",
"Y 	c #E5E5E5",
"Z 	c #E6E6E6",
"` 	c #A4A4A4",
" .	c #999999",
"..	c #939393",
"+.	c #C4C4C4",
"@.	c #D7D7D7",
"#.	c #EBEBEB",
"$.	c #D1D1D1",
"%.	c #232323",
"&.	c #959595",
"*.	c #DDDDDD",
"=.	c #D8D8D8",
"-.	c #C0C0C0",
";.	c #E0E0E0",
">.	c #C2C2C2",
",.	c #222222",
"'.	c #9A9A9A",
").	c #9B9B9B",
"!.	c #2C2C2C",
"~.	c #2E2E2E",
"{.	c #626262",
"].	c #888888",
"^.	c #828282",
"/.	c #484848",
"(.	c #9C9C9C",
"_.	c #8F8F8F",
":.	c #5A5A5A",
"<.	c #8C8C8C",
"[.	c #424242",
"}.	c #212121",
"|.	c #7D7D7D",
"1.	c #656565",
"2.	c #D2D2D2",
"3.	c #595959",
"              . . . . + @ . . . .               ",
"            . # $ % & * = - ; > , .             ",
"          . ' ) ! ~ { ] ^ / ( _ : < .           ",
"        . [ } | 1 ! > % ^ 2 ! 3 4 5 6 7         ",
"      . 8 9 0 a [ b c % d e f g h i % 2 .       ",
"    . 8 j | k l & l ! d m l < b n f o p { .     ",
"  . 6 q r [ s 8 t u 1 v ' o w b x < y t z l .   ",
"  . A B % C D E > b n k m & F t G H $ ,   z I . ",
". J K L e M > < N N > f f C q $ 8 N > v H t & . ",
". & ( O % y t $ < C P F > Q $ E C % % 2 _ R : . ",
". S R a S { t n N 2 T ] U V E M n > q 8 & W t . ",
". H H X ~ R > z N 1 Y Y P Z u $ t ` A % F 4  .. ",
". ..q +.' ` t u n @.#.' $.P < E M C ` u F %.&.. ",
". ( A v u 1 w A t *.=.n C T P $ t S -.;.>.,. .. ",
". R ` @.f g z M & Z u | | C Y C N A A t +.'.).. ",
". ) n w D s t q q z > y _ M N t > > > -.H K < . ",
"  . t !.e y -.A R 8 % D +.s >.E '.% ) & ~.: {.. ",
"  . E < ].X 1 E A N ) a >.v D t t % -.^.a R .   ",
"    . '.  a g 8 w A N ; ) > ` G > $ $.  q .     ",
"    . /.> r 2 ( g > (.s f f t 2 ` `   w .       ",
"      . . ( _.:.q N E e w -.l G 5 h q .         ",
"          . (.( <.  [.* }.  |.S u 8 .           ",
"            . . 1.2.+.1 y ' y 3.. .             ",
"                . . . . . . . .                 "};
