/* XPM */
static char * connectedthreshold_xpm[] = {
"24 24 37 1",
" 	c None",
".	c #000000",
"+	c #FEFEFE",
"@	c #5F5F5F",
"#	c #DBDBDB",
"$	c #656565",
"%	c #464646",
"&	c #363636",
"*	c #8E8E8E",
"=	c #9E9E9E",
"-	c #616161",
";	c #F9F9F9",
">	c #272727",
",	c #818181",
"'	c #A2A2A2",
")	c #C6C6C6",
"!	c #1D1D1D",
"~	c #565656",
"{	c #2D2D2D",
"]	c #EDEDED",
"^	c #3D3D3D",
"/	c #4B4B4B",
"(	c #A7A7A7",
"_	c #9C9C9C",
":	c #E5E5E5",
"<	c #666666",
"[	c #353535",
"}	c #6C6C6C",
"|	c #B3B3B3",
"1	c #6D6D6D",
"2	c #A6A6A6",
"3	c #797979",
"4	c #8B8B8B",
"5	c #D1D1D1",
"6	c #D8D8D8",
"7	c #FBFBFB",
"8	c #3C3C3C",
"                        ",
"                        ",
"          .             ",
"         .+. .          ",
"       ..++..+...       ",
"      .+++. .++@#.      ",
"      .+++$...+% +.     ",
"   ..&.++++.*=++-++.    ",
"  .;>++++++..+++>+,.    ",
"   ..'+++..++.+++..).   ",
"   !.++++. .. +++++~.   ",
"  .{+++++.    +++++.    ",
"   ..++++.... ++++++.   ",
"  .]+.+++.^++. ++/..    ",
"   ...++.(+..+ ++++_.   ",
"  .:..++++. .+++++..    ",
"   . .<++.   ..++.      ",
"      .++..  .[++.      ",
"      .++++.}++.|1.     ",
"     .2+3++.4.5.6.      ",
"      ...+7. .8..       ",
"         ..   .         ",
"                        ",
"                        "};
