/* XPM */ 
static const char * connectedthreshold_xpm[] = {
"24 24 39 1",
" 	c None",
"!	c black",
"#	c #FEFEFE",
"$	c #5F5F5F",
"%	c #DBDBDB",
"&	c #656565",
"'	c #464646",
"(	c #363636",
")	c #8E8E8E",
"*	c #9E9E9E",
"+	c #616161",
",	c #F9F9F9",
"-	c #272727",
".	c #818181",
"0	c #A2A2A2",
"1	c #C6C6C6",
"2	c #1D1D1D",
"3	c #565656",
"4	c #2D2D2D",
"5	c #EDEDED",
"6	c #3D3D3D",
"7	c #4B4B4B",
"8	c #A7A7A7",
"9	c #9C9C9C",
":	c #E5E5E5",
";	c #010101",
"<	c #050505",
"=	c #666666",
">	c #353535",
"?	c #6C6C6C",
"@	c #B3B3B3",
"A	c #6D6D6D",
"B	c #A6A6A6",
"C	c #797979",
"D	c #8B8B8B",
"E	c #D1D1D1",
"F	c #D8D8D8",
"G	c #FBFBFB",
"H	c #3C3C3C",
"!!!!!!!!!!!!!!!!!!!!!!!!",
"!!!!!!!!!!!!!!!!!!!!!!!!",
"!!!!!!!!!!!!!!!!!!!!!!!!",
"!!!!!!!!!!#!!!!!!!!!!!!!",
"!!!!!!!!!##!!#!!!!!!!!!!",
"!!!!!!!###!!!##$%!!!!!!!",
"!!!!!!!###&!!!#'!#!!!!!!",
"!!!!!(!####!)*##+##!!!!!",
"!!!,-######!!###-#.!!!!!",
"!!!!!0###!!##!###!!1!!!!",
"!!!2!####!!!!!#####3!!!!",
"!!!4#####!!!!!#####!!!!!",
"!!!!!####!!!!!######!!!!",
"!!!5#!###!6##!!##7!!!!!!",
"!!!!!!##!8#!!#!####9!!!!",
"!!!:!!####;!!#####<!!!!!",
"!!!!!!=##!!!!!!##!!!!!!!",
"!!!!!!!##!!!!!>##!!!!!!!",
"!!!!!!!####!?##!@A!!!!!!",
"!!!!!!B#C##!D!E!F!!!!!!!",
"!!!!!!!!!#G!!!H!!!!!!!!!",
"!!!!!!!!!!!!!!!!!!!!!!!!",
"!!!!!!!!!!!!!!!!!!!!!!!!",
"!!!!!!!!!!!!!!!!!!!!!!!!"};