/* XPM */
static char * coronal_xpm[] = {
"25 25 150 2",
"  	c None",
". 	c #272727",
"+ 	c #2B2B2B",
"@ 	c #2C2C2C",
"# 	c #282828",
"$ 	c #2F2F2F",
"% 	c #3A3A3A",
"& 	c #404040",
"* 	c #4E4E4E",
"= 	c #4F4F4F",
"- 	c #444444",
"; 	c #3F3F3F",
"> 	c #3D3D3D",
", 	c #363636",
"' 	c #3C3C3C",
") 	c #393939",
"! 	c #454545",
"~ 	c #494949",
"{ 	c #474747",
"] 	c #323232",
"^ 	c #5B5B5B",
"/ 	c #606060",
"( 	c #7F7F7F",
"_ 	c #999999",
": 	c #7D7D7D",
"< 	c #555555",
"[ 	c #737373",
"} 	c #818181",
"| 	c #6A6A6A",
"1 	c #636363",
"2 	c #696969",
"3 	c #5A5A5A",
"4 	c #707070",
"5 	c #909090",
"6 	c #9F9F9F",
"7 	c #9E9E9E",
"8 	c #BDBDBD",
"9 	c #595959",
"0 	c #808080",
"a 	c #B4B4B4",
"b 	c #929292",
"c 	c #8A8A8A",
"d 	c #3E3E3E",
"e 	c #313131",
"f 	c #6D6D6D",
"g 	c #9A9A9A",
"h 	c #C5C5C5",
"i 	c #C1C1C1",
"j 	c #B6B6B6",
"k 	c #A0A0A0",
"l 	c #6B6B6B",
"m 	c #868686",
"n 	c #B8B8B8",
"o 	c #B5B5B5",
"p 	c #BCBCBC",
"q 	c #9B9B9B",
"r 	c #575757",
"s 	c #666666",
"t 	c #343434",
"u 	c #4A4A4A",
"v 	c #989898",
"w 	c #B9B9B9",
"x 	c #C2C2C2",
"y 	c #C3C3C3",
"z 	c #B3B3B3",
"A 	c #A8A8A8",
"B 	c #C0C0C0",
"C 	c #C6C6C6",
"D 	c #9D9D9D",
"E 	c #828282",
"F 	c #727272",
"G 	c #565656",
"H 	c #8F8F8F",
"I 	c #ACACAC",
"J 	c #BBBBBB",
"K 	c #ADADAD",
"L 	c #9C9C9C",
"M 	c #898989",
"N 	c #C7C7C7",
"O 	c #AEAEAE",
"P 	c #747474",
"Q 	c #646464",
"R 	c #838383",
"S 	c #BFBFBF",
"T 	c #CACACA",
"U 	c #505050",
"V 	c #AAAAAA",
"W 	c #676767",
"X 	c #757575",
"Y 	c #B1B1B1",
"Z 	c #626262",
"` 	c #656565",
" .	c #D0D0D0",
"..	c #979797",
"+.	c #7B7B7B",
"@.	c #959595",
"#.	c #BABABA",
"$.	c #CCCCCC",
"%.	c #797979",
"&.	c #969696",
"*.	c #B7B7B7",
"=.	c #D1D1D1",
"-.	c #BEBEBE",
";.	c #8D8D8D",
">.	c #6C6C6C",
",.	c #8B8B8B",
"'.	c #C9C9C9",
").	c #A4A4A4",
"!.	c #A9A9A9",
"~.	c #8E8E8E",
"{.	c #A1A1A1",
"].	c #CECECE",
"^.	c #686868",
"/.	c #AFAFAF",
"(.	c #949494",
"_.	c #A7A7A7",
":.	c #5F5F5F",
"<.	c #6E6E6E",
"[.	c #A6A6A6",
"}.	c #4D4D4D",
"|.	c #5D5D5D",
"1.	c #535353",
"2.	c #7A7A7A",
"3.	c #919191",
"4.	c #353535",
"5.	c #4C4C4C",
"6.	c #525252",
"7.	c #252525",
"8.	c #A3A3A3",
"9.	c #717171",
"0.	c #8C8C8C",
"a.	c #878787",
"b.	c #585858",
"c.	c #7C7C7C",
"d.	c #B0B0B0",
"e.	c #6F6F6F",
"f.	c #767676",
"g.	c #777777",
"h.	c #A2A2A2",
"i.	c #5E5E5E",
"j.	c #2A2A2A",
"k.	c #545454",
"l.	c #848484",
"m.	c #7E7E7E",
"n.	c #B2B2B2",
"o.	c #262626",
"p.	c #616161",
"q.	c #434343",
"r.	c #858585",
"s.	c #888888",
"                                                  ",
"                  . + @ @ + #                     ",
"                $ % & * = - ; > ,                 ",
"            , ' $ ) ! ~ = { ' ' { * ]             ",
"          & ^ ^ / ( _ : < [ } | 1 2 3 %           ",
"        { 2 4 5 6 7 8 7 9 0 a b 7 c ^ 9 d         ",
"      e f f g h i j 8 k l m n o p q f r s t       ",
"      u s / v w x y h z g A B C 8 D E f F G       ",
"      * f H I J y w K 6 A L M o N O c M P Q       ",
"      < R S T T y z 6 l ^ U F B h w V v F W #     ",
"      / X K S Y a a J _ Z ` I  .j v L ..Q W e     ",
"      Z +.K @.H z o #.N c .. .$.J @.( v l W )     ",
"      / %.j D &.*.A k y _ A =.x -.6 ;.A m [ d     ",
"      >.,.#.'.i z ).g ;.( +.&.!.Y J B z D ~.-     ",
"      X {.p ].i z I 0 ^ f ^.` @./.j N J v (.'     ",
"      4 q &._.&.b ;.:.<.o [.9 [ &.M _ 5 >.(.u     ",
"      R v }.|.1.2.{.} l 3.R f _ ( d 4.+ 5.;.6.    ",
"    7.m j s >.P 7 #.D W G :.,.8.R t     ` >.]     ",
"      }.F 9.q 0.5 ..a.X b.^.c.,.a.9 * U %.|.      ",
"        % ~.d.( e.E c c f.%.R (.;.g.c 6 h.i.. j.  ",
"    , k.W 7 d.l.>.g.c.a.m.c ,.+.} R D n.@.l c (   ",
"  o.2 h.p.a.n.a.f +.F 9.e.0 E P : +.H &.s + W :   ",
"    q.3 > : g r.c c %.F 1 Z f.e.: m s.m l 7.  7.  ",
"        . W M ~._.&.Q Z = ! 2 R l.3.(...a.e       ",
"                                                  "};
