/* XPM */
static char * coronal_xpm[] = {
"25 25 185 2",
"  	c None",
". 	c #030303",
"+ 	c #080808",
"@ 	c #111111",
"# 	c #121212",
"$ 	c #101010",
"% 	c #0F0F0F",
"& 	c #0E0E0E",
"* 	c #0C0C0C",
"= 	c #0D0D0D",
"- 	c #050505",
"; 	c #171717",
"> 	c #272727",
", 	c #2B2B2B",
"' 	c #2C2C2C",
") 	c #282828",
"! 	c #1C1C1C",
"~ 	c #131313",
"{ 	c #040404",
"] 	c #141414",
"^ 	c #1B1B1B",
"/ 	c #2F2F2F",
"( 	c #3A3A3A",
"_ 	c #404040",
": 	c #4E4E4E",
"< 	c #4F4F4F",
"[ 	c #444444",
"} 	c #3F3F3F",
"| 	c #3D3D3D",
"1 	c #363636",
"2 	c #1F1F1F",
"3 	c #070707",
"4 	c #3C3C3C",
"5 	c #393939",
"6 	c #454545",
"7 	c #494949",
"8 	c #474747",
"9 	c #323232",
"0 	c #151515",
"a 	c #1A1A1A",
"b 	c #5B5B5B",
"c 	c #606060",
"d 	c #7F7F7F",
"e 	c #999999",
"f 	c #7D7D7D",
"g 	c #555555",
"h 	c #737373",
"i 	c #818181",
"j 	c #6A6A6A",
"k 	c #636363",
"l 	c #696969",
"m 	c #5A5A5A",
"n 	c #161616",
"o 	c #707070",
"p 	c #909090",
"q 	c #9F9F9F",
"r 	c #9E9E9E",
"s 	c #BDBDBD",
"t 	c #595959",
"u 	c #808080",
"v 	c #B4B4B4",
"w 	c #929292",
"x 	c #8A8A8A",
"y 	c #3E3E3E",
"z 	c #060606",
"A 	c #313131",
"B 	c #6D6D6D",
"C 	c #9A9A9A",
"D 	c #C5C5C5",
"E 	c #C1C1C1",
"F 	c #B6B6B6",
"G 	c #A0A0A0",
"H 	c #6B6B6B",
"I 	c #868686",
"J 	c #B8B8B8",
"K 	c #B5B5B5",
"L 	c #BCBCBC",
"M 	c #9B9B9B",
"N 	c #575757",
"O 	c #666666",
"P 	c #343434",
"Q 	c #4A4A4A",
"R 	c #989898",
"S 	c #B9B9B9",
"T 	c #C2C2C2",
"U 	c #C3C3C3",
"V 	c #B3B3B3",
"W 	c #A8A8A8",
"X 	c #C0C0C0",
"Y 	c #C6C6C6",
"Z 	c #9D9D9D",
"` 	c #828282",
" .	c #727272",
"..	c #565656",
"+.	c #181818",
"@.	c #8F8F8F",
"#.	c #ACACAC",
"$.	c #BBBBBB",
"%.	c #ADADAD",
"&.	c #9C9C9C",
"*.	c #898989",
"=.	c #C7C7C7",
"-.	c #AEAEAE",
";.	c #747474",
">.	c #646464",
",.	c #212121",
"'.	c #838383",
").	c #BFBFBF",
"!.	c #CACACA",
"~.	c #505050",
"{.	c #AAAAAA",
"].	c #676767",
"^.	c #757575",
"/.	c #B1B1B1",
"(.	c #626262",
"_.	c #656565",
":.	c #D0D0D0",
"<.	c #979797",
"[.	c #1D1D1D",
"}.	c #7B7B7B",
"|.	c #959595",
"1.	c #BABABA",
"2.	c #CCCCCC",
"3.	c #0B0B0B",
"4.	c #797979",
"5.	c #969696",
"6.	c #B7B7B7",
"7.	c #D1D1D1",
"8.	c #BEBEBE",
"9.	c #8D8D8D",
"0.	c #090909",
"a.	c #6C6C6C",
"b.	c #8B8B8B",
"c.	c #C9C9C9",
"d.	c #A4A4A4",
"e.	c #A9A9A9",
"f.	c #8E8E8E",
"g.	c #A1A1A1",
"h.	c #CECECE",
"i.	c #686868",
"j.	c #AFAFAF",
"k.	c #949494",
"l.	c #A7A7A7",
"m.	c #5F5F5F",
"n.	c #6E6E6E",
"o.	c #A6A6A6",
"p.	c #0A0A0A",
"q.	c #202020",
"r.	c #4D4D4D",
"s.	c #5D5D5D",
"t.	c #535353",
"u.	c #7A7A7A",
"v.	c #919191",
"w.	c #353535",
"x.	c #4C4C4C",
"y.	c #525252",
"z.	c #252525",
"A.	c #A3A3A3",
"B.	c #242424",
"C.	c #717171",
"D.	c #8C8C8C",
"E.	c #878787",
"F.	c #585858",
"G.	c #7C7C7C",
"H.	c #B0B0B0",
"I.	c #6F6F6F",
"J.	c #767676",
"K.	c #777777",
"L.	c #A2A2A2",
"M.	c #5E5E5E",
"N.	c #2A2A2A",
"O.	c #010101",
"P.	c #1E1E1E",
"Q.	c #545454",
"R.	c #848484",
"S.	c #7E7E7E",
"T.	c #B2B2B2",
"U.	c #000000",
"V.	c #262626",
"W.	c #616161",
"X.	c #434343",
"Y.	c #858585",
"Z.	c #888888",
"`.	c #232323",
" +	c #020202",
". + @ @ # # $ $ $ % % % % & * % # @ $ $ # $ # = - ",
"- + # @ $ # @ $ ; > , ' ' , ) ! ~ $ $ # @ % # = - ",
"{ + # # $ @ ] ^ / ( _ : < [ } | 1 2 @ $ # @ ~ % - ",
"{ 3 # ~ $ ; 1 4 / 5 6 7 < 8 4 4 8 : 9 0 # @ ~ % - ",
"- 3 @ $ a _ b b c d e f g h i j k l m ( ; $ # & - ",
"- + @ n 8 l o p q r s r t u v w r x b t y ; @ = - ",
"z + $ A B B C D E F s G H I J K L M B N O P @ * - ",
"z + ~ Q O c R S T U D V C W X Y s Z ` B  ...+.= - ",
"z + n : B @.#.$.U S %.q W &.*.K =.-.x *.;.>.,.* - ",
"z + +.g '.).!.!.U V q H b ~. .X D S {.R  .].) = - ",
"z + a c ^.%.)./.v v $.e (._.#.:.F R &.<.>.].A * - ",
"z + [.(.}.%.|.@.V K 1.=.x <.:.2.$.|.d R H ].5 3.- ",
"- + ! c 4.F Z 5.6.W G U e W 7.T 8.q 9.W I h y 3.{ ",
"{ 0.^ a.b.1.c.E V d.C 9.d }.5.e./.$.X V Z f.[ 3.- ",
"- 3 a ^.g.L h.E V #.u b B i._.|.j.F =.$.R k.4 * { ",
"{ + ; o M 5.l.5.w 9.m.n.K o.t h 5.*.e p a.k.Q * { ",
"{ p.q.'.R r.s.t.u.g.i H v.'.B e d y w., x.9.y.# - ",
"- * z.I F O a.;.r 1.Z ]...m.b.A.'.P a B._.a.9 # - ",
"- * ! r. .C.M D.p <.E.^.F.i.G.b.E.t : ~.4.s.] 3 - ",
"{ * n ^ ( f.H.d I.` x x J.4.'.k.9.K.x q L.M.> N.- ",
"O.P.1 Q.].r H.R.a.K.G.E.S.x b.}.i '.Z T.|.H x d { ",
"U.V.l L.W.E.T.E.B }. .C.I.u ` ;.f }.@.5.O , ].f . ",
"O.% X.m | f C Y.x x 4. .k (.J.I.f I Z.I H z.`.z.{ ",
"- 3.a ] > ].*.f.l.5.>.(.< 6 l '.R.v.k.<.E.A +.# - ",
"U.U.U.U.U. +. { { {  + +O.O. +. . { { { . O.U.U.U."};
