/* XPM */
static char * cut3d_xpm[] = {
"28 28 28 1",
" 	c None",
".	c #212E4E",
"+	c #570E55",
"@	c #330832",
"#	c #290628",
"$	c #380937",
"%	c #771273",
"&	c #5E0F5B",
"*	c #540D51",
"=	c #781375",
"-	c #270626",
";	c #92178E",
">	c #881584",
",	c #233154",
"'	c #7C1378",
")	c #520D50",
"!	c #160717",
"~	c #410A3F",
"{	c #3F0A3D",
"]	c #480B46",
"^	c #81147D",
"/	c #30072E",
"(	c #6A1167",
"_	c #94178F",
":	c #70116C",
"<	c #A2199D",
"[	c #7A1376",
"}	c #651062",
"                            ",
"                            ",
"                            ",
"                            ",
"            ............... ",
"          ....+@       .... ",
"       .... .#$%      ..  . ",
"    ....     .&*   ...    . ",
"  ..         .    ..      . ",
"  .................       . ",
"  .          . .  .+=     . ",
"  .          . .  .-;     . ",
"  ..     >   ..,,..       . ",
"  ..    ')!....~{.....{]^ . ",
"   .         ..#/ ..  =(_ . ",
"   .        ... . ..      . ",
"   ..     &)............  . ",
"   ..     :<..  . ..    ... ",
"    .      ..   .  .      . ",
"    .    ..     ~[ .     .. ",
"    .   ..      }> .    ..  ",
"    . ..           .   ..   ",
"    ...            .  ..    ",
"     .......       . ..     ",
"          ........ ...      ",
"               ......       ",
"                            ",
"                            "};
