/* XPM */ 
static const char * execute_xpm[] = {
"24 24 417 2",
"  	c None",
"! 	c black",
"# 	c #000101",
"$ 	c #0A0C0E",
"% 	c #38444E",
"& 	c #586674",
"' 	c #5D6B79",
"( 	c #414C58",
") 	c #111216",
"* 	c #010101",
"+ 	c #020203",
", 	c #121518",
"- 	c #5F7280",
". 	c #92ACBD",
"0 	c #98B1C4",
"1 	c #6A7C8E",
"2 	c #171A20",
"3 	c #000102",
"4 	c #000001",
"5 	c #010102",
"6 	c #050606",
"7 	c #202429",
"8 	c #363E46",
"9 	c #15181D",
": 	c #181C21",
"; 	c #7B8FA2",
"< 	c #B1D0E7",
"= 	c #B6D5ED",
"> 	c #8198AD",
"? 	c #1A1E24",
"@ 	c #0C0D10",
"A 	c #272C35",
"B 	c #1E2226",
"C 	c #060608",
"D 	c #2A3039",
"E 	c #657586",
"F 	c #8699AC",
"G 	c #54606C",
"H 	c #21252A",
"I 	c #1C1D23",
"J 	c #454F59",
"K 	c #8CA3B7",
"L 	c #A9C5DE",
"M 	c #AAC6DF",
"N 	c #8EA5BA",
"O 	c #47505C",
"P 	c #1B1E25",
"Q 	c #1C1F22",
"R 	c #444E58",
"S 	c #718498",
"T 	c #5E6E81",
"U 	c #070708",
"V 	c #15171C",
"W 	c #556374",
"X 	c #97B4D1",
"Y 	c #ABC6E0",
"Z 	c #95AABE",
"[ 	c #6B7A8A",
"] 	c #636F80",
"^ 	c #8C9FB4",
"_ 	c #A5BFD6",
"` 	c #A8C4DD",
"a 	c #A7C2DC",
"b 	c #A6BED7",
"c 	c #8EA1B6",
"d 	c #616F81",
"e 	c #637181",
"f 	c #889EB1",
"g 	c #A0BEDA",
"h 	c #8DABCD",
"i 	c #556378",
"j 	c #191B1F",
"k 	c #15171A",
"l 	c #515E6E",
"m 	c #8DA9C6",
"n 	c #A3BFDD",
"o 	c #A5BFDA",
"p 	c #A2BCD5",
"q 	c #A1BAD5",
"r 	c #A4BEDA",
"s 	c #A4C0DB",
"t 	c #A3BFDA",
"u 	c #A2BDD9",
"v 	c #A2BEDA",
"w 	c #A1BED7",
"x 	c #9AB7D0",
"y 	c #9AB5CF",
"z 	c #9CB7D3",
"{ 	c #9AB7D7",
"| 	c #88A4C7",
"} 	c #57657C",
"~ 	c #1C1E24",
" !	c #060607",
"!!	c #242931",
"#!	c #90AAC8",
"$!	c #A2BEDB",
"%!	c #A6C2DD",
"&!	c #A7C2DF",
"'!	c #A4BFDB",
"(!	c #A3C0DC",
")!	c #A2BFDC",
"*!	c #A2BDDC",
"+!	c #A1BCDA",
",!	c #9FBDD8",
"-!	c #9FBDDA",
".!	c #9EBBDA",
"0!	c #99B6D8",
"1!	c #89A6CA",
"2!	c #62758F",
"3!	c #2D333F",
"4!	c #090A0C",
"5!	c #09090A",
"6!	c #3F4751",
"7!	c #89A2BE",
"8!	c #9FBCDA",
"9!	c #9EB9D5",
":!	c #9FB9D6",
";!	c #9EBAD9",
"<!	c #92AFCE",
"=!	c #88A2C1",
">!	c #88A1C1",
"?!	c #90ABCC",
"@!	c #97B4D4",
"A!	c #95B1D1",
"B!	c #92ACCC",
"C!	c #8DA9CE",
"D!	c #7892B7",
"E!	c #424C5E",
"F!	c #0F0F14",
"G!	c #030304",
"H!	c #171A1F",
"I!	c #4D5866",
"J!	c #8EA7C4",
"K!	c #9DB9DA",
"L!	c #9BB6D6",
"M!	c #96B2D3",
"N!	c #849EBE",
"O!	c #627691",
"P!	c #4D5C72",
"Q!	c #4D5D70",
"R!	c #60738E",
"S!	c #7A94B5",
"T!	c #859FC3",
"U!	c #829BBE",
"V!	c #7C98BB",
"W!	c #6C84A8",
"X!	c #434D61",
"Y!	c #181920",
"Z!	c #030303",
"[!	c #000002",
"]!	c #191A1E",
"^!	c #292D36",
"_!	c #313944",
"`!	c #485565",
"a!	c #788DA5",
"b!	c #93ADCF",
"c!	c #96B2D5",
"d!	c #94B2D6",
"e!	c #819ABD",
"f!	c #526078",
"g!	c #282D35",
"h!	c #16181B",
"i!	c #17181B",
"j!	c #272A34",
"k!	c #48556D",
"l!	c #667DA2",
"m!	c #708AB0",
"n!	c #6F89AD",
"o!	c #6C87AA",
"p!	c #5D708F",
"q!	c #3D4656",
"r!	c #202430",
"s!	c #141721",
"t!	c #0D0E11",
"u!	c #363F4B",
"v!	c #5D708A",
"w!	c #7A94B6",
"x!	c #849DBD",
"y!	c #8FA7CA",
"z!	c #91AACF",
"{!	c #8FAACF",
"|!	c #86A1CA",
"}!	c #617595",
"~!	c #08080A",
" #	c #010201",
"!#	c #07080A",
"##	c #242933",
"$#	c #4D6181",
"%#	c #6580A8",
"&#	c #6981A6",
"'#	c #6980A6",
"(#	c #687EA5",
")#	c #5F7397",
"*#	c #51668D",
"+#	c #404F70",
",#	c #272C36",
"-#	c #3F4A5C",
".#	c #6A82A7",
"0#	c #8CACDA",
"1#	c #8FAAD2",
"2#	c #88A2C8",
"3#	c #809ABF",
"4#	c #7C95BC",
"5#	c #728AB3",
"6#	c #4C5B77",
"7#	c #151618",
"8#	c #010000",
"9#	c #141519",
":#	c #43526F",
";#	c #5E77A1",
"<#	c #6179A2",
"=#	c #61769F",
">#	c #6177A1",
"?#	c #6077A5",
"@#	c #5C73A8",
"A#	c #4A5C88",
"B#	c #2E3441",
"C#	c #384050",
"D#	c #57698B",
"E#	c #6D86B1",
"F#	c #6E84AE",
"G#	c #6E86AF",
"H#	c #6D86AD",
"I#	c #6880A8",
"J#	c #657CA5",
"K#	c #4C5C79",
"L#	c #1C1E23",
"M#	c #1B1D22",
"N#	c #455575",
"O#	c #5A719E",
"P#	c #5A709C",
"Q#	c #596E9A",
"R#	c #536897",
"S#	c #4E6192",
"T#	c #4A5B8E",
"U#	c #3D4B76",
"V#	c #2A2F3C",
"W#	c #242731",
"X#	c #343C52",
"Y#	c #3D4864",
"Z#	c #404E6F",
"[#	c #4E628B",
"]#	c #5C719D",
"^#	c #5D759E",
"_#	c #5E76A0",
"`#	c #586A8F",
"a#	c #3B4354",
"b#	c #131519",
"c#	c #030405",
"d#	c #373F50",
"e#	c #4E6088",
"f#	c #546898",
"g#	c #536594",
"h#	c #4F6293",
"i#	c #445483",
"j#	c #3B476F",
"k#	c #333F62",
"l#	c #2B334D",
"m#	c #1E2028",
"n#	c #0D0D10",
"o#	c #101215",
"p#	c #1E232D",
"q#	c #3A4662",
"r#	c #4E618F",
"s#	c #556A98",
"t#	c #546895",
"u#	c #586C97",
"v#	c #576A8C",
"w#	c #3B4557",
"x#	c #20252E",
"y#	c #3A4255",
"z#	c #506187",
"{#	c #4D6091",
"|#	c #495A8C",
"}#	c #495B8D",
"~#	c #415285",
" $	c #353F60",
"!$	c #292D3B",
"#$	c #1E1F26",
"$$	c #121216",
"%$	c #050406",
"&$	c #0C0D0F",
"'$	c #2B3244",
"($	c #455685",
")$	c #4E6293",
"*$	c #4F608F",
"+$	c #4F6291",
",$	c #506593",
"-$	c #4D6087",
".$	c #485A7C",
"0$	c #4A5C85",
"1$	c #4A5C8C",
"2$	c #465889",
"3$	c #465787",
"4$	c #435488",
"5$	c #374779",
"6$	c #292E41",
"7$	c #121314",
"8$	c #050504",
"9$	c #020101",
":$	c #181B24",
";$	c #354060",
"<$	c #465788",
"=$	c #485989",
">$	c #475889",
"?$	c #445687",
"@$	c #475A8B",
"A$	c #4B5F8F",
"B$	c #4A5D90",
"C$	c #445789",
"D$	c #415283",
"E$	c #415384",
"F$	c #435485",
"G$	c #415286",
"H$	c #39497D",
"I$	c #2C3453",
"J$	c #10121A",
"K$	c #0D0E13",
"L$	c #415185",
"M$	c #45568A",
"N$	c #3E4E82",
"O$	c #39487C",
"P$	c #37467A",
"Q$	c #3C4A7E",
"R$	c #3C4A7C",
"S$	c #3B487D",
"T$	c #3B4A7E",
"U$	c #3A497D",
"V$	c #36467C",
"W$	c #37487D",
"X$	c #3D4D81",
"Y$	c #3D4E83",
"Z$	c #313F72",
"[$	c #1F243E",
"]$	c #0A0A0D",
"^$	c #2E385C",
"_$	c #36457E",
"`$	c #38467C",
"a$	c #303F70",
"b$	c #293664",
"c$	c #293362",
"d$	c #2D396E",
"e$	c #334076",
"f$	c #364476",
"g$	c #364377",
"h$	c #334078",
"i$	c #2D3B6F",
"j$	c #293566",
"k$	c #2C376B",
"l$	c #324074",
"m$	c #344378",
"n$	c #2B3871",
"o$	c #262E51",
"p$	c #12151D",
"q$	c #0B0C0E",
"r$	c #1F2235",
"s$	c #252F5B",
"t$	c #222D61",
"u$	c #262F51",
"v$	c #2E3241",
"w$	c #2F3242",
"x$	c #2C3353",
"y$	c #273263",
"z$	c #2C386D",
"{$	c #2C396E",
"|$	c #263264",
"}$	c #2B3251",
"~$	c #2E3143",
" %	c #2D3148",
"!%	c #262F56",
"#%	c #1E295E",
"$%	c #202953",
"%%	c #1C2031",
"&%	c #0B0C0D",
"'%	c #0C0D11",
"(%	c #1D2030",
")%	c #22273F",
"*%	c #151924",
"+%	c #0F0F11",
",%	c #161518",
"-%	c #1E202F",
".%	c #1C2450",
"0%	c #242F66",
"1%	c #253065",
"2%	c #1B244D",
"3%	c #1A1C28",
"4%	c #131415",
"5%	c #111215",
"6%	c #171A29",
"7%	c #20253F",
"8%	c #1B1D2E",
"9%	c #020201",
":%	c #0D0D0D",
";%	c #141417",
"<%	c #050506",
"=%	c #10101A",
">%	c #121843",
"?%	c #17205A",
"@%	c #1A2359",
"A%	c #141A40",
"B%	c #0B0C11",
"C%	c #070709",
"D%	c #131417",
"E%	c #0C0C0E",
"F%	c #020202",
"G%	c #0A0A12",
"H%	c #121636",
"I%	c #151B47",
"J%	c #171C47",
"K%	c #141934",
"L%	c #07070C",
"M%	c #040506",
"N%	c #1E2025",
"O%	c #292A33",
"P%	c #282933",
"Q%	c #1E1F23",
"R%	c #050405",
"! ! ! ! ! ! ! # ! $ % & ' ( ) ! ! ! ! ! ! ! ! ! ",
"! ! ! ! * + * # ! , - . 0 1 2 ! 3 4 5 * ! ! ! ! ",
"! ! ! 6 7 8 9 ! ! : ; < = > ? ! ! @ A B C ! ! ! ",
"! ! C D E F G H I J K L M N O P Q R S T D U ! ! ",
"! 4 V W X Y Z [ ] ^ _ ` a b c d e f g h i j 4 ! ",
"! 4 k l m n o p q r s t u v w x y z { | } ~ ! ! ",
"! 4  !!!T #!$!%!&!'!(!)!*!+!,!-!.!0!1!2!3!4!! ! ",
"! ! ! 5!6!7!8!9!:!;!<!=!>!?!@!A!B!C!D!E!F!! ! ! ",
"G!C C H!I!J!K!L!M!N!O!P!Q!R!S!T!U!V!W!X!Y!Z![!* ",
"]!^!_!`!a!b!c!d!e!f!g!h!i!j!k!l!m!n!o!p!q!r!s!t!",
"u!v!w!x!y!z!{!|!}!^!~! #* !###$#%#&#'#(#)#*#+#,#",
"-#.#0#1#2#3#4#5#6#7#8#! ! 8#9#:#;#<#=#>#?#@#A#B#",
"C#D#E#F#G#H#I#J#K#L#8#! ! * M#N#O#P#Q#R#S#T#U#V#",
"W#X#Y#Z#[#]#^#_#`#a#b#c#c#, d#e#f#g#h#i#j#k#l#m#",
"C n#o#p#q#r#s#t#u#v#w#x#x#y#z#{#|#}#~# $!$#$$$%$",
"! ! ! &$'$($)$*$+$,$-$.$.$0$1$2$3$4$5$6$7$8$9$! ",
"! ! Z!:$;$<$|#=$>$?$@$A$B$C$D$E$F$G$H$I$J$! ! ! ",
"! ! K$l#L$M$N$O$P$H$Q$R$S$T$U$V$W$X$Y$Z$[$]$! ! ",
"! ! s!^$_$`$a$b$c$d$e$f$g$h$i$j$k$l$m$n$o$p$! ! ",
"! ! q$r$s$t$u$v$w$x$y$z${$|$}$~$ %!%#%$%%%&%! ! ",
"! ! * '%(%)%*%+%,%-%.%0%1%2%3%4%5%6%7%8%t!9$! ! ",
"! ! ! 9%:%;%<%! 9%=%>%?%@%A%B%! ! C%D%E%F%! ! ! ",
"! ! ! ! ! ! ! ! * G%H%I%J%K%L%! ! ! ! ! ! ! ! ! ",
"! ! ! ! ! ! ! ! ! M%N%O%P%Q%R%! ! ! ! ! ! ! ! ! "};