/* XPM */
static char * export_xpm[] = {
"26 26 279 2",
"  	c None",
". 	c #F6F7F9",
"+ 	c #F7F7F9",
"@ 	c #EAEEF1",
"# 	c #D5DCE2",
"$ 	c #F5F6F9",
"% 	c #F5F6F8",
"& 	c #D8DEE5",
"* 	c #D6DDE3",
"= 	c #D7DDE4",
"- 	c #D7DEE4",
"; 	c #F5F7F9",
"> 	c #EFF1F3",
", 	c #F3F3F5",
"' 	c #D9DEE1",
") 	c #D6DDE4",
"! 	c #D7DEE3",
"~ 	c #E5E8EC",
"{ 	c #E2E7EC",
"] 	c #F4F5F7",
"^ 	c #EAEBEC",
"/ 	c #E3E3E4",
"( 	c #C5C5C5",
"_ 	c #B7B7B6",
": 	c #CFD1D3",
"< 	c #E1E6EA",
"[ 	c #F1F3F6",
"} 	c #D3DBE0",
"| 	c #EEF0F3",
"1 	c #E5E5E5",
"2 	c #ACACAC",
"3 	c #3C3C3C",
"4 	c #282828",
"5 	c #2B2B2B",
"6 	c #888C8E",
"7 	c #B3B4B5",
"8 	c #F0F0F2",
"9 	c #C7CED4",
"0 	c #DEE3E8",
"a 	c #F7F8FA",
"b 	c #F4F5F6",
"c 	c #979797",
"d 	c #3E3E3E",
"e 	c #747474",
"f 	c #606060",
"g 	c #616161",
"h 	c #6C6C6C",
"i 	c #454444",
"j 	c #3C3C3B",
"k 	c #8B8B8B",
"l 	c #D3DAE0",
"m 	c #EFF2F4",
"n 	c #DCDDDD",
"o 	c #515151",
"p 	c #7C7C7C",
"q 	c #676767",
"r 	c #5B5B5B",
"s 	c #818181",
"t 	c #737373",
"u 	c #686868",
"v 	c #3A3A3A",
"w 	c #9FA0A0",
"x 	c #FAFBFC",
"y 	c #C7CFD5",
"z 	c #DFE4E9",
"A 	c #FAFCFE",
"B 	c #A8A8A9",
"C 	c #414141",
"D 	c #727272",
"E 	c #787777",
"F 	c #878686",
"G 	c #444444",
"H 	c #8A8A8A",
"I 	c #9B9B9B",
"J 	c #404040",
"K 	c #363636",
"L 	c #D9D9DA",
"M 	c #F8F9FB",
"N 	c #F3F4F6",
"O 	c #D5DFE4",
"P 	c #EFECEF",
"Q 	c #F9F5F7",
"R 	c #3B3D3D",
"S 	c #6E6F6F",
"T 	c #999999",
"U 	c #898888",
"V 	c #4E4E4E",
"W 	c #9F9F9F",
"X 	c #8C8C8C",
"Y 	c #353535",
"Z 	c #666666",
"` 	c #BB6D6E",
" .	c #C86B6D",
"..	c #D27374",
"+.	c #A35454",
"@.	c #5F2A2A",
"#.	c #6B5858",
"$.	c #7F8282",
"%.	c #A4A4A4",
"&.	c #787878",
"*.	c #595959",
"=.	c #9D9D9D",
"-.	c #656565",
";.	c #474747",
">.	c #B4B5B5",
",.	c #AC0C0C",
"'.	c #BA0E0E",
").	c #B00707",
"!.	c #AE0606",
"~.	c #AC0202",
"{.	c #AD0000",
"].	c #A90606",
"^.	c #A31F1F",
"/.	c #A06060",
"(.	c #9FA2A2",
"_.	c #959595",
":.	c #4F4F4F",
"<.	c #9A9A9A",
"[.	c #8C8B8B",
"}.	c #6B6B6B",
"|.	c #585858",
"1.	c #7F7F7F",
"2.	c #F5F5F7",
"3.	c #AD0C0C",
"4.	c #BE0E0E",
"5.	c #BC0E0E",
"6.	c #B00C0C",
"7.	c #AF0A0A",
"8.	c #BE3737",
"9.	c #EDD2CE",
"0.	c #C14B45",
"a.	c #AD0304",
"b.	c #AC5050",
"c.	c #979595",
"d.	c #545454",
"e.	c #757575",
"f.	c #8D8D8D",
"g.	c #525252",
"h.	c #6F6F6F",
"i.	c #E6E7E8",
"j.	c #B60D0D",
"k.	c #C90F0F",
"l.	c #B30D0D",
"m.	c #AF0C0C",
"n.	c #B52220",
"o.	c #F1D9D8",
"p.	c #FFFFFF",
"q.	c #D68884",
"r.	c #B10D0D",
"s.	c #B00808",
"t.	c #A67272",
"u.	c #7A7C7C",
"v.	c #858585",
"w.	c #848484",
"x.	c #767676",
"y.	c #383838",
"z.	c #E5E6E7",
"A.	c #C90E0F",
"B.	c #B21513",
"C.	c #BA2E2E",
"D.	c #B71E1E",
"E.	c #EAC5C2",
"F.	c #FEFEFE",
"G.	c #E8BFBB",
"H.	c #BE3835",
"I.	c #AF1A1A",
"J.	c #7C7777",
"K.	c #434444",
"L.	c #626262",
"M.	c #232323",
"N.	c #C10E0E",
"O.	c #C60909",
"P.	c #C24F4A",
"Q.	c #F1D7D7",
"R.	c #F1D4D4",
"S.	c #F0D2D2",
"T.	c #F9E9EA",
"U.	c #F5E6E3",
"V.	c #B51515",
"W.	c #8F5656",
"X.	c #656969",
"Y.	c #6E6E6E",
"Z.	c #484848",
"`.	c #535353",
" +	c #9FA09F",
".+	c #BF0E0E",
"++	c #CA0D0D",
"@+	c #B31815",
"#+	c #FCFDFB",
"$+	c #E3B0AB",
"%+	c #B31312",
"&+	c #9B3030",
"*+	c #535C5C",
"=+	c #393939",
"-+	c #878787",
";+	c #DDDEDF",
">+	c #F3F5F7",
",+	c #E7EAED",
"'+	c #B80D0D",
")+	c #D01010",
"!+	c #B20606",
"~+	c #D3847F",
"{+	c #FEFCFC",
"]+	c #F9FAF5",
"^+	c #FBEDED",
"/+	c #F7EDE9",
"(+	c #BE3F3D",
"_+	c #B00B0B",
":+	c #8B1C1C",
"<+	c #4C5555",
"[+	c #DDDDDD",
"}+	c #E9EAEC",
"|+	c #EBEEF1",
"1+	c #D5DCE1",
"2+	c #C6CDD2",
"3+	c #B20D0D",
"4+	c #C70F0F",
"5+	c #B11311",
"6+	c #D98C8A",
"7+	c #C2554E",
"8+	c #AC0000",
"9+	c #CF756F",
"0+	c #D88986",
"a+	c #AE0908",
"b+	c #AF0909",
"c+	c #B65955",
"d+	c #C6CFD0",
"e+	c #E1E1E3",
"f+	c #EDEDEF",
"g+	c #F7F9FB",
"h+	c #F4F6F8",
"i+	c #EDF0F2",
"j+	c #DBE0E6",
"k+	c #CCD3D9",
"l+	c #B40D0D",
"m+	c #C60F0F",
"n+	c #B60C0D",
"o+	c #AB0202",
"p+	c #AF0A0B",
"q+	c #B51B19",
"r+	c #DEA19E",
"s+	c #B52320",
"t+	c #AD0303",
"u+	c #E7C9C9",
"v+	c #FBFFFF",
"w+	c #EDEFF3",
"x+	c #DDE2E6",
"y+	c #CFD5DB",
"z+	c #B9BFC5",
"A+	c #AE0C0C",
"B+	c #B50D0D",
"C+	c #B00D0D",
"D+	c #AF0B0B",
"E+	c #B11413",
"F+	c #AB0000",
"G+	c #CC716E",
"H+	c #F7FBFD",
"I+	c #F1F3F5",
"J+	c #E0E5EA",
"K+	c #CDD3D9",
"L+	c #BEC5CA",
"M+	c #AF0D0D",
"N+	c #CB6B68",
"O+	c #F3EFF0",
"P+	c #E4E9ED",
"Q+	c #D1D8DE",
"R+	c #B2B8BC",
"S+	c #AF1616",
"T+	c #CC9699",
"U+	c #F0F5F8",
"V+	c #F4F5F8",
"W+	c #EAEDF1",
"X+	c #D7DEE2",
"Y+	c #C0C7CC",
"Z+	c #CEDEE5",
"`+	c #DCE2E7",
" @	c #D9DEE3",
".@	c #C9D1D6",
"+@	c #C3C9CE",
"                                                    ",
"                    . + @ #                         ",
"              $ . % . . $ & * = -                   ",
"        . . . ; % . . > , ' ) ! * # ~               ",
"    { ] . . % . % ^ / ( _ : ) * < [ .               ",
"    } | . . . % 1 2 3 4 4 5 6 7 8 . % ]             ",
"    9 0 . % a b c d e f g h i j k ] . %             ",
"      l m . a n 5 o p q r s t u v w x %             ",
"      y z a A B C D E F G H I k J K L M N           ",
"        O P Q c R S T U V q W X e Y Z ] %           ",
"        `  ...+.@.#.$.%.&.*.X =.q -.;.>.M ]         ",
"    ,.'.).!.~.{.].^./.(._.:.p <.[.}.|.1.2.%         ",
"  3.4.5.6.7.8.9.0.a.6.b.c.d.e.c f.u g.h.i.. ]       ",
"  j.k.l.m.7.n.o.p.q.r.s.t.u.g v.w.x.y.}.z.; %       ",
"  5.A.B.C.C.D.E.F.p.G.H.I.J.K.t H L.M.x., . % %     ",
"r.N.O.P.Q.R.S.T.F.p.p.U.V.W.X.g Y.Z.`. +2.. . %     ",
"r..+++@+#+p.p.p.p.F.p.$+%+&+*+T X =+-+;+. % . >+,+  ",
"  '+)+!+~+p.{+]+^+p./+(+_+:+<+f f.[+}+a % % |+1+2+  ",
"  3+4+N.5+6+7+8+9+p.0+a+b+c+d+e+f+g+a h+i+j+k+      ",
"  3.l+m+n+o+!.p+q+r+s+7.t+u+v+M a . w+x+y+z+        ",
"    A+3+B+m.C+C+D+E+7.F+G+H+. a I+J+K+L+            ",
"      m.6.M+C+C+M+m.a+N+O+. h+P+Q+R+                ",
"          6.C+m.C+S+T+U+V+W+X+Y+                    ",
"                    Z+`+ @.@                        ",
"                      +@                            ",
"                                                    "};
