/* XPM */
static char * imageFusion_xpm[] = {
"28 28 461 2",
"  	c None",
". 	c #373333",
"+ 	c #555252",
"@ 	c #696565",
"# 	c #6C6A6A",
"$ 	c #5E5E5E",
"% 	c #4C4B4B",
"& 	c #2E2D2D",
"* 	c #3F3C3C",
"= 	c #565253",
"- 	c #BDBABA",
"; 	c #FAF8F8",
"> 	c #F2ECEC",
", 	c #EAE2E3",
"' 	c #F0E8E8",
") 	c #EEE8E9",
"! 	c #FAF6F7",
"~ 	c #F6F5F6",
"{ 	c #ABABAB",
"] 	c #444545",
"^ 	c #545353",
"/ 	c #DCD8D9",
"( 	c #D1C7C5",
"_ 	c #6E5851",
": 	c #6F4637",
"< 	c #9A352A",
"[ 	c #912D2A",
"} 	c #9B3B34",
"| 	c #943028",
"1 	c #743B32",
"2 	c #644841",
"3 	c #B3A8A4",
"4 	c #F5F4F5",
"5 	c #B4B3B3",
"6 	c #383939",
"7 	c #747373",
"8 	c #EAE7E7",
"9 	c #A2928C",
"0 	c #89532D",
"a 	c #CCAB45",
"b 	c #DAA72E",
"c 	c #D0752F",
"d 	c #D26E2F",
"e 	c #D19030",
"f 	c #D1942F",
"g 	c #D88B2F",
"h 	c #CF9730",
"i 	c #92642F",
"j 	c #73514A",
"k 	c #F0EEEF",
"l 	c #C2C3C3",
"m 	c #3C3B3B",
"n 	c #424242",
"o 	c #F8F9F9",
"p 	c #AD9E9A",
"q 	c #A08148",
"r 	c #D7DA73",
"s 	c #CBCE69",
"t 	c #CA6B31",
"u 	c #CB4C2F",
"v 	c #CA6C30",
"w 	c #CB9E2F",
"x 	c #CC9230",
"y 	c #CA612F",
"z 	c #CCB637",
"A 	c #D1E470",
"B 	c #BE7F2C",
"C 	c #8D6A67",
"D 	c #FFFFFF",
"E 	c #918F8F",
"F 	c #A8A8A8",
"G 	c #DED9DB",
"H 	c #88562C",
"I 	c #D0D773",
"J 	c #CBC45E",
"K 	c #CB8E2D",
"L 	c #CB4B2F",
"M 	c #CD5C30",
"N 	c #CB662F",
"O 	c #CA9230",
"P 	c #CB6F30",
"Q 	c #C72B2F",
"R 	c #CA6F2F",
"S 	c #CBA23F",
"T 	c #CF9A31",
"U 	c #B4642F",
"V 	c #BAADAE",
"W 	c #F6F5F5",
"X 	c #3E3A3A",
"Y 	c #E9E9E9",
"Z 	c #846563",
"` 	c #D09E30",
" .	c #CCB631",
"..	c #CA792B",
"+.	c #C73A2F",
"@.	c #C03130",
"#.	c #C03E2F",
"$.	c #C84C2F",
"%.	c #CB6C30",
"&.	c #CD5730",
"*.	c #BA2D2F",
"=.	c #B02F2E",
"-.	c #B6342C",
";.	c #C8502F",
">.	c #CD9D2F",
",.	c #8E4F35",
"'.	c #DAD5D7",
").	c #878484",
"!.	c #3C3939",
"~.	c #EDEAEB",
"{.	c #7D4E2D",
"].	c #CEC630",
"^.	c #CB8B2F",
"/.	c #C83D2E",
"(.	c #B22C2F",
"_.	c #A32E2E",
":.	c #9E2C2E",
"<.	c #AA2D2E",
"[.	c #B0342F",
"}.	c #B1342F",
"|.	c #9D2E2E",
"1.	c #8A2D2F",
"2.	c #942D2F",
"3.	c #C1372F",
"4.	c #CCA431",
"5.	c #D0982E",
"6.	c #85605C",
"7.	c #E0DEDE",
"8.	c #3D3A3A",
"9.	c #605B5B",
"0.	c #978B8E",
"a.	c #B96E2E",
"b.	c #CBB12F",
"c.	c #CB6930",
"d.	c #B72F2E",
"e.	c #952E2E",
"f.	c #8B2D2D",
"g.	c #842D2D",
"h.	c #812E2E",
"i.	c #892E2F",
"j.	c #8A2D2E",
"k.	c #822D2D",
"l.	c #7B2E2E",
"m.	c #902E2E",
"n.	c #CA8830",
"o.	c #CDCB35",
"p.	c #9F622D",
"q.	c #BCB6B7",
"r.	c #423C3C",
"s.	c #353232",
"t.	c #9E9B9B",
"u.	c #6A3E42",
"v.	c #D2862F",
"w.	c #CC9F2F",
"x.	c #CB462F",
"y.	c #AB2E2E",
"z.	c #992F2F",
"A.	c #912E2E",
"B.	c #7D2D2D",
"C.	c #702E2E",
"D.	c #732D2D",
"E.	c #722E2E",
"F.	c #8F2F2E",
"G.	c #C1362E",
"H.	c #CB6A30",
"I.	c #CACE37",
"J.	c #CA8931",
"K.	c #7C676A",
"L.	c #767070",
"M.	c #363333",
"N.	c #D0CECE",
"O.	c #833E41",
"P.	c #D28930",
"Q.	c #CB9B2F",
"R.	c #C83F2E",
"S.	c #AC2F2F",
"T.	c #AE2E2E",
"U.	c #AD2F2F",
"V.	c #892D2D",
"W.	c #632E2E",
"X.	c #672E2E",
"Y.	c #7E2E2E",
"Z.	c #8B2F2F",
"`.	c #AE2F2E",
" +	c #C83C2F",
".+	c #CB8530",
"++	c #D27E31",
"@+	c #744144",
"#+	c #B0ACAC",
"$+	c #363232",
"%+	c #3D3838",
"&+	c #F4F3F3",
"*+	c #813839",
"=+	c #D26630",
"-+	c #CA642E",
";+	c #B9322E",
">+	c #9D2F2F",
",+	c #A12F2F",
"'+	c #A83030",
")+	c #832E2E",
"!+	c #662E2E",
"~+	c #5E2E2E",
"{+	c #6F2E2E",
"]+	c #962E2E",
"^+	c #AA2F2F",
"/+	c #BB2E2F",
"(+	c #CA5130",
"_+	c #D0712F",
":+	c #844849",
"<+	c #D9D6D6",
"[+	c #3A3535",
"}+	c #494444",
"|+	c #FFFEFE",
"1+	c #843D40",
"2+	c #D25A30",
"3+	c #CB442F",
"4+	c #B92E2F",
"5+	c #A22F2E",
"6+	c #9C2E2E",
"7+	c #982E2E",
"8+	c #822E2E",
"9+	c #6B2E2E",
"0+	c #612E2E",
"a+	c #682E2E",
"b+	c #BB2F2F",
"c+	c #C4302F",
"d+	c #CF572F",
"e+	c #875949",
"f+	c #3E3737",
"g+	c #474040",
"h+	c #FCFBFB",
"i+	c #774649",
"j+	c #D28430",
"k+	c #CB782F",
"l+	c #CB3E30",
"m+	c #B82E2F",
"n+	c #952F2F",
"o+	c #7E2D2D",
"p+	c #692E2E",
"q+	c #642E2E",
"r+	c #702D2D",
"s+	c #8A2E2E",
"t+	c #A12E2E",
"u+	c #AA2E2E",
"v+	c #C3332F",
"w+	c #CE7630",
"x+	c #936938",
"y+	c #F6F3F2",
"z+	c #474444",
"A+	c #3D3636",
"B+	c #F5F4F4",
"C+	c #654F52",
"D+	c #D07630",
"E+	c #CB582F",
"F+	c #C02E2E",
"G+	c #862E2E",
"H+	c #6F2D2D",
"I+	c #742E2E",
"J+	c #642D2D",
"K+	c #7F2F2F",
"L+	c #882D2D",
"M+	c #9A2E2F",
"N+	c #C32F2E",
"O+	c #CC4C2F",
"P+	c #A74431",
"Q+	c #CEC6C6",
"R+	c #555353",
"S+	c #343131",
"T+	c #ECEAEA",
"U+	c #645052",
"V+	c #D06230",
"W+	c #CCAB30",
"X+	c #C1302F",
"Y+	c #A32F2E",
"Z+	c #7D2F2F",
"`+	c #6E2D2D",
" @	c #762E2E",
".@	c #792E2E",
"+@	c #772E2E",
"@@	c #8E2E2E",
"#@	c #AF2E2E",
"$@	c #C7322F",
"%@	c #CC352F",
"&@	c #A33030",
"*@	c #B1A8A8",
"=@	c #5F5C5C",
"-@	c #332F2F",
";@	c #C3C0C0",
">@	c #685556",
",@	c #CF5C2F",
"'@	c #CA982F",
")@	c #C94D30",
"!@	c #AE2D2F",
"~@	c #A02D2D",
"{@	c #832F2F",
"]@	c #782D2D",
"^@	c #912D2E",
"/@	c #B8332E",
"(@	c #A92D2E",
"_@	c #912D2D",
":@	c #882E2E",
"<@	c #BD2F2E",
"[@	c #CB432E",
"}@	c #CB642F",
"|@	c #A83E33",
"1@	c #BEB5B5",
"2@	c #5D5B5B",
"3@	c #8B8686",
"4@	c #7F7071",
"5@	c #C45C30",
"6@	c #CB8C30",
"7@	c #C2362E",
"8@	c #A32D2E",
"9@	c #982F2F",
"0@	c #892E2E",
"a@	c #902E2F",
"b@	c #B3332E",
"c@	c #CC6531",
"d@	c #CE7A37",
"e@	c #C6472F",
"f@	c #A52E2E",
"g@	c #AD2E2E",
"h@	c #BF2F2F",
"i@	c #CA482E",
"j@	c #CD982F",
"k@	c #9E5137",
"l@	c #E5DDDD",
"m@	c #4E4D4D",
"n@	c #453E3E",
"o@	c #BDB6B7",
"p@	c #9C5E31",
"q@	c #CED545",
"r@	c #CC8132",
"s@	c #BA362E",
"t@	c #9F2D2E",
"u@	c #A02E2F",
"v@	c #B8302E",
"w@	c #CB6D30",
"x@	c #CCD064",
"y@	c #CCD964",
"z@	c #CC952E",
"A@	c #C4392E",
"B@	c #C1432E",
"C@	c #CB5F2F",
"D@	c #CA802E",
"E@	c #D0C030",
"F@	c #7C5D4D",
"G@	c #F6F4F4",
"H@	c #383838",
"I@	c #312C2C",
"J@	c #D0CCCC",
"K@	c #96766B",
"L@	c #C4BC44",
"M@	c #CDC737",
"N@	c #CC5D2F",
"O@	c #BB2F2C",
"P@	c #BC302E",
"Q@	c #CA3130",
"R@	c #CB8432",
"S@	c #CCD37C",
"T@	c #CBD37A",
"U@	c #CB552F",
"V@	c #CC752F",
"W@	c #CBAC2F",
"X@	c #CBAE2E",
"Y@	c #CDC330",
"Z@	c #AC8E2C",
"`@	c #B5A4A7",
" #	c #AEADAD",
".#	c #5F5858",
"+#	c #EBE5E8",
"@#	c #907246",
"##	c #C9A12D",
"$#	c #CFA734",
"%#	c #CC9245",
"&#	c #CC923F",
"*#	c #CB5830",
"=#	c #CB4D30",
"-#	c #CCBD39",
";#	c #CBD364",
">#	c #CCC53B",
",#	c #CB862F",
"'#	c #CAA631",
")#	c #CBBA36",
"!#	c #CDCC43",
"~#	c #C2AE2C",
"{#	c #9A7A6D",
"]#	c #F0ECEC",
"^#	c #413D3D",
"/#	c #2B2626",
"(#	c #949191",
"_#	c #E0D8DB",
":#	c #A77F61",
"<#	c #A89227",
"[#	c #D3D853",
"}#	c #D0DD4B",
"|#	c #CCB031",
"1#	c #CB7F30",
"2#	c #CBB42F",
"3#	c #CBD23F",
"4#	c #CCC436",
"5#	c #CCB730",
"6#	c #CFD93F",
"7#	c #D2D738",
"8#	c #B9B538",
"9#	c #B09A73",
"0#	c #E8E4E7",
"a#	c #6A6666",
"b#	c #343232",
"c#	c #787575",
"d#	c #E0DADD",
"e#	c #C9B8A9",
"f#	c #9C6E4C",
"g#	c #A5682C",
"h#	c #CBA32D",
"i#	c #D8A22F",
"j#	c #D6902E",
"k#	c #D59D2B",
"l#	c #CB922D",
"m#	c #C98A2B",
"n#	c #A27127",
"o#	c #9A713B",
"p#	c #BCAC92",
"q#	c #F9F6F7",
"r#	c #807E7E",
"s#	c #302D2D",
"t#	c #3A3939",
"u#	c #C2BFC1",
"v#	c #F7EDEF",
"w#	c #BCA29E",
"x#	c #73584D",
"y#	c #79493A",
"z#	c #804E43",
"A#	c #8D5D51",
"B#	c #81675D",
"C#	c #846A61",
"D#	c #D1BBB5",
"E#	c #F3E9E8",
"F#	c #F1EEF1",
"G#	c #393838",
"H#	c #454444",
"I#	c #575454",
"J#	c #CECCCC",
"K#	c #F9F8F9",
"L#	c #F8F3F5",
"M#	c #F2ECED",
"N#	c #FAF6F8",
"O#	c #F9F8FA",
"P#	c #FBFAFB",
"Q#	c #E5E5E5",
"R#	c #8B8888",
"S#	c #494646",
"T#	c #333030",
"U#	c #393939",
"V#	c #403E3E",
"W#	c #585656",
"X#	c #6D6A6A",
"Y#	c #6A6767",
"Z#	c #635E5E",
"`#	c #494546",
" $	c #383535",
"                                                        ",
"                    . + @ # $ % &                       ",
"              * = - ; > , ' ) ! ~ { ]                   ",
"            ^ / ( _ : < [ } | 1 2 3 4 5 6               ",
"          7 8 9 0 a b c d e f g h i j k l m             ",
"        n o p q r s t u v w x y z A B C D E             ",
"        F G H I J K L M N O P Q R S T U V W X           ",
"      6 Y Z `  ...+.@.#.$.%.&.*.=.-.;.>.,.'.).          ",
"      !.~.{.].^./.(._.:.<.[.}.|.1.2.3.4.5.6.7.8.        ",
"      9.0.a.b.c.d.e.f.g.h.i.j.k.l.m.3.n.o.p.q.r.        ",
"    s.t.u.v.w.x.y.z.A.B.C.D.E.E.l.F.G.H.I.J.K.L.        ",
"    M.N.O.P.Q.R.S.T.U.V.C.W.X.E.Y.Z.`. +.+++@+#+$+      ",
"    %+&+*+=+-+;+>+,+'+)+!+~+X.{+Y.]+^+/+(+_+:+<+[+      ",
"    }+|+1+2+3+4+5+6+7+8+9+0+W.a+l.]+y.b+c+d+e+W f+      ",
"    g+h+i+j+k+l+m+^+n+o+{+p+q+X.r+s+t+u+v+w+x+y+z+      ",
"    A+B+C+D+^.E+F+y.G+H+I+9+J+0+W.K+L+M+N+O+P+Q+R+      ",
"    S+T+U+V+W+%.X+Y+Z+`+ @.@8+B.+@h.@@#@$@%@&@*@=@      ",
"    -@;@>@,@'@)@!@~@{@]@^@T./@(@_@:@e.<@[@}@|@1@2@      ",
"      3@4@5@6@7@8@9@0@a@b@c@d@e@f@:.g@h@i@j@k@l@m@      ",
"      n@o@p@q@r@s@t@u@v@w@x@y@z@A@B@N C@D@E@F@G@H@      ",
"      I@J@K@L@M@N@O@P@Q@R@S@T@b.U@V@W@X@Y@Z@`@ #&       ",
"      M..#+#@###$#%#&#*#=#-#;#>#,#'#)#!#~#{#]#^#        ",
"        /#(#_#:#<#[#}#|#1#2#3#4#5#6#7#8#9#0#a#b#        ",
"          . c#d#e#f#g#h#i#j#k#l#m#n#o#p#q#r#s#          ",
"            t#z+u#v#w#x#y#z#A#B#C#D#E#F#@ G#            ",
"                H#I#J#K#L#M#N#O#P#Q#R#S#T#              ",
"                    U#V#W#X#Y#Z#`# $                    ",
"                                                        "};
