/* XPM */
static char * importdicomdir_xpm[] = {
"24 24 255 2",
"  	c None",
". 	c #F6F7F9",
"+ 	c #EDF0F3",
"@ 	c #D4DCE2",
"# 	c #D7DEE4",
"$ 	c #F5F6F9",
"% 	c #F6F7F8",
"& 	c #F7F8FA",
"* 	c #D8DFE5",
"= 	c #D6DDE3",
"- 	c #F5F6F8",
"; 	c #F6F6F8",
"> 	c #F5F6F7",
", 	c #EBECEE",
"' 	c #E9E9EB",
") 	c #D9DDE1",
"! 	c #D6DEE4",
"~ 	c #D8DFE4",
"{ 	c #DFE4E9",
"] 	c #DEE4E9",
"^ 	c #F7F7F9",
"/ 	c #F3F4F5",
"( 	c #F0F1F1",
"_ 	c #9D9D9E",
": 	c #737373",
"< 	c #6F6F6F",
"[ 	c #808182",
"} 	c #C8CED3",
"| 	c #E1E6E9",
"1 	c #EFF2F5",
"2 	c #F0F1F3",
"3 	c #CFD6DC",
"4 	c #EEF0F4",
"5 	c #EBEBEC",
"6 	c #6C6C6C",
"7 	c #6E6E6E",
"8 	c #4E4E4E",
"9 	c #434343",
"0 	c #525252",
"a 	c #3E3E3F",
"b 	c #717171",
"c 	c #F1F1F3",
"d 	c #9A9EA3",
"e 	c #939393",
"f 	c #3C3C3C",
"g 	c #6A6A6A",
"h 	c #7B7B7B",
"i 	c #686868",
"j 	c #3D3D3D",
"k 	c #5F5F5F",
"l 	c #EFF0F1",
"m 	c #CDD4D9",
"n 	c #EFF1F4",
"o 	c #EAEBEC",
"p 	c #5B5B5B",
"q 	c #6D6D6D",
"r 	c #818181",
"s 	c #494949",
"t 	c #8A8A8A",
"u 	c #8E8E8E",
"v 	c #313131",
"w 	c #989898",
"x 	c #F4F5F7",
"y 	c #8D9296",
"z 	c #E6EAEF",
"A 	c #F7F7FB",
"B 	c #E4E3E7",
"C 	c #636363",
"D 	c #8C8C8C",
"E 	c #A1A1A1",
"F 	c #808080",
"G 	c #626262",
"H 	c #3E3E3E",
"I 	c #DADBDC",
"J 	c #F1F2F4",
"K 	c #557A4B",
"L 	c #B6D3B5",
"M 	c #C3E7B7",
"N 	c #BBDCAF",
"O 	c #566250",
"P 	c #5B6058",
"Q 	c #696869",
"R 	c #A5A5A5",
"S 	c #606060",
"T 	c #959595",
"U 	c #535353",
"V 	c #414141",
"W 	c #838383",
"X 	c #F9FAFB",
"Y 	c #60CC3B",
"Z 	c #79D344",
"` 	c #63CD36",
" .	c #61CC35",
"..	c #5DCB2F",
"+.	c #65CD3A",
"@.	c #67B646",
"#.	c #7DA46E",
"$.	c #A2A0A2",
"%.	c #969696",
"&.	c #868686",
"*.	c #979797",
"=.	c #323232",
"-.	c #EDEDEE",
";.	c #ECEDEF",
">.	c #61CB3B",
",.	c #92DD4F",
"'.	c #79D445",
").	c #67CD3D",
"!.	c #63CC38",
"~.	c #A9E391",
"{.	c #6ACE41",
"].	c #67CE3D",
"^.	c #69CD3F",
"/.	c #83BD6C",
"(.	c #979997",
"_.	c #545453",
":.	c #7A7A7A",
"<.	c #9B9B9B",
"[.	c #848484",
"}.	c #656565",
"|.	c #333333",
"1.	c #C2C2C3",
"2.	c #F9FAFC",
"3.	c #F3F4F6",
"4.	c #7ED647",
"5.	c #A0E255",
"6.	c #63CC3C",
"7.	c #C7ECB8",
"8.	c #FBFDFA",
"9.	c #82D760",
"0.	c #69CE40",
"a.	c #6ED045",
"b.	c #69D03D",
"c.	c #90B281",
"d.	c #797779",
"e.	c #5D5D5D",
"f.	c #282828",
"g.	c #BFBFBF",
"h.	c #69CE3E",
"i.	c #8FDC4E",
"j.	c #90DC4E",
"k.	c #65CD3C",
"l.	c #A8E391",
"m.	c #FEFEFE",
"n.	c #CCEEBE",
"o.	c #C5ECB5",
"p.	c #D5F1CA",
"q.	c #A5E28D",
"r.	c #6BCD43",
"s.	c #7B7E7A",
"t.	c #494849",
"u.	c #191919",
"v.	c #E5E5E5",
"w.	c #F7F9FB",
"x.	c #6DD040",
"y.	c #96DF51",
"z.	c #8DDB4D",
"A.	c #87D867",
"B.	c #FDFEFC",
"C.	c #FFFFFF",
"D.	c #DCF3D2",
"E.	c #6ED345",
"F.	c #729663",
"G.	c #6E6B6F",
"H.	c #5E5E5E",
"I.	c #E8E9E9",
"J.	c #6ACE3F",
"K.	c #8FDC4F",
"L.	c #98DF51",
"M.	c #87D868",
"N.	c #F8FDF7",
"O.	c #FBFDFB",
"P.	c #F8FCF6",
"Q.	c #79D453",
"R.	c #68AA4D",
"S.	c #4A464C",
"T.	c #B9B9B9",
"U.	c #797979",
"V.	c #6B6B6B",
"W.	c #C5C5C6",
"X.	c #F8F9FC",
"Y.	c #F2F3F6",
"Z.	c #E0E4E8",
"`.	c #7ED547",
" +	c #ACE65A",
".+	c #69CE3D",
"++	c #8DDA6D",
"@+	c #F3FBF0",
"#+	c #DAF3D0",
"$+	c #92DC74",
"%+	c #9BDE7F",
"&+	c #A8E290",
"*+	c #71D249",
"=+	c #69A94E",
"-+	c #7B767E",
";+	c #F8F9FB",
">+	c #F2F4F7",
",+	c #E4E8ED",
"'+	c #BAC0C4",
")+	c #808588",
"!+	c #65CD3D",
"~+	c #93DD4F",
"{+	c #94DD51",
"]+	c #63CC3A",
"^+	c #7AD354",
"/+	c #F5FCF2",
"(+	c #E4F6DD",
"_+	c #70D048",
":+	c #66CD3C",
"<+	c #63CC37",
"[+	c #B6DEA8",
"}+	c #F4F2F8",
"|+	c #F3F3F5",
"1+	c #E7EBEF",
"2+	c #C8CED4",
"3+	c #5E6164",
"4+	c #1A1A1B",
"5+	c #84D84A",
"6+	c #76D344",
"7+	c #75D24E",
"8+	c #C9EDB9",
"9+	c #71D149",
"0+	c #67CE3E",
"a+	c #66CD3B",
"b+	c #72D14C",
"c+	c #F8F8FC",
"d+	c #F4F6F8",
"e+	c #EBEEF1",
"f+	c #D2D9DF",
"g+	c #94999E",
"h+	c #68CE3E",
"i+	c #61CB35",
"j+	c #65CD39",
"k+	c #76D250",
"l+	c #D8EED2",
"m+	c #F8F7FB",
"n+	c #EDF1F4",
"o+	c #D6DBE0",
"p+	c #A0A6AA",
"q+	c #27282A",
"r+	c #68CD3D",
"s+	c #64CB3A",
"t+	c #91D07D",
"u+	c #E1EEE1",
"v+	c #F1F3F6",
"w+	c #DDE3E8",
"x+	c #A5AAAF",
"y+	c #2C2E2F",
"z+	c #9F9FAC",
"A+	c #E0E6EB",
"B+	c #DFE4E8",
"C+	c #C2C9CE",
"D+	c #4B4D50",
"E+	c #A6ABB0",
"F+	c #808488",
"                                                ",
"                  . . + @ #                     ",
"            $ . % . . & * = # #                 ",
"      . - ; - . > - , ' ) # ! ~ {               ",
"    ] ^ $ . . / ( _ : < [ } | 1 . 2             ",
"    3 4 . . - 5 6 7 8 9 0 a b c & -             ",
"    d { ^ - ; e f : g < h i j k l . 2           ",
"      m n . o k p q r s t u h v w x -           ",
"      y z A B 0 C e D s b E F G H I . J         ",
"      K L M N O P Q R < S T T U V W X x         ",
"    Y Z `  ...+.@.#.$.%.8 &.*.W 7 =.-.& ;.      ",
"  >.,.'.).!.~.{.].^./.(._.:.<.[.}.|.1.2.3.      ",
"  4.5.6.+.7.8.9.0.a.b.c.d.C D F e.f.g.2.. ,     ",
"h.i.j.k.l.m.8.n.o.p.q.r.s.t.h F 8 u.v.w.. x     ",
"x.y.z.A.B.C.C.C.C.C.D.E.F.G.H.i H h I.& - - J   ",
"J.K.L.M.N.C.C.O.P.8.m.Q.R.S.T.U.V.W.X.. - Y.Z.  ",
"  `. +.+++@+C.#+$+%+&+*+=+-+u 1.; ;+. >+,+'+)+  ",
"  !+~+{+]+^+/+(+_+:+:+<+[+}+|+- . % 1+2+3+4+    ",
"    6.5+6+:+7+8+9+0+a+b+c+. . d+e+f+g+          ",
"      k.h+h+:+i+).j+k+l+m+. n+o+p+q+            ",
"        ).h+r+h+s+t+u+& v+w+x+y+                ",
"                  z+A+B+C+D+                    ",
"                    E+F+                        ",
"                                                "};
