/* XPM */
static char * importstudy_xpm[] = {
"26 26 281 2",
"  	c None",
". 	c #F6F7F9",
"+ 	c #F7F7F9",
"@ 	c #EAEEF1",
"# 	c #D5DCE2",
"$ 	c #F5F6F9",
"% 	c #F5F6F8",
"& 	c #D8DEE5",
"* 	c #D6DDE3",
"= 	c #D7DDE4",
"- 	c #D7DEE4",
"; 	c #F5F7F9",
"> 	c #EFF1F3",
", 	c #F3F3F5",
"' 	c #D9DEE1",
") 	c #D6DDE4",
"! 	c #D7DEE3",
"~ 	c #E5E8EC",
"{ 	c #E2E7EC",
"] 	c #F4F5F7",
"^ 	c #EAEBEC",
"/ 	c #E3E3E4",
"( 	c #C5C5C5",
"_ 	c #B7B7B6",
": 	c #CFD1D3",
"< 	c #E1E6EA",
"[ 	c #F1F3F6",
"} 	c #D3DBE0",
"| 	c #EEF0F3",
"1 	c #E5E5E5",
"2 	c #ACACAC",
"3 	c #3C3C3C",
"4 	c #282828",
"5 	c #2B2B2B",
"6 	c #888C8E",
"7 	c #B3B4B5",
"8 	c #F0F0F2",
"9 	c #C7CED4",
"0 	c #DEE3E8",
"a 	c #F7F8FA",
"b 	c #F4F5F6",
"c 	c #979797",
"d 	c #3E3E3E",
"e 	c #747474",
"f 	c #606060",
"g 	c #616161",
"h 	c #6C6C6C",
"i 	c #454444",
"j 	c #3C3C3B",
"k 	c #8B8B8B",
"l 	c #D3DAE0",
"m 	c #EFF2F4",
"n 	c #DCDDDD",
"o 	c #515151",
"p 	c #7C7C7C",
"q 	c #676767",
"r 	c #5B5B5B",
"s 	c #818181",
"t 	c #737373",
"u 	c #686868",
"v 	c #3A3A3A",
"w 	c #9FA0A0",
"x 	c #FAFBFC",
"y 	c #C7CFD5",
"z 	c #DFE4E9",
"A 	c #FAFCFE",
"B 	c #A8A8A9",
"C 	c #414141",
"D 	c #727272",
"E 	c #787878",
"F 	c #878787",
"G 	c #444444",
"H 	c #8A8A8A",
"I 	c #9B9B9B",
"J 	c #404040",
"K 	c #363636",
"L 	c #D9D9DA",
"M 	c #F8F9FB",
"N 	c #F3F4F6",
"O 	c #D6DCE4",
"P 	c #EEF1F1",
"Q 	c #F7FBF9",
"R 	c #979798",
"S 	c #3C3B3D",
"T 	c #6E6E6F",
"U 	c #999999",
"V 	c #898989",
"W 	c #4E4E4E",
"X 	c #9F9F9F",
"Y 	c #8C8C8C",
"Z 	c #353535",
"` 	c #666666",
" .	c #96CF87",
"..	c #A2DA8F",
"+.	c #A8E391",
"@.	c #82B26E",
"#.	c #48693B",
"$.	c #646E5F",
"%.	c #817E82",
"&.	c #A4A4A5",
"*.	c #595959",
"=.	c #9D9D9D",
"-.	c #656565",
";.	c #474747",
">.	c #B4B5B5",
",.	c #60CB3A",
"'.	c #7FD647",
").	c #69CE3B",
"!.	c #63CD38",
"~.	c #60CB33",
"{.	c #64CF37",
"].	c #65C83C",
"^.	c #6ABB48",
"/.	c #85AB75",
"(.	c #A09EA0",
"_.	c #959595",
":.	c #4F4F4F",
"<.	c #9A9A9A",
"[.	c #6B6B6B",
"}.	c #585858",
"|.	c #7F7F7F",
"1.	c #F5F5F7",
"2.	c #62CC3B",
"3.	c #87D94B",
"4.	c #82D749",
"5.	c #68CE3E",
"6.	c #66CD3B",
"7.	c #90DB71",
"8.	c #85D763",
"9.	c #67CE3D",
"0.	c #68CE3F",
"a.	c #88BA75",
"b.	c #969796",
"c.	c #545454",
"d.	c #757575",
"e.	c #8D8D8D",
"f.	c #525252",
"g.	c #6F6F6F",
"h.	c #E6E7E8",
"i.	c #76D343",
"j.	c #9DE154",
"k.	c #6FD041",
"l.	c #67CD3D",
"m.	c #83D661",
"n.	c #F6FCF3",
"o.	c #C1EBB1",
"p.	c #69CE3F",
"q.	c #6ACE41",
"r.	c #6CCF43",
"s.	c #67CF3B",
"t.	c #93AF87",
"u.	c #7A797B",
"v.	c #858585",
"w.	c #848484",
"x.	c #767676",
"y.	c #383838",
"z.	c #E5E6E7",
"A.	c #9EE154",
"B.	c #6BCF3E",
"C.	c #74D24E",
"D.	c #E0F4D7",
"E.	c #FFFFFF",
"F.	c #E3F6DC",
"G.	c #A2E188",
"H.	c #B5E7A1",
"I.	c #CAEEBB",
"J.	c #8ADA6A",
"K.	c #6ECB48",
"L.	c #7B7D7B",
"M.	c #434344",
"N.	c #626262",
"O.	c #232323",
"P.	c #6CCF3F",
"Q.	c #8CDB4D",
"R.	c #9AE052",
"S.	c #70D045",
"T.	c #D5F1C9",
"U.	c #FEFEFE",
"V.	c #C4ECB4",
"W.	c #6AD13F",
"X.	c #77976B",
"Y.	c #676468",
"Z.	c #6E6E6E",
"`.	c #484848",
" +	c #535353",
".+	c #9FA09F",
"++	c #6ACF3F",
"@+	c #88D94B",
"#+	c #9EE253",
"$+	c #7AD451",
"%+	c #F7FCF4",
"&+	c #71D249",
"*+	c #6DAE53",
"=+	c #575259",
"-+	c #393939",
";+	c #DDDEDF",
">+	c #F3F5F7",
",+	c #E7EAED",
"'+	c #7AD445",
")+	c #ABE65A",
"!+	c #6FD03F",
"~+	c #82D75F",
"{+	c #F8FCF5",
"]+	c #C6ECB7",
"^+	c #BEEAAC",
"/+	c #E9F7E4",
"(+	c #75D34E",
"_+	c #5A9F3D",
":+	c #504A52",
"<+	c #DDDDDD",
"[+	c #E9EAEC",
"}+	c #EBEEF1",
"|+	c #D5DCE1",
"1+	c #C6CDD2",
"2+	c #6DD040",
"3+	c #98DF52",
"4+	c #8BDB4D",
"5+	c #65CC3B",
"6+	c #83D660",
"7+	c #EAF8E4",
"8+	c #ACE394",
"9+	c #5DCA30",
"0+	c #5FCB33",
"a+	c #5ECA31",
"b+	c #65CD3A",
"c+	c #90C978",
"d+	c #CAC5CD",
"e+	c #E1E1E3",
"f+	c #EDEDEF",
"g+	c #F7F9FB",
"h+	c #F4F6F8",
"i+	c #EDF0F2",
"j+	c #DBE0E6",
"k+	c #CCD3D9",
"l+	c #62CB3B",
"m+	c #72D141",
"n+	c #94DE51",
"o+	c #78D344",
"p+	c #63CC39",
"q+	c #E6F7DF",
"r+	c #C8EDB9",
"s+	c #62CC36",
"t+	c #62CC37",
"u+	c #DCEED7",
"v+	c #FDFCFF",
"w+	c #EDEFF3",
"x+	c #DDE2E6",
"y+	c #CFD5DB",
"z+	c #B9BFC5",
"A+	c #64CC3C",
"B+	c #6DCF40",
"C+	c #73D242",
"D+	c #65CD3B",
"E+	c #7AD355",
"F+	c #7CD457",
"G+	c #66CD3C",
"H+	c #5ECA30",
"I+	c #A6E090",
"J+	c #F8F8FC",
"K+	c #F1F3F5",
"L+	c #E0E5EA",
"M+	c #CDD3D9",
"N+	c #BEC5CA",
"O+	c #A2DE8A",
"P+	c #F1F5F2",
"Q+	c #E4E9ED",
"R+	c #D1D8DE",
"S+	c #B2B8BC",
"T+	c #67CE3E",
"U+	c #6CCB46",
"V+	c #B7D9B3",
"W+	c #F2F2F8",
"X+	c #F4F5F8",
"Y+	c #EAEDF1",
"Z+	c #D7DEE2",
"`+	c #C0C7CC",
" @	c #D1D3E1",
".@	c #DCE2E7",
"+@	c #D9DEE3",
"@@	c #C9D1D6",
"#@	c #C3C9CE",
"                                                    ",
"                    . + @ #                         ",
"              $ . % . . $ & * = -                   ",
"        . . . ; % . . > , ' ) ! * # ~               ",
"    { ] . . % . % ^ / ( _ : ) * < [ .               ",
"    } | . . . % 1 2 3 4 4 5 6 7 8 . % ]             ",
"    9 0 . % a b c d e f g h i j k ] . %             ",
"      l m . a n 5 o p q r s t u v w x %             ",
"      y z a A B C D E F G H I k J K L M N           ",
"        O P Q R S T U V W q X Y e Z ` ] %           ",
"         ...+.@.#.$.%.&.E *.Y =.q -.;.>.M ]         ",
"    ,.'.).!.~.{.].^./.(._.:.p <.Y [.}.|.1.%         ",
"  2.3.4.5.6.7.8.5.9.0.a.b.c.d.c e.u f.g.h.. ]       ",
"  i.j.k.l.m.n.o.p.q.r.s.t.u.g v.w.x.y.[.z.; %       ",
"  4.A.B.C.D.E.F.G.H.I.J.K.L.M.t H N.O.x., . % %     ",
"P.Q.R.S.T.E.U.E.E.E.E.V.W.X.Y.g Z.`. +.+1.. . %     ",
"++@+#+$+E.E.U.U.E.E.E.%+&+*+=+U Y -+F ;+. % . >+,+  ",
"  '+)+!+~+{+E.E.]+^+T./+(+_+:+f e.<+[+a % % }+|+1+  ",
"  2+3+4+5+6+7+E.8+9+0+a+b+c+d+e+f+g+a h+i+j+k+      ",
"  l+m+n+o+p+6+q+r+s+5.9.t+u+v+M a . w+x+y+z+        ",
"    A+B+C+l.D+E+F+G+5.H+I+J+. a K+L+M+N+            ",
"      l.5.l.5.l.l.9.b+O+P+. h+Q+R+S+                ",
"          T+5.T+5.U+V+W+X+Y+Z+`+                    ",
"                     @.@+@@@                        ",
"                      #@                            ",
"                                                    "};
