/* XPM */ 
static const char * length_xpm[] = {
"24 24 92 1",
" 	c None",
"!	c black",
"#	c white",
"$	c #92AE92",
"%	c #AED5AE",
"&	c #36B336",
"'	c #90CA90",
"(	c #A9D6A9",
")	c #09B009",
"*	c #17C017",
"+	c #B8D2B8",
",	c #9ED39E",
"-	c #00B100",
".	c #15C315",
"0	c #B3C5B3",
"1	c #EAF2EA",
"2	c #AAD2AA",
"3	c #00B200",
"4	c #07C307",
"5	c #00B800",
"6	c #6BC16B",
"7	c #F6F4F6",
"8	c #99AC99",
"9	c #2EB02E",
":	c #0CBA0C",
";	c #B7C7B7",
"<	c #54BD54",
"=	c #00B400",
">	c #6DC46D",
"?	c #FBF9FB",
"@	c #B6DFB6",
"A	c #C2DBC2",
"B	c #F0F0F0",
"C	c #53C253",
"D	c #70C270",
"E	c #F9F7F9",
"F	c #EFE8EF",
"G	c #51C451",
"H	c #72C172",
"I	c #FCF7FC",
"J	c #F1E4F1",
"K	c #55C455",
"L	c #00B300",
"M	c #77C077",
"N	c #FFFBFF",
"O	c #F0E0F0",
"P	c #54C454",
"Q	c #7CC27C",
"R	c #FAF9FA",
"S	c #D8D9D8",
"T	c #46BF46",
"U	c #83C383",
"V	c #FEFBFE",
"W	c #E4E6E4",
"X	c #40C140",
"Y	c #84C284",
"Z	c #E1D7E1",
"[	c #3BC43B",
"]	c #92C692",
"^	c #E7D2E7",
"_	c #44C444",
"`	c #04B704",
"a	c #61A061",
"b	c #D3CED3",
"c	c #E0D0E0",
"d	c #43C543",
"e	c #0DBF0D",
"f	c #6F9B6F",
"g	c #E8E8E8",
"h	c #36BE36",
"i	c #52B452",
"j	c #CDC9CD",
"k	c #3CC03C",
"l	c #10C310",
"m	c #16BE16",
"n	c #9BD39B",
"o	c #FFFAFF",
"p	c #A2BAA2",
"q	c #12C012",
"r	c #00B600",
"s	c #8FD08F",
"t	c #FFFCFF",
"u	c #AFCAAF",
"v	c #2AC02A",
"w	c #8AD78A",
"x	c #FFEEFF",
"y	c #98CA98",
"z	c #46BA46",
"{	c #97D097",
"|	c #FFF9FF",
"}	c #A8BBA8",
"~	c #FFF4FF",
"                        ",
"                        ",
"      #$                ",
"     #%&'               ",
"    #()*+               ",
"   #,-.0                ",
"  1234567               ",
"  89:;<=>?              ",
"   @A BC-DE             ",
"       FG-HI            ",
"        JKLMN           ",
"         OP=QR          ",
"          ST=UV         ",
"           WXLY?        ",
"            Z[-]        ",
"             ^_`a  b    ",
"              cdefghi   ",
"               jklm-no  ",
"                pqrst   ",
"               uv3wx    ",
"               yz{|     ",
"                }~      ",
"                        ",
"                        "};