/* XPM */ 
static const char * mip_xpm[] = {
"24 24 172 2",
"  	c None",
"! 	c black",
"# 	c #0A0A0A",
"$ 	c #101010",
"% 	c #353535",
"& 	c #4C4C4C",
"' 	c #545454",
"( 	c #575757",
") 	c #424242",
"* 	c #474747",
"+ 	c #555555",
", 	c #5B5B5B",
"- 	c #595959",
". 	c #3E3E3E",
"0 	c #090909",
"1 	c #010101",
"2 	c #161616",
"3 	c #4B4B4B",
"4 	c #585858",
"5 	c #646464",
"6 	c #666666",
"7 	c #6C6C6C",
"8 	c #5C5C5C",
"9 	c #5F5F5F",
": 	c #676767",
"; 	c #696969",
"< 	c #707070",
"= 	c #6E6E6E",
"> 	c #464646",
"? 	c #0D0D0D",
"@ 	c #020202",
"A 	c #7C7C7C",
"B 	c #B1B1B1",
"C 	c #828282",
"D 	c #606060",
"E 	c #5E5E5E",
"F 	c #636363",
"G 	c #626262",
"H 	c #616161",
"I 	c #A7A7A7",
"J 	c #040404",
"K 	c #1D1D1D",
"L 	c #C2C2C2",
"M 	c #CDCDCD",
"N 	c #979797",
"O 	c #7A7A7A",
"P 	c #6B6B6B",
"Q 	c #747474",
"R 	c #565656",
"S 	c #777777",
"T 	c #BABABA",
"U 	c #878787",
"V 	c #D5D5D5",
"W 	c #D2D2D2",
"X 	c #B6B6B6",
"Y 	c #B3B3B3",
"Z 	c #A8A8A8",
"[ 	c #AAAAAA",
"] 	c #989898",
"^ 	c #7D7D7D",
"_ 	c #7F7F7F",
"` 	c #C5C5C5",
"a 	c #E3E3E3",
"b 	c #2C2C2C",
"c 	c #141414",
"d 	c #969696",
"e 	c #EBEBEB",
"f 	c #CCCCCC",
"g 	c #ACACAC",
"h 	c #B2B2B2",
"i 	c #A6A6A6",
"j 	c #B0B0B0",
"k 	c #BBBBBB",
"l 	c #C7C7C7",
"m 	c #D6D6D6",
"n 	c #DADADA",
"o 	c #D1D1D1",
"p 	c #363636",
"q 	c #C8C8C8",
"r 	c #E6E6E6",
"s 	c #ABABAB",
"t 	c #A5A5A5",
"u 	c #A2A2A2",
"v 	c #AFAFAF",
"w 	c #A4A4A4",
"x 	c #BCBCBC",
"y 	c #CACACA",
"z 	c #CBCBCB",
"{ 	c #343434",
"| 	c #050505",
"} 	c #E7E7E7",
"~ 	c #DBDBDB",
" !	c #C4C4C4",
"!!	c #ADADAD",
"#!	c #9F9F9F",
"$!	c #9B9B9B",
"%!	c #A3A3A3",
"&!	c #AEAEAE",
"'!	c #BDBDBD",
"(!	c #D3D3D3",
")!	c #D0D0D0",
"*!	c #9E9E9E",
"+!	c #9D9D9D",
",!	c #B8B8B8",
"-!	c #CECECE",
".!	c #333333",
"0!	c #303030",
"1!	c #EDEDED",
"2!	c #B4B4B4",
"3!	c #868686",
"4!	c #909090",
"5!	c #A1A1A1",
"6!	c #DCDCDC",
"7!	c #C1C1C1",
"8!	c #292929",
"9!	c #0F0F0F",
":!	c #848484",
";!	c #E9E9E9",
"<!	c #BEBEBE",
"=!	c #B9B9B9",
">!	c #9A9A9A",
"?!	c #BFBFBF",
"@!	c #D4D4D4",
"A!	c #232323",
"B!	c #2D2D2D",
"C!	c #CFCFCF",
"D!	c #B5B5B5",
"E!	c #8F8F8F",
"F!	c #6D6D6D",
"G!	c #1C1C1C",
"H!	c #0C0C0C",
"I!	c #858585",
"J!	c #929292",
"K!	c #898989",
"L!	c #656565",
"M!	c #191919",
"N!	c #888888",
"O!	c #8A8A8A",
"P!	c #919191",
"Q!	c #939393",
"R!	c #7E7E7E",
"S!	c #181818",
"T!	c #111111",
"U!	c #A9A9A9",
"V!	c #8C8C8C",
"W!	c #A0A0A0",
"X!	c #8D8D8D",
"Y!	c #4D4D4D",
"Z!	c #2F2F2F",
"[!	c #1B1B1B",
"]!	c #8B8B8B",
"^!	c #9C9C9C",
"_!	c #838383",
"`!	c #323232",
"a!	c #4A4A4A",
"b!	c #2E2E2E",
"c!	c #444444",
"d!	c #505050",
"e!	c #686868",
"f!	c #030303",
"g!	c #1E1E1E",
"h!	c #C0C0C0",
"i!	c #D8D8D8",
"j!	c #959595",
"k!	c #070707",
"l!	c #171717",
"m!	c #272727",
"n!	c #F1F1F1",
"o!	c #D9D9D9",
"p!	c #525252",
"q!	c #0E0E0E",
"r!	c #1A1A1A",
"! ! ! ! # $ % & ' ( ) * + , ( ' - . 0 ! ! ! ! ! ",
"! ! 1 2 3 ) 4 5 6 7 8 9 6 6 : ; < = > ? ! ! ! ! ",
"@ ! ? A B C 7 D E F F F G 9 E H : A I 3 1 ! ! ! ",
"J ! K L M N O P < Q < : 8 ( R ' 9 S T U $ ! ! ! ",
"@ @ * V W X Y Z [ Y [ ] ^ ^ C _ ] ` a ` b ! ! ! ",
"! c d e f X X g I Y X h i j k k l m n o p ! ! ! ",
"! % q r ` s i t u v B Z w B k x L y o z { ! ! ! ",
"| 9 } ~  !!!#!$!u j !!w %!&!X Y '!q (!)!{ ! ! ! ",
"| 8 r ~ ` T Z *!t w +!*!%!t B Y ,!q (!-!.!! ! ! ",
"! 0!` 1!-!'!2!j &!N 3!4!$!5![ [ &!q 6!7!8!! ! ! ",
"! 9!:!;!-!<!=!h 2!Z >!+!5!w t i ?!~ @!#!A!! ! ! ",
"J ! B!L C!'!D!u *!X @!y I *![ <!6!o E!F!G!! ! ! ",
"@ ! H!I!y t d J!_ K! !B _ I!4!&! !u 6 L!M!! ! ! ",
"! ! ! { ?!w :!N!U 3!j +!C O!P!N d Q!P!R!S!! ! ! ",
"! ! ! T!] z $!$!U!!!k v >!V!J!W!X!P!h = H!! ! ! ",
"! ! ! @ Y!C!` U!j j v k <![ i j U!k W!Z!! ! ! ! ",
"! ! ! ! # 8 <!Z Q!*!W!5!x l '!?!C!r t [!! 1 ! ! ",
"! ! ! ! ! # Y!5 D ]!^!_!O!l C!y n ;!'!`!! ! ! ! ",
"! ! ! ! ! ! c . a!7 J!P!C #!T v Z n X b!! ! ! ! ",
"! ! ! ! ! ! # % c!d!_!i !!*!t _!e!q s S!! 1 ! ! ",
"! ! ! ! ! ! f!g!Z!. , I!B ` h!Z %!i!j!$ ! ! ! ! ",
"! ! ! ! ! ! ! @ k!l!m!`!' ^!7!6!n!o!p!f!! ! ! ! ",
"! ! ! ! ! ! ! ! ! 1 f!f!0 % 7 j <!7 q!! ! ! ! ! ",
"! ! ! ! ! ! ! ! ! ! ! ! ! ! k!S!r!| ! ! ! ! ! ! "};