/* XPM */ 
static const char * move_xpm[] = {
"28 28 126 2",
"  	c None",
"! 	c black",
"# 	c #445A7D",
"$ 	c #455A7A",
"% 	c #5B697F",
"& 	c #455F89",
"' 	c #434D5D",
"( 	c #373B43",
") 	c #405B85",
"* 	c #516B91",
"+ 	c #405C87",
", 	c #2C3136",
"- 	c #333437",
". 	c #446088",
"0 	c #4F6A93",
"1 	c #516C94",
"2 	c #506A93",
"3 	c #456188",
"4 	c #313536",
"5 	c #3F4347",
"6 	c #567198",
"7 	c #3C5B89",
"8 	c #536E96",
"9 	c #536E97",
": 	c #526E96",
"; 	c #577099",
"< 	c #393C40",
"= 	c #222A36",
"> 	c #1F2E44",
"? 	c #16253C",
"@ 	c #425E88",
"A 	c #546F98",
"B 	c #415D87",
"C 	c #0D1E37",
"D 	c #17283F",
"E 	c #1F2631",
"F 	c #333538",
"G 	c white",
"H 	c #3A547F",
"I 	c #53709B",
"J 	c #445E86",
"K 	c #222A37",
"L 	c #3A3D40",
"M 	c #2C3032",
"N 	c #4F6488",
"O 	c #1E2D43",
"P 	c #3E5983",
"Q 	c #55729D",
"R 	c #54729D",
"S 	c #516A8F",
"T 	c #1F2F46",
"U 	c #4E6689",
"V 	c #303034",
"W 	c #2F3439",
"X 	c #425C7F",
"Y 	c #3B5A88",
"Z 	c #162337",
"[ 	c #5774A0",
"] 	c #415C85",
"^ 	c #3C5A88",
"_ 	c #425A80",
"` 	c #3A3E46",
"a 	c #454F5F",
"b 	c #3E5881",
"c 	c #435F89",
"d 	c #3E5A87",
"e 	c #415F8D",
"f 	c #41608D",
"g 	c #47689B",
"h 	c #456695",
"i 	c #3D5983",
"j 	c #3B5982",
"k 	c #3A5680",
"l 	c #435F8A",
"m 	c #3F5A82",
"n 	c #5D6B81",
"o 	c #435A79",
"p 	c #445F88",
"q 	c #516A92",
"r 	c #536F98",
"s 	c #55729E",
"t 	c #5876A2",
"u 	c #57749F",
"v 	c #456088",
"w 	c #43597C",
"x 	c #56739F",
"y 	c #435F88",
"z 	c #3E5A88",
"{ 	c #415F8E",
"| 	c #47689C",
"} 	c #5775A1",
"~ 	c #466696",
" !	c #3F5A84",
"!!	c #405E8B",
"#!	c #5A79A6",
"$!	c #405D8B",
"%!	c #2F3034",
"&!	c #1E2E45",
"'!	c #41608E",
"(!	c #1C2C43",
")!	c #383B3E",
"*!	c #202936",
"+!	c #3D5A86",
",!	c #282E37",
"-!	c #313336",
".!	c #202834",
"0!	c #425E87",
"1!	c #1C2B42",
"2!	c #3B3F46",
"3!	c #3C4045",
"4!	c #536D95",
"5!	c #3D5B89",
"6!	c #4F6C94",
"7!	c #4A4C4F",
"8!	c #404347",
"9!	c #46628A",
":!	c #456089",
";!	c #42464A",
"<!	c #4E555E",
"=!	c #425C88",
">!	c #405C86",
"?!	c #585F6A",
"@!	c #526077",
"A!	c #687993",
"B!	c #4A6287",
"C!	c #486085",
"                                                        ",
"                                                        ",
"                                                        ",
"                          # $                           ",
"                        % & & '                         ",
"                      ( ) * * + ,                       ",
"                    - . 0 1 1 2 3 4                     ",
"                  5 6 7 8 9 9 : 7 ; <                   ",
"                  = > ? @ A A B C D E                   ",
"              F E G G G H I I J G G G K L               ",
"            M N O G G G P Q R S G G G T U V             ",
"          W X Y Z G G G P [ [ ] G G G Z ^ _ `           ",
"        a b 0 : c d e f g [ [ h i j k l 8 0 m n         ",
"      o p q 1 9 r s [ [ [ [ [ t u Q I A 9 1 q v w       ",
"      w v q 1 9 r s [ [ [ [ [ [ [ x I A 9 1 q p o       ",
"        n m 0 8 y z { e | [ } ~  !i k l : 0 b a         ",
"          ` _ ^ Z G G G !![ #!$!G G G Z Y X W           ",
"            %!U &!G G G f [ [ '!G G G (!N M             ",
"              )!*!G G G +!s s +!G G G ,!-!              ",
"                  .!> ? 0!r r 0!? 1!2!                  ",
"                  3!4!5!: 9 9 8 5!6!7!                  ",
"                    8!9!2 1 1 0 :!;!                    ",
"                      <!=!* * >!?!                      ",
"                        @!& & A!                        ",
"                          B!C!                          ",
"                                                        ",
"                                                        ",
"                                                        "};