/* XPM */
static char * muscle_xpm[] = {
"28 28 375 2",
"  	c None",
". 	c #815C3A",
"+ 	c #89623F",
"@ 	c #825A36",
"# 	c #845D38",
"$ 	c #855E3B",
"% 	c #7E5735",
"& 	c #775334",
"* 	c #8D6745",
"= 	c #9A7350",
"- 	c #A17955",
"; 	c #A17A55",
"> 	c #A77E58",
", 	c #9B7148",
"' 	c #9F7550",
") 	c #966C47",
"! 	c #8F6641",
"~ 	c #825B37",
"{ 	c #87623F",
"] 	c #A07A56",
"^ 	c #B68E6D",
"/ 	c #BF9875",
"( 	c #BE926A",
"_ 	c #C2966E",
": 	c #BF9167",
"< 	c #C59464",
"[ 	c #C89B72",
"} 	c #BC9068",
"| 	c #BE9471",
"1 	c #AA805B",
"2 	c #916B47",
"3 	c #7C542F",
"4 	c #906941",
"5 	c #AD8460",
"6 	c #C79E7A",
"7 	c #D5AB88",
"8 	c #D6AA83",
"9 	c #DBAE84",
"0 	c #DFB086",
"a 	c #E5B589",
"b 	c #E2B185",
"c 	c #D6A87F",
"d 	c #D7AA85",
"e 	c #E2B99A",
"f 	c #DEB392",
"g 	c #BA926F",
"h 	c #9B7452",
"i 	c #805832",
"j 	c #85603A",
"k 	c #AA835D",
"l 	c #D1A786",
"m 	c #E5BC9B",
"n 	c #E7BB95",
"o 	c #E4B689",
"p 	c #F7D3AD",
"q 	c #FFE1BF",
"r 	c #F2C49B",
"s 	c #ECC29A",
"t 	c #DFB48C",
"u 	c #E3B793",
"v 	c #EAC0A3",
"w 	c #D8AA83",
"x 	c #CBA181",
"y 	c #B48B69",
"z 	c #916945",
"A 	c #97724E",
"B 	c #C19670",
"C 	c #EBC09F",
"D 	c #F9D1B1",
"E 	c #FAD6B4",
"F 	c #F6D5B0",
"G 	c #FFE2B5",
"H 	c #EFCBA2",
"I 	c #DDAC7C",
"J 	c #F4C697",
"K 	c #D9A878",
"L 	c #E3B187",
"M 	c #D3A37B",
"N 	c #D1A37D",
"O 	c #CEA588",
"P 	c #BB9478",
"Q 	c #A27B5A",
"R 	c #724C2B",
"S 	c #9B7550",
"T 	c #B7885F",
"U 	c #E1B188",
"V 	c #FDD7B5",
"W 	c #FCDEBE",
"X 	c #F1CFA5",
"Y 	c #E3B47F",
"Z 	c #EFBA81",
"` 	c #EFB274",
" .	c #F6BB82",
"..	c #EAAE76",
"+.	c #CD9663",
"@.	c #C49263",
"#.	c #E3B897",
"$.	c #CA9C7A",
"%.	c #B99071",
"&.	c #A37B5A",
"*.	c #7A5332",
"=.	c #A17850",
"-.	c #BC8E67",
";.	c #DDB089",
">.	c #FBD5B7",
",.	c #FCE6CD",
"'.	c #E4BB90",
").	c #EBB47C",
"!.	c #E7A666",
"~.	c #DC9C5D",
"{.	c #DB9B5E",
"].	c #F1B072",
"^.	c #E3A567",
"/.	c #C8966B",
"(.	c #EDC5A8",
"_.	c #D6AE8F",
":.	c #BC9371",
"<.	c #A27957",
"[.	c #885E37",
"}.	c #6F4C2B",
"|.	c #A57951",
"1.	c #C0936D",
"2.	c #DCB18F",
"3.	c #FCD6B7",
"4.	c #EDC298",
"5.	c #DAA471",
"6.	c #E1A060",
"7.	c #CD9053",
"8.	c #B77D48",
"9.	c #C58A4F",
"0.	c #DFA166",
"a.	c #DD9F60",
"b.	c #D5A57A",
"c.	c #E4B690",
"d.	c #D6AE8E",
"e.	c #B99172",
"f.	c #997150",
"g.	c #8A5E35",
"h.	c #7E532F",
"i.	c #865E3F",
"j.	c #B89172",
"k.	c #F0C49F",
"l.	c #C39160",
"m.	c #BB824A",
"n.	c #BB8048",
"o.	c #B57B44",
"p.	c #B17843",
"q.	c #B27947",
"r.	c #CD8E56",
"s.	c #CB8E52",
"t.	c #D29B6C",
"u.	c #E2B187",
"v.	c #C59872",
"w.	c #A97E5A",
"x.	c #916642",
"y.	c #8A5D32",
"z.	c #8C623B",
"A.	c #6D4725",
"B.	c #946840",
"C.	c #B4865D",
"D.	c #C9976B",
"E.	c #9F6B3A",
"F.	c #9C6A39",
"G.	c #A26E3C",
"H.	c #A87240",
"I.	c #BF834F",
"J.	c #BF8550",
"K.	c #B47C47",
"L.	c #BB814C",
"M.	c #B58050",
"N.	c #BA844F",
"O.	c #A37145",
"P.	c #8B5F38",
"Q.	c #83562C",
"R.	c #DEAB7A",
"S.	c #AD7F52",
"T.	c #C88D4F",
"U.	c #BF874F",
"V.	c #BB8B5F",
"W.	c #B17E52",
"X.	c #986538",
"Y.	c #B77E47",
"Z.	c #A87440",
"`.	c #AB7542",
" +	c #C1854F",
".+	c #BF844B",
"++	c #A3703F",
"@+	c #AF7947",
"#+	c #B48153",
"$+	c #99683B",
"%+	c #8A5C32",
"&+	c #7C5329",
"*+	c #E8B98B",
"=+	c #F7CBA2",
"-+	c #B5895D",
";+	c #8C5F30",
">+	c #B67E44",
",+	c #AD815B",
"'+	c #CCA07D",
")+	c #A16D3E",
"!+	c #C1864B",
"~+	c #B07945",
"{+	c #A67749",
"]+	c #AF7A45",
"^+	c #B17A44",
"/+	c #8C5E32",
"(+	c #A47245",
"_+	c #B5804C",
":+	c #9A693A",
"<+	c #84582E",
"[+	c #734C26",
"}+	c #815830",
"|+	c #CB9664",
"1+	c #E4B78B",
"2+	c #B7895A",
"3+	c #845930",
"4+	c #926741",
"5+	c #D8BCA3",
"6+	c #F0D9BF",
"7+	c #C29B78",
"8+	c #C29567",
"9+	c #B5875A",
"0+	c #9F754D",
"a+	c #8D643C",
"b+	c #835830",
"c+	c #946336",
"d+	c #916335",
"e+	c #B17B45",
"f+	c #996738",
"g+	c #B17A43",
"h+	c #AE7741",
"i+	c #BA8552",
"j+	c #A9794B",
"k+	c #8A5E34",
"l+	c #9F7853",
"m+	c #EFD0BA",
"n+	c #FFF1E0",
"o+	c #FAE0C6",
"p+	c #C3A081",
"q+	c #A47D57",
"r+	c #865F3C",
"s+	c #9E6E42",
"t+	c #9A6938",
"u+	c #D29355",
"v+	c #AD7840",
"w+	c #BB834A",
"x+	c #906235",
"y+	c #80562C",
"z+	c #7A522C",
"A+	c #B78047",
"B+	c #B88047",
"C+	c #B07942",
"D+	c #A87444",
"E+	c #A37040",
"F+	c #8A633D",
"G+	c #B7916F",
"H+	c #DCB18A",
"I+	c #B8895D",
"J+	c #BB8249",
"K+	c #A16C39",
"L+	c #9A714B",
"M+	c #AA7F58",
"N+	c #986738",
"O+	c #8C5F32",
"P+	c #A4713E",
"Q+	c #744C27",
"R+	c #80572D",
"S+	c #976634",
"T+	c #906133",
"U+	c #A06F3F",
"V+	c #976A3C",
"W+	c #926336",
"X+	c #9C6839",
"Y+	c #C4894E",
"Z+	c #A46E3D",
"`+	c #BB814A",
" @	c #BF9978",
".@	c #AF8357",
"+@	c #A4703D",
"@@	c #936336",
"#@	c #80532C",
"$@	c #764D27",
"%@	c #926334",
"&@	c #BD8248",
"*@	c #A7713E",
"=@	c #A46E3C",
"-@	c #C98D51",
";@	c #C2874D",
">@	c #B87F47",
",@	c #9A6E48",
"'@	c #AE8157",
")@	c #BD844B",
"!@	c #B37C45",
"~@	c #9A6739",
"{@	c #6A4423",
"]@	c #784E27",
"^@	c #966635",
"/@	c #996B3F",
"(@	c #A67341",
"_@	c #AD7843",
":@	c #9D6B3B",
"<@	c #976537",
"[@	c #B37C44",
"}@	c #D8995A",
"|@	c #C1864A",
"1@	c #9E6C3C",
"2@	c #A07144",
"3@	c #996938",
"4@	c #D39556",
"5@	c #88582E",
"6@	c #694322",
"7@	c #6D4724",
"8@	c #82552D",
"9@	c #93663D",
"0@	c #936438",
"a@	c #AD7842",
"b@	c #9B6838",
"c@	c #A2754B",
"d@	c #AC7A4A",
"e@	c #B37B41",
"f@	c #906236",
"g@	c #78512C",
"h@	c #A7733F",
"i@	c #B67F47",
"j@	c #784C27",
"k@	c #80532B",
"l@	c #714927",
"m@	c #9F6B3B",
"n@	c #9A6838",
"o@	c #CC9054",
"p@	c #A57447",
"q@	c #B38556",
"r@	c #BA8957",
"s@	c #9F6C3B",
"t@	c #77502A",
"u@	c #936437",
"v@	c #D79857",
"w@	c #8B5C30",
"x@	c #88592F",
"y@	c #7D5230",
"z@	c #97683E",
"A@	c #A47448",
"B@	c #D69B5E",
"C@	c #D6A67C",
"D@	c #D0A277",
"E@	c #885C31",
"F@	c #916336",
"G@	c #7C522C",
"H@	c #B57F47",
"I@	c #A6723D",
"J@	c #8A5B31",
"K@	c #AE7740",
"L@	c #895B2F",
"M@	c #7A5433",
"N@	c #986D44",
"O@	c #AC8460",
"P@	c #99775B",
"Q@	c #7E5631",
"R@	c #8F6033",
"S@	c #9E6B3B",
"T@	c #784D2A",
"U@	c #A36F3D",
"V@	c #C1854C",
"W@	c #986537",
"X@	c #986437",
"Y@	c #AD7641",
"Z@	c #B57D44",
"`@	c #936433",
" #	c #956639",
".#	c #A6703F",
"+#	c #8E5E33",
"@#	c #976437",
"##	c #BB7F49",
"$#	c #B27B46",
"%#	c #6E4825",
"                                                        ",
"                                                        ",
"                        . + @ # $ %                     ",
"                  & * = - ; > , ' ) ! ~                 ",
"                { ] ^ / ( _ : < [ } | 1 2 3             ",
"              4 5 6 7 8 9 0 a b c d e f g h i           ",
"            j k l m n o p q r s t u v w x y z           ",
"            A B C D E F G H I J K L M N O P Q R         ",
"            S T U V W X Y Z `  ...+.@.#.$.%.&.*.        ",
"            =.-.;.>.,.'.).!.~.{.].^./.(._.:.<.[.        ",
"          }.|.1.2.3.4.5.6.7.8.9.0.a.b.c.d.e.f.g.        ",
"            h.i.j.k.l.m.n.o.p.q.r.s.t.u.v.w.x.y.        ",
"            z.A.B.C.D.E.F.G.H.I.J.K.L.M.N.O.P.Q.        ",
"            R.S.T.U.V.W.X.Y.Z.`. +.+++@+#+$+%+&+        ",
"          *+=+-+;+>+,+'+)+!+~+{+]+^+/+(+_+:+<+[+        ",
"        }+|+1+2+3+4+5+6+7+8+9+0+a+b+c+d+e+f+<+          ",
"        g+h+i+j+k+l+m+n+o+p+q+r+s+t+u+v+w+x+y+          ",
"      z+A+B+C+D+E+F+G+H+I+J+K+L+M+<+N+O+P+/+Q+          ",
"          R+S+T+U+V+W+X+Y+Z+`+ @.@+@@@:+#@$@            ",
"            %@t+`.&@*@=@-@;@>@,@'@)@!@~@{@]@            ",
"            ^@/@(@_@:@<@[@}@|@1@2@3@4@5@6@7@            ",
"            8@9@0@a@b@c@d@!+e@f@g@h@i@j@k@              ",
"            l@m@n@o@p@q@r@s@f+t@u@v@w@x@k@              ",
"            y@z@A@B@C@D@1 E@F@G@H@I@J@K@L@              ",
"              M@N@O@P@Q@R@S@T@U@V@W@X@Y@Z@`@            ",
"                               #.#+#@###$#%#            ",
"                                                        ",
"                                                        "};
