/* XPM */
static char * neighborhoodconnected_xpm[] = {
"24 24 40 1",
" 	c None",
".	c #000000",
"+	c #D0D0D0",
"@	c #5B5B5B",
"#	c #A0A0A0",
"$	c #666666",
"%	c #A4A4A4",
"&	c #151515",
"*	c #FEFEFE",
"=	c #CDCDCD",
"-	c #808080",
";	c #CFCFCF",
">	c #F7F7F7",
",	c #515151",
"'	c #6F6F6F",
")	c #F1F1F1",
"!	c #D1D1D1",
"~	c #757575",
"{	c #747474",
"]	c #E5E5E5",
"^	c #2B2B2B",
"/	c #232323",
"(	c #373737",
"_	c #FCFCFC",
":	c #171717",
"<	c #494949",
"[	c #F2F2F2",
"}	c #F4F4F4",
"|	c #EEEEEE",
"1	c #2F2F2F",
"2	c #F3F3F3",
"3	c #BEBEBE",
"4	c #B1B1B1",
"5	c #929292",
"6	c #B6B6B6",
"7	c #303030",
"8	c #A1A1A1",
"9	c #CBCBCB",
"0	c #FDFDFD",
"a	c #F6F6F6",
"                        ",
"                        ",
"                        ",
"          .             ",
"         .+. ..         ",
"       @.#. .$%.        ",
"       &**.  .*=. .     ",
"      .-**;. .*>..,.    ",
"     ')**!~. >**.{].    ",
"     .^**..  ./**..     ",
"    .(_**.    .****:    ",
"   .<****.    .****.    ",
"    .[**>. .. .* }|}.   ",
"      .*. .**..12...    ",
"     .3*..  .4..**      ",
"     .**=*.  .5**6.     ",
"      .**.    .78.      ",
"       .*..   .92.      ",
"        .0*.    .       ",
"         .a.            ",
"          .             ",
"                        ",
"                        ",
"                        "};
