/* XPM */ 
static const char * neighborhoodconnected_xpm[] = {
"24 24 49 1",
" 	c None",
"!	c black",
"#	c #D0D0D0",
"$	c #5B5B5B",
"%	c #A0A0A0",
"&	c #666666",
"'	c #A4A4A4",
"(	c #121212",
")	c #151515",
"*	c #FEFEFE",
"+	c #CDCDCD",
",	c #808080",
"-	c #CFCFCF",
".	c #0D0D0D",
"0	c #F7F7F7",
"1	c #515151",
"2	c #6F6F6F",
"3	c #F1F1F1",
"4	c #D1D1D1",
"5	c #757575",
"6	c #050505",
"7	c #747474",
"8	c #E5E5E5",
"9	c #2B2B2B",
":	c #232323",
";	c #373737",
"<	c #FCFCFC",
"=	c #171717",
">	c #494949",
"?	c #F2F2F2",
"@	c #F4F4F4",
"A	c #EEEEEE",
"B	c #010101",
"C	c #2F2F2F",
"D	c #F3F3F3",
"E	c #BEBEBE",
"F	c #040404",
"G	c #B1B1B1",
"H	c #060606",
"I	c #929292",
"J	c #B6B6B6",
"K	c #303030",
"L	c #A1A1A1",
"M	c #0A0A0A",
"N	c #CBCBCB",
"O	c #030303",
"P	c #FDFDFD",
"Q	c #080808",
"R	c #F6F6F6",
"!!!!!!!!!!!!!!!!!!!!!!!!",
"!!!!!!!!!!!!!!!!!!!!!!!!",
"!!!!!!!!!!!!!!!!!!!!!!!!",
"!!!!!!!!!!!!!!!!!!!!!!!!",
"!!!!!!!!!!#!!!!!!!!!!!!!",
"!!!!!!!$!%!!!&'(!!!!!!!!",
"!!!!!!!)**!!!!*+!!!!!!!!",
"!!!!!!!,**-!!.*0!!1!!!!!",
"!!!!!23**45!!0**678!!!!!",
"!!!!!!9**!!!!!:**!!!!!!!",
"!!!!!;<**!!!!!!****=!!!!",
"!!!!>****!!!!!!****!!!!!",
"!!!!!?**0!!!!!!*!@A@!!!!",
"!!!!B!!*!!!**!!CD!!!!!!!",
"!!!!!!E*!!F!!G!!**!!!!!!",
"!!!!!!**+*6!!HI**J6!!!!!",
"!!!!!!!**!!!!!!KL!!!!!!!",
"!!!!!!!M*!!!!!!ND!!!!!!!",
"!!!!!!!O!P*!!!!!!!!!!!!!",
"!!!!!!!!!QR!!!!!!!!!!!!!",
"!!!!!!!!!!!!!!!!!!!!!!!!",
"!!!!!!!!!!!!!!!!!!!!!!!!",
"!!!!!!!!!!!!!!!!!!!!!!!!",
"!!!!!!!!!!!!!!!!!!!!!!!!"};