/* XPM */
static char * oppositesagittal_xpm[] = {
"25 25 164 2",
"  	c None",
". 	c #080808",
"+ 	c #090909",
"@ 	c #070707",
"# 	c #060606",
"$ 	c #000000",
"% 	c #050505",
"& 	c #040404",
"* 	c #0A0A0A",
"= 	c #0B0B0B",
"- 	c #151515",
"; 	c #292929",
"> 	c #3F3F3F",
", 	c #4E4E4E",
"' 	c #515151",
") 	c #545454",
"! 	c #535353",
"~ 	c #494949",
"{ 	c #363636",
"] 	c #1B1B1B",
"^ 	c #121212",
"/ 	c #454545",
"( 	c #646464",
"_ 	c #5B5B5B",
": 	c #525252",
"< 	c #464646",
"[ 	c #404040",
"} 	c #3A3A3A",
"| 	c #424242",
"1 	c #4D4D4D",
"2 	c #5F5F5F",
"3 	c #666666",
"4 	c #0D0D0D",
"5 	c #636363",
"6 	c #6B6B6B",
"7 	c #3C3C3C",
"8 	c #383838",
"9 	c #6D6D6D",
"0 	c #6F6F6F",
"a 	c #565656",
"b 	c #393939",
"c 	c #3B3B3B",
"d 	c #575757",
"e 	c #484848",
"f 	c #444444",
"g 	c #6A6A6A",
"h 	c #333333",
"i 	c #717171",
"j 	c #999999",
"k 	c #929292",
"l 	c #9B9B9B",
"m 	c #878787",
"n 	c #8D8D8D",
"o 	c #959595",
"p 	c #7B7B7B",
"q 	c #656565",
"r 	c #030303",
"s 	c #0C0C0C",
"t 	c #1F1F1F",
"u 	c #434343",
"v 	c #767676",
"w 	c #8E8E8E",
"x 	c #AAAAAA",
"y 	c #989898",
"z 	c #888888",
"A 	c #868686",
"B 	c #828282",
"C 	c #808080",
"D 	c #7A7A7A",
"E 	c #4A4A4A",
"F 	c #373737",
"G 	c #848484",
"H 	c #818181",
"I 	c #838383",
"J 	c #9C9C9C",
"K 	c #A2A2A2",
"L 	c #909090",
"M 	c #747474",
"N 	c #787878",
"O 	c #5D5D5D",
"P 	c #2E2E2E",
"Q 	c #282828",
"R 	c #5E5E5E",
"S 	c #949494",
"T 	c #8B8B8B",
"U 	c #858585",
"V 	c #9F9F9F",
"W 	c #A1A1A1",
"X 	c #7C7C7C",
"Y 	c #737373",
"Z 	c #686868",
"` 	c #212121",
" .	c #343434",
"..	c #181818",
"+.	c #A5A5A5",
"@.	c #A7A7A7",
"#.	c #7F7F7F",
"$.	c #727272",
"%.	c #919191",
"&.	c #979797",
"*.	c #757575",
"=.	c #797979",
"-.	c #262626",
";.	c #232323",
">.	c #474747",
",.	c #414141",
"'.	c #8C8C8C",
").	c #B7B7B7",
"!.	c #9E9E9E",
"~.	c #111111",
"{.	c #2F2F2F",
"].	c #272727",
"^.	c #505050",
"/.	c #777777",
"(.	c #898989",
"_.	c #8A8A8A",
":.	c #1E1E1E",
"<.	c #202020",
"[.	c #0F0F0F",
"}.	c #595959",
"|.	c #676767",
"1.	c #9A9A9A",
"2.	c #1A1A1A",
"3.	c #313131",
"4.	c #606060",
"5.	c #8F8F8F",
"6.	c #7D7D7D",
"7.	c #191919",
"8.	c #161616",
"9.	c #010101",
"0.	c #0E0E0E",
"a.	c #101010",
"b.	c #5C5C5C",
"c.	c #939393",
"d.	c #4B4B4B",
"e.	c #3D3D3D",
"f.	c #616161",
"g.	c #5A5A5A",
"h.	c #242424",
"i.	c #4F4F4F",
"j.	c #3E3E3E",
"k.	c #707070",
"l.	c #141414",
"m.	c #2D2D2D",
"n.	c #4C4C4C",
"o.	c #7E7E7E",
"p.	c #B1B1B1",
"q.	c #9D9D9D",
"r.	c #6C6C6C",
"s.	c #1C1C1C",
"t.	c #252525",
"u.	c #A4A4A4",
"v.	c #696969",
"w.	c #555555",
"x.	c #1D1D1D",
"y.	c #BABABA",
"z.	c #353535",
"A.	c #C6C6C6",
"B.	c #626262",
"C.	c #B0B0B0",
"D.	c #131313",
"E.	c #2A2A2A",
"F.	c #171717",
"G.	c #020202",
". . + . + + @ . @ # @ @ @ # # # @ @ + . + . @ + $ ",
"+ @ @ . @ % & & % # . * = + . & % # + @ . . . + $ ",
"+ . @ + # # - ; > , ' ) ) ! ~ { ] # @ + + . . + $ ",
"+ + . # ^ / ( _ ! : < [ } | 1 2 3 / 4 # * + * * $ ",
"* * . - 5 6 7 8 1 1 3 9 0 ( a b c d e * @ . + = $ ",
"= * . f g h ~ i j k l m m n o p q 7 ' 7 r . . s $ ",
"+ + t 5 } u v w x y z m A B C D B 0 E E ^ % . = $ ",
"+ @ F ' F C G H w I J K J j L m M N O P Q r + = $ ",
". s , { R S T B U V W X 6 C j S B Y Z `  .^ . = $ ",
"# ..! h M n L U +.@.G #.X $.%.&.*.*.=.` ; -.@ = $ ",
"% ;.>.,.G '.X %.).J #.j !.U '.z p 9 < ~. .{.. . $ ",
"# ].E ^.k S I /.(.g _.J X g g d f ` :.<.} F [.+ $ ",
"= -.}.|.S (._.=./.g S 1.( | Q ~.2...c / ~ f 3.[.$ ",
"s ] q 4.'.5.6.p L G j l _ 7.@ 8.f { | _ : c < b 9.",
"0.a.b.! _ X z L m $.c.M _ d.Q e.}.R a ( ( {.} 5 r ",
"4 = } 1 ;.i %.I #.S _.~ _ 2 3.8 b.*.f.R g._ 2 } 9.",
"0.s h.5 c i.D 0 ( p 4.> M *...7.( ^.i.d.j.k.Z l.$ ",
"s * - =.o 3 /.g.u / m.n.X 5 F o.(./.v $.~ b O :.$ ",
"= 4 + n.p.A %.l q.I {.d.0 b.r.J 6.H v U p n.~ s.$ ",
"s 0.. t.u.l k.S 5.(.f / : g.R I B H i B v.R w.x.$ ",
"4 4 + ~.T y.D 5.c.N d >.d q 4.L X p v *.2 v.z.0.$ ",
"0.a.4 . q A.B G p.w Z a ) f.: %.m #.p M B.Y < 0.$ ",
"^ a.0.+ [ C._./.'.v v 5 _ |.{.>.o.D /.M w.B.7 D.$ ",
"8.a.s + ].c.(.*.=.Y $.a ! 4.{ E.R p q.k U i.F.l.$ ",
"$ $ $ $ 9.& & r r r r G.G.r 9.9.G.& % & & G.$ $ $ "};
