/* XPM */
static char * oppositesagittal_xpm[] = {
"25 25 137 2",
"  	c None",
". 	c #292929",
"+ 	c #3F3F3F",
"@ 	c #4E4E4E",
"# 	c #515151",
"$ 	c #545454",
"% 	c #535353",
"& 	c #494949",
"* 	c #363636",
"= 	c #454545",
"- 	c #646464",
"; 	c #5B5B5B",
"> 	c #525252",
", 	c #464646",
"' 	c #404040",
") 	c #3A3A3A",
"! 	c #424242",
"~ 	c #4D4D4D",
"{ 	c #5F5F5F",
"] 	c #666666",
"^ 	c #636363",
"/ 	c #6B6B6B",
"( 	c #3C3C3C",
"_ 	c #383838",
": 	c #6D6D6D",
"< 	c #6F6F6F",
"[ 	c #565656",
"} 	c #393939",
"| 	c #3B3B3B",
"1 	c #575757",
"2 	c #484848",
"3 	c #444444",
"4 	c #6A6A6A",
"5 	c #333333",
"6 	c #717171",
"7 	c #999999",
"8 	c #929292",
"9 	c #9B9B9B",
"0 	c #878787",
"a 	c #8D8D8D",
"b 	c #959595",
"c 	c #7B7B7B",
"d 	c #656565",
"e 	c #1F1F1F",
"f 	c #434343",
"g 	c #767676",
"h 	c #8E8E8E",
"i 	c #AAAAAA",
"j 	c #989898",
"k 	c #888888",
"l 	c #868686",
"m 	c #828282",
"n 	c #808080",
"o 	c #7A7A7A",
"p 	c #4A4A4A",
"q 	c #373737",
"r 	c #848484",
"s 	c #818181",
"t 	c #838383",
"u 	c #9C9C9C",
"v 	c #A2A2A2",
"w 	c #909090",
"x 	c #747474",
"y 	c #787878",
"z 	c #5D5D5D",
"A 	c #2E2E2E",
"B 	c #282828",
"C 	c #5E5E5E",
"D 	c #949494",
"E 	c #8B8B8B",
"F 	c #858585",
"G 	c #9F9F9F",
"H 	c #A1A1A1",
"I 	c #7C7C7C",
"J 	c #737373",
"K 	c #686868",
"L 	c #212121",
"M 	c #343434",
"N 	c #A5A5A5",
"O 	c #A7A7A7",
"P 	c #7F7F7F",
"Q 	c #727272",
"R 	c #919191",
"S 	c #979797",
"T 	c #757575",
"U 	c #797979",
"V 	c #262626",
"W 	c #232323",
"X 	c #474747",
"Y 	c #414141",
"Z 	c #8C8C8C",
"` 	c #B7B7B7",
" .	c #9E9E9E",
"..	c #000000",
"+.	c #2F2F2F",
"@.	c #272727",
"#.	c #505050",
"$.	c #777777",
"%.	c #898989",
"&.	c #8A8A8A",
"*.	c #1E1E1E",
"=.	c #202020",
"-.	c #595959",
";.	c #676767",
">.	c #9A9A9A",
",.	c #313131",
"'.	c #606060",
").	c #8F8F8F",
"!.	c #7D7D7D",
"~.	c #5C5C5C",
"{.	c #939393",
"].	c #4B4B4B",
"^.	c #3D3D3D",
"/.	c #616161",
"(.	c #5A5A5A",
"_.	c #242424",
":.	c #4F4F4F",
"<.	c #3E3E3E",
"[.	c #707070",
"}.	c #2D2D2D",
"|.	c #4C4C4C",
"1.	c #7E7E7E",
"2.	c #B1B1B1",
"3.	c #9D9D9D",
"4.	c #6C6C6C",
"5.	c #1C1C1C",
"6.	c #252525",
"7.	c #A4A4A4",
"8.	c #696969",
"9.	c #555555",
"0.	c #1D1D1D",
"a.	c #BABABA",
"b.	c #353535",
"c.	c #C6C6C6",
"d.	c #626262",
"e.	c #B0B0B0",
"f.	c #2A2A2A",
"                                                  ",
"                                                  ",
"              . + @ # $ $ % & *                   ",
"          = - ; % > , ' ) ! ~ { ] =               ",
"        ^ / ( _ ~ ~ ] : < - [ } | 1 2             ",
"      3 4 5 & 6 7 8 9 0 0 a b c d ( # (           ",
"    e ^ ) f g h i j k 0 l m n o m < p p           ",
"    q # q n r s h t u v u 7 w 0 x y z A B         ",
"    @ * C D E m F G H I / n 7 D m J K L M         ",
"    % 5 x a w F N O r P I Q R S T T U L . V       ",
"  W X Y r Z I R ` u P 7  .F Z k c : , ..M +.      ",
"  @.p #.8 D t $.%.4 &.u I 4 4 1 3 L *.=.) q       ",
"  V -.;.D %.&.U $.4 D >.- ! B ......| = & 3 ,.    ",
"    d '.Z ).!.c w r 7 9 ; ......3 * ! ; > | , }   ",
"    ~.% ; I k w 0 Q {.x ; ].B ^.-.C [ - - +.) ^   ",
"    ) ~ W 6 R t P D &.& ; { ,._ ~.T /.C (.; { )   ",
"    _.^ | :.o < - c '.+ x T ....- #.:.].<.[.K     ",
"      U b ] $.(.f = }.|.I ^ q 1.%.$.g Q & } z *.  ",
"      |.2.l R 9 3.t +.].< ~.4.u !.s g F c |.& 5.  ",
"      6.7.9 [.D ).%.3 = > (.C t m s 6 m 8.C 9.0.  ",
"        E a.o ).{.y 1 X 1 d '.w I c g T { 8.b.    ",
"        d c.m r 2.h K [ $ /.> R 0 P c x d.J ,     ",
"        ' e.&.$.Z g g ^ ; ;.+.X 1.o $.x 9.d.(     ",
"        @.{.%.T U J Q [ % '.* f.C c 3.8 F :.      ",
"                                                  "};
