/* XPM */ 
static const char * pencil_xpm[] = {
"24 24 133 2",
"  	c None",
"! 	c black",
"# 	c white",
"$ 	c #F4F6F6",
"% 	c #E0E4E5",
"& 	c #F6F7F7",
"' 	c #ECF1F2",
"( 	c #CDBFBF",
") 	c #AC7576",
"* 	c #BFB1B1",
"+ 	c #FAFBFB",
", 	c #B8ADAE",
"- 	c #D06F6F",
". 	c #EB6058",
"0 	c #AC7C79",
"1 	c #D2D3D4",
"2 	c #E4E8E9",
"3 	c #C2B7B8",
"4 	c #BA5252",
"5 	c #F18D86",
"6 	c #B7A4A8",
"7 	c #9E9DA2",
"8 	c #EDECEB",
"9 	c #F5FBFB",
": 	c #C4B1B4",
"; 	c #A08B9B",
"< 	c #A8B7C4",
"= 	c #BBC1C7",
"> 	c #9A969F",
"? 	c #D5D6D7",
"@ 	c #FEFEFE",
"A 	c #E5E7E5",
"B 	c #ABADB7",
"C 	c #B5BCC8",
"D 	c #A8B9CF",
"E 	c #A892A4",
"F 	c #BEA7A0",
"G 	c #BCBEBC",
"H 	c #D1CBC4",
"I 	c #A1A4AC",
"J 	c #9E9DA7",
"K 	c #DDAE7E",
"L 	c #DF9F4B",
"M 	c #BBAC8D",
"N 	c #CACDD3",
"O 	c #B8B7B9",
"P 	c #B7A48D",
"Q 	c #E8A941",
"R 	c #FDB43B",
"S 	c #D6A44F",
"T 	c #C0B4A4",
"U 	c #F5F7F9",
"V 	c #C9C6BD",
"W 	c #C0954C",
"X 	c #FDBE4E",
"Y 	c #FFC658",
"Z 	c #D1A461",
"[ 	c #C0B7AE",
"] 	c #FEFEFF",
"^ 	c #C8BDB1",
"_ 	c #D4994B",
"` 	c #FFD05D",
"a 	c #FECC65",
"b 	c #CFAB73",
"c 	c #C1BEB9",
"d 	c #E9F5FD",
"e 	c #C7B2A1",
"f 	c #E0A54B",
"g 	c #FFD566",
"h 	c #FAC75E",
"i 	c #C6A775",
"j 	c #B9B6B2",
"k 	c #C0C6CF",
"l 	c #BDA187",
"m 	c #EBB051",
"n 	c #FFD55A",
"o 	c #F0C14D",
"p 	c #C4AF8B",
"q 	c #CED0D4",
"r 	c #CBCBCF",
"s 	c #C3A178",
"t 	c #F4BC3B",
"u 	c #FFCF41",
"v 	c #E6B14C",
"w 	c #BFB197",
"x 	c #E8EAED",
"y 	c #DDDCDD",
"z 	c #C79954",
"{ 	c #FBB837",
"| 	c #FFC13E",
"} 	c #DBAD4F",
"~ 	c #C5C0AA",
" !	c #F7F7F7",
"!!	c #CAC2BD",
"#!	c #D19648",
"$!	c #FFBC3E",
"%!	c #FFC441",
"&!	c #D6B558",
"'!	c #C6C3B2",
"(!	c #C6B7A7",
")!	c #D59B47",
"*!	c #FFBF3F",
"+!	c #EDB742",
",!	c #C0A96A",
"-!	c #B5B6B4",
".!	c #E1E4E9",
"0!	c #B9A891",
"1!	c #D19436",
"2!	c #F1B754",
"3!	c #E9BF82",
"4!	c #C1B398",
"5!	c #E9E9E8",
"6!	c #EDEEF0",
"7!	c #B09B7B",
"8!	c #CFA65D",
"9!	c #FED3A3",
":!	c #D7BBA7",
";!	c #C4C5C6",
"<!	c #DCDDDC",
"=!	c #A59E87",
">!	c #C5AA8A",
"?!	c #D8B395",
"@!	c #C3B8B1",
"A!	c #F3F4F5",
"B!	c #E6E8E9",
"C!	c #CACBC8",
"D!	c #C8BDB2",
"E!	c #B5A596",
"F!	c #A8A8A9",
"G!	c #D2D2D2",
"H!	c #CED0D0",
"I!	c #A6A5A3",
"J!	c #9C9C9C",
"        # #                                     ",
"      $ % &                                     ",
"    ' ( ) * +                                   ",
"    , - . 0 1 2                                 ",
"    3 4 5 6 7 8 #                               ",
"    9 : ; < = > ? @                             ",
"      A B C D E F G                             ",
"        H I J K L M N                           ",
"          O P Q R S T U                         ",
"            V W X Y Z [ #                       ",
"            ] ^ _ ` a b c                       ",
"              d e f g h i j                     ",
"                k l m n o p q                   ",
"                  r s t u v w x                 ",
"                  # y z { | } ~  !              ",
"                      !!#!$!%!&!'!              ",
"                        (!)!*!+!,!-!.!          ",
"                          0!1!2!3!4!5!          ",
"                          6!7!8!9!:!;!          ",
"                            <!=!>!?!@!A!        ",
"                              B!C!D!E!F!        ",
"                                G!H!I!J!        ",
"                                                ",
"                                                "};