/* XPM */ 
static const char * point_xpm[] = {
"28 28 93 2",
"  	c None",
"! 	c black",
"# 	c #ECEDEC",
"$ 	c #CCD3CD",
"% 	c #E1E4E1",
"& 	c #EAEBEA",
"' 	c #6CA975",
"( 	c #30A941",
") 	c #00B81A",
"* 	c #21AC35",
"+ 	c #5DA768",
", 	c #C3CDC4",
"- 	c #90B395",
". 	c #18AF2E",
"0 	c #12BD2A",
"1 	c #33C648",
"2 	c #1EC035",
"3 	c #63A86D",
"4 	c #EEEFEE",
"5 	c #54A65F",
"6 	c #51CF63",
"7 	c #CFF2D4",
"8 	c #DEF6E1",
"9 	c #78D986",
": 	c #06BA1F",
"; 	c #3CA84B",
"< 	c #D9DDDA",
"= 	c #4EA75A",
"> 	c #15BE2D",
"? 	c #ABE8B4",
"@ 	c #D2F2D7",
"A 	c #2DC542",
"B 	c #E2E4E2",
"C 	c #72AA7A",
"D 	c #1BC032",
"E 	c #E4F7E7",
"F 	c #48CC5B",
"G 	c #4BA758",
"H 	c #E4E6E4",
"I 	c #12B128",
"J 	c #C9F0CF",
"K 	c #A2BAA5",
"L 	c #78AB7F",
"M 	c #57D068",
"N 	c #99E3A3",
"O 	c #45A753",
"P 	c #3BA74A",
"Q 	c #C3EEC9",
"R 	c #09BB22",
"S 	c #F8F8F8",
"T 	c #FF1E1E",
"U 	c #FF0000",
"V 	c #FFF0F0",
"W 	c #42CA55",
"X 	c #BDC9BF",
"Y 	c #DBDFDC",
"Z 	c #24C23A",
"[ 	c #60D370",
"] 	c #9FB9A3",
"^ 	c #D5DAD6",
"_ 	c #2AC440",
"` 	c #69D578",
"a 	c #96B59B",
"b 	c #F2F2F2",
"c 	c #0CBB25",
"d 	c #FF4B4B",
"e 	c #FF3333",
"f 	c #FFF3F3",
"g 	c #4ECE60",
"h 	c #B1C2B3",
"i 	c #42A750",
"j 	c #D2D8D3",
"k 	c #DBF5DF",
"l 	c #60A86A",
"m 	c #F0FBF2",
"n 	c #30C545",
"o 	c #E1F7E4",
"p 	c #5DD26E",
"q 	c #09B521",
"r 	c #39A849",
"s 	c #84DD91",
"t 	c #E7F8E9",
"u 	c #A2E5AB",
"v 	c #21C138",
"w 	c #0CB324",
"x 	c #D3D9D4",
"y 	c #5AA765",
"z 	c #54CF65",
"{ 	c #DCDFDD",
"| 	c #B7C6B9",
"} 	c #17AF2D",
"~ 	c #99B79D",
" !	c #ABBFAE",
"                                                        ",
"                                                        ",
"                                                        ",
"                        # $ $ %                         ",
"                  & ' ( ) ) ) ) * + ,                   ",
"                - . ) ) 0 1 1 2 ) ) ) 3                 ",
"            4 5 ) ) 6 7         8 9 : ) ; <             ",
"            = ) > ?                 @ A ) * B           ",
"          C ) D E                       F ) G           ",
"        H I ) J                           D ) K         ",
"        L ) M                             N ) O         ",
"        P ) Q                               R )         ",
"      S ) :             T U U U V           W ) X       ",
"      Y ) Z             T U U U V           [ ) ]       ",
"      ^ ) _             T U U U V           ` ) a       ",
"      b ) c             d e e e f           g ) h       ",
"        P ) Q                               0 )         ",
"        L ) `                             ? ) i         ",
"        j ) : k                           Z ) -         ",
"          l ) A m                       [ ) i           ",
"            ; ) n o                   p ) q <           ",
"            B r ) c s t           u v ) w x             ",
"                y ) ) ) A z [ 1 R ) ) O {               ",
"                  | 5 } ) ) ) ) ) O ~                   ",
"                        j  !] $                         ",
"                                                        ",
"                                                        ",
"                                                        "};