/* XPM */ 
static const char * polygon_xpm[] = {
"24 24 144 2",
"  	c None",
"! 	c black",
"# 	c #B9E4B9",
"$ 	c #87CE87",
"% 	c #B6DBB6",
"& 	c #E2E0E2",
"' 	c #44A444",
"( 	c #00B500",
") 	c #00C300",
"* 	c #00A900",
"+ 	c #48BD48",
", 	c #9ECC9E",
"- 	c #FAF3FA",
". 	c #5DB15D",
"0 	c #05BF05",
"1 	c #51D651",
"2 	c #CBF1CB",
"3 	c #7DE37D",
"4 	c #01C401",
"5 	c #00AD00",
"6 	c #44BE44",
"7 	c #A0C5A0",
"8 	c #59AF59",
"9 	c #02BE02",
": 	c #4ED34E",
"; 	c #EEF9EE",
"< 	c #DCF5DC",
"= 	c #73E173",
"> 	c #00BF00",
"? 	c #02B702",
"@ 	c #35A835",
"A 	c #7DA77D",
"B 	c #57AF57",
"C 	c #00BE00",
"D 	c #4DD34D",
"E 	c #EFFAEF",
"F 	c #DFF7DF",
"G 	c #60DB60",
"H 	c #0EC50E",
"I 	c #00BD00",
"J 	c #4BB04B",
"K 	c #96B696",
"L 	c #56B056",
"M 	c #4BD44B",
"N 	c #D4F4D4",
"O 	c #5FD85F",
"P 	c #10C910",
"Q 	c #40B940",
"R 	c #ACADAC",
"S 	c #56AE56",
"T 	c #4AD44A",
"U 	c #F0FBF0",
"V 	c #80E580",
"W 	c #0EB10E",
"X 	c #5CA95C",
"Y 	c #78C078",
"Z 	c #03BA03",
"[ 	c #F0FAF0",
"] 	c #77E277",
"^ 	c #11B211",
"_ 	c #5FAA5F",
"` 	c #EBCDEB",
"a 	c #58C658",
"b 	c #18CA18",
"c 	c #EAF7EA",
"d 	c #46D946",
"e 	c #33B433",
"f 	c #A1A9A1",
"g 	c #E9DAE9",
"h 	c #67C967",
"i 	c #06BC06",
"j 	c #C9F1C9",
"k 	c #1DCF1D",
"l 	c #4FBD4F",
"m 	c #D6BBD6",
"n 	c #8FB68F",
"o 	c #20BD20",
"p 	c #41D541",
"q 	c #00C100",
"r 	c #75D175",
"s 	c #FFE5FF",
"t 	c #CACACA",
"u 	c #48BA48",
"v 	c #00BB00",
"w 	c #C0EFC0",
"x 	c #D1F3D1",
"y 	c #00B700",
"z 	c #6AD46A",
"{ 	c #B7C4B7",
"| 	c #1CC41C",
"} 	c #34D134",
"~ 	c #A6ECA6",
" !	c #06B706",
"!!	c #37A837",
"#!	c #40B140",
"$!	c #02BF02",
"%!	c #B4ECB4",
"&!	c #77E377",
"'!	c #1BB61B",
"(!	c #80A880",
")!	c #C5D1C5",
"*!	c #04C004",
"+!	c #3BD03B",
",!	c #4ED94E",
"-!	c #2FBB2F",
".!	c #B4B5B4",
"0!	c #57B557",
"1!	c #ABE9AB",
"2!	c #D5F5D5",
"3!	c #A4EBA4",
"4!	c #75E075",
"5!	c #00C400",
"6!	c #46C646",
"7!	c #EDDAED",
"8!	c #CDD7CD",
"9!	c #06BB06",
":!	c #3DD53D",
";!	c #C8F2C8",
"<!	c #9BEA9B",
"=!	c #72E172",
">!	c #43D643",
"?!	c #11C811",
"@!	c #00B800",
"A!	c #00B600",
"B!	c #1CBF1C",
"C!	c #39C139",
"D!	c #70B270",
"E!	c #64AD64",
"F!	c #1ABA1A",
"G!	c #09B709",
"H!	c #1EB71E",
"I!	c #33BB33",
"J!	c #4CCA4C",
"K!	c #59D059",
"L!	c #72C872",
"M!	c #94C094",
"N!	c #9FB39F",
"O!	c #DCD4DC",
"P!	c #66A966",
"Q!	c #29B229",
"R!	c #4BAA4B",
"S!	c #82A782",
"T!	c #BBB7BB",
"U!	c #FDDEFD",
"                                                ",
"                                                ",
"                    # $ % &                     ",
"                  ' ( ) * + , -                 ",
"                . 0 1 2 3 4 5 6 7               ",
"              8 9 : ;     < = > ? @ A           ",
"            B C D E           F G H I J K       ",
"          L C M E                 N O P Q R     ",
"        S I T U                       V W X     ",
"      Y Z 1 [                         ] ^ _     ",
"    ` a b c                           d e f     ",
"    g h i j                           k l m     ",
"      n o p                           q r s     ",
"      t u v w                       x y z       ",
"        { | }                       ~  !!!      ",
"          #!$!%!                    &!'!(!      ",
"          )!*!+!                    ,!-!.!      ",
"            0!4 1!            2!3!4!5!6!7!      ",
"            8!9!:!;!<!=!>!?!C @!A!B!C!D!        ",
"              E!F!@!G!H!I!J!K!L!M!N!O!          ",
"                P!Q!R!S!T!U!                    ",
"                                                ",
"                                                ",
"                                                "};