/* XPM */
static const char * queryretrieve_xpm[] = {
"28 26 431 2",
"  	c None",
". 	c #6A6865",
"+ 	c #5E5B58",
"@ 	c #626262",
"# 	c #797979",
"$ 	c #777777",
"% 	c #787878",
"& 	c #969A9E",
"* 	c #82827F",
"= 	c #7C7C7A",
"- 	c #797976",
"; 	c #7D7C7B",
"> 	c #6D6D6C",
", 	c #6C6C6A",
"' 	c #6B6B6A",
") 	c #6C6B69",
"! 	c #6A6765",
"~ 	c #676563",
"{ 	c #5F5E5A",
"] 	c #50504F",
"^ 	c #616161",
"/ 	c #5E5E5E",
"( 	c #636362",
"_ 	c #676766",
": 	c #666665",
"< 	c #6F706E",
"[ 	c #727271",
"} 	c #767674",
"| 	c #6F6F6C",
"1 	c #8B8B89",
"2 	c #696967",
"3 	c #6B6B69",
"4 	c #6A6A68",
"5 	c #686866",
"6 	c #676664",
"7 	c #666462",
"8 	c #5F5E5B",
"9 	c #4E4E4D",
"0 	c #7C7C7C",
"a 	c #6F6F70",
"b 	c #717171",
"c 	c #757575",
"d 	c #7B7B7B",
"e 	c #818181",
"f 	c #898989",
"g 	c #939393",
"h 	c #575756",
"i 	c #8E8E8C",
"j 	c #686765",
"k 	c #676765",
"l 	c #666664",
"m 	c #646462",
"n 	c #636361",
"o 	c #5E5C5A",
"p 	c #4D4D4D",
"q 	c #6A6A6B",
"r 	c #6C6C6E",
"s 	c #727273",
"t 	c #7E7E7E",
"u 	c #848484",
"v 	c #8D8D8D",
"w 	c #555654",
"x 	c #929290",
"y 	c #626260",
"z 	c #61615F",
"A 	c #5D5C59",
"B 	c #4B4B4B",
"C 	c #747474",
"D 	c #666667",
"E 	c #5A5A5D",
"F 	c #565657",
"G 	c #595958",
"H 	c #5D5D5D",
"I 	c #656665",
"J 	c #666767",
"K 	c #888888",
"L 	c #525252",
"M 	c #939391",
"N 	c #626261",
"O 	c #616160",
"P 	c #60605E",
"Q 	c #605F5D",
"R 	c #5B5A58",
"S 	c #4A4A4A",
"T 	c #727272",
"U 	c #5E5E5F",
"V 	c #5D5D5E",
"W 	c #6A6A6A",
"X 	c #908F8B",
"Y 	c #5F5E5E",
"Z 	c #4F4F4E",
"` 	c #90908E",
" .	c #606060",
"..	c #5F5F5F",
"+.	c #5E5E5C",
"@.	c #5A5957",
"#.	c #484849",
"$.	c #6D6D6D",
"%.	c #59595A",
"&.	c #555557",
"*.	c #6C6C6D",
"=.	c #717173",
"-.	c #737375",
";.	c #6B6B6C",
">.	c #767676",
",.	c #5C5160",
"'.	c #5C5C5D",
").	c #5B5B5C",
"!.	c #5C5B5B",
"~.	c #595757",
"{.	c #474747",
"].	c #686869",
"^.	c #4D4D4F",
"/.	c #3E3E40",
"(.	c #4B4A4C",
"_.	c #4B4B4D",
":.	c #4E4E50",
"<.	c #525253",
"[.	c #515152",
"}.	c #3F3F3F",
"|.	c #868685",
"1.	c #69CD40",
"2.	c #6ACE41",
"3.	c #68CE3E",
"4.	c #6CD343",
"5.	c #639A4C",
"6.	c #5C5B5C",
"7.	c #5B585C",
"8.	c #5B5B5B",
"9.	c #5B5A5A",
"0.	c #5A595A",
"a.	c #585657",
"b.	c #454545",
"c.	c #656567",
"d.	c #464648",
"e.	c #3B3B3E",
"f.	c #414143",
"g.	c #414142",
"h.	c #434344",
"i.	c #454547",
"j.	c #48484A",
"k.	c #3C3C3E",
"l.	c #373737",
"m.	c #828283",
"n.	c #67CD3D",
"o.	c #77D343",
"p.	c #6BCF3F",
"q.	c #66CD3C",
"r.	c #67CD3C",
"s.	c #67CC3E",
"t.	c #66BC42",
"u.	c #607C55",
"v.	c #59555A",
"w.	c #595859",
"x.	c #585757",
"y.	c #585656",
"z.	c #575455",
"A.	c #424243",
"B.	c #616163",
"C.	c #454447",
"D.	c #4D4D50",
"E.	c #515053",
"F.	c #525255",
"G.	c #555558",
"H.	c #4A4A4C",
"I.	c #3A3A3B",
"J.	c #7F7F7F",
"K.	c #6ACF3E",
"L.	c #87D94A",
"M.	c #7ED547",
"N.	c #7ED55B",
"O.	c #7FD55C",
"P.	c #66CD3B",
"Q.	c #68CE3D",
"R.	c #68D23D",
"S.	c #5D814E",
"T.	c #565256",
"U.	c #575456",
"V.	c #565455",
"W.	c #555354",
"X.	c #5D5D5F",
"Y.	c #3F3F41",
"Z.	c #333334",
"`.	c #3B3B3D",
" +	c #363637",
".+	c #3C3C3C",
"++	c #323232",
"@+	c #7A7A7A",
"#+	c #7BD546",
"$+	c #9AE053",
"%+	c #6ED040",
"&+	c #65CC3A",
"*+	c #83D760",
"=+	c #FEFEFD",
"-+	c #C8EDB9",
";+	c #5DCA31",
">+	c #68D13D",
",+	c #5D814D",
"'+	c #565156",
")+	c #585857",
"!+	c #575555",
"~+	c #3D3D3D",
"{+	c #5A5A5C",
"]+	c #484848",
"^+	c #353535",
"/+	c #2E2E2E",
"(+	c #383839",
"_+	c #414141",
":+	c #444444",
"<+	c #494949",
"[+	c #3F3F40",
"}+	c #313131",
"|+	c #95DE51",
"1+	c #92DD50",
"2+	c #61CB37",
"3+	c #7ED45A",
"4+	c #EDF9E9",
"5+	c #FFFFFF",
"6+	c #E1F5D9",
"7+	c #95DC77",
"8+	c #A3E189",
"9+	c #B6E7A3",
"0+	c #8CDA6C",
"a+	c #63BD3D",
"b+	c #586451",
"c+	c #504F50",
"d+	c #525151",
"e+	c #4F4F4F",
"f+	c #444445",
"g+	c #303031",
"h+	c #2D2D2D",
"i+	c #303030",
"j+	c #3A3A3A",
"k+	c #707070",
"l+	c #A4E357",
"m+	c #8BDB4B",
"n+	c #74D150",
"o+	c #DCF3D3",
"p+	c #FEFEFE",
"q+	c #FDFEFC",
"r+	c #E0F5D8",
"s+	c #5EC932",
"t+	c #5D8E48",
"u+	c #524E53",
"v+	c #535351",
"w+	c #505050",
"x+	c #424242",
"y+	c #2F2F2F",
"z+	c #343434",
"A+	c #363636",
"B+	c #6B6B6B",
"C+	c #8ADB47",
"D+	c #AAE394",
"E+	c #FDFEFD",
"F+	c #FAFDF9",
"G+	c #7CD657",
"H+	c #5EA441",
"I+	c #4F504C",
"J+	c #4D4C4B",
"K+	c #3B3B3A",
"L+	c #545454",
"M+	c #252525",
"N+	c #212121",
"O+	c #292929",
"P+	c #2C2C2C",
"Q+	c #2C2C2D",
"R+	c #696968",
"S+	c #94DD50",
"T+	c #6BCF3E",
"U+	c #CBEEBD",
"V+	c #FCFEFB",
"W+	c #E7F7E0",
"X+	c #E9F8E3",
"Y+	c #A3E289",
"Z+	c #5BA83B",
"`+	c #4F554A",
" @	c #4C4B4A",
".@	c #393938",
"+@	c #535353",
"@@	c #383939",
"#@	c #434343",
"$@	c #555656",
"%@	c #616262",
"&@	c #60605F",
"*@	c #79D445",
"=@	c #A6E458",
"-@	c #60CB34",
";@	c #C3EBB1",
">@	c #5BCA2E",
",@	c #60CB33",
"'@	c #6ECF45",
")@	c #67CF3C",
"!@	c #61A644",
"~@	c #4F514C",
"{@	c #4D4D4B",
"]@	c #3A3A38",
"^@	c #555555",
"/@	c #8A8A8A",
"(@	c #8C8C8B",
"_@	c #8F8F8F",
":@	c #959595",
"<@	c #9F9E9E",
"[@	c #A6A6A4",
"}@	c #999996",
"|@	c #6E6E6B",
"1@	c #6ACE3E",
"2@	c #89DA4C",
"3@	c #90DC4F",
"4@	c #62CB36",
"5@	c #B0E59A",
"6@	c #BCE9A9",
"7@	c #68CD3E",
"8@	c #5D9049",
"9@	c #4D484E",
"0@	c #4F4F4D",
"a@	c #393937",
"b@	c #464646",
"c@	c #4A4B4B",
"d@	c #7D7D7B",
"e@	c #81827F",
"f@	c #7E7E7B",
"g@	c #71716F",
"h@	c #585856",
"i@	c #383837",
"j@	c #575754",
"k@	c #69CE3E",
"l@	c #7DD546",
"m@	c #72D242",
"n@	c #9DDF82",
"o@	c #98DD7B",
"p@	c #68CF3D",
"q@	c #67C043",
"r@	c #55614F",
"s@	c #504E4F",
"t@	c #51514F",
"u@	c #1E1E1E",
"v@	c #272726",
"w@	c #282828",
"x@	c #30312F",
"y@	c #2B2B29",
"z@	c #2A2A29",
"A@	c #313130",
"B@	c #353633",
"C@	c #575753",
"D@	c #69CE3F",
"E@	c #69C841",
"F@	c #59704D",
"G@	c #514E50",
"H@	c #525250",
"I@	c #545452",
"J@	c #3B3C3C",
"K@	c #222322",
"L@	c #2A2B29",
"M@	c #242423",
"N@	c #2C2E2C",
"O@	c #272826",
"P@	c #2C2D2B",
"Q@	c #333532",
"R@	c #343531",
"S@	c #565752",
"T@	c #68CF3C",
"U@	c #5B9B40",
"V@	c #545C4E",
"W@	c #515150",
"X@	c #555552",
"Y@	c #393936",
"Z@	c #3B3C3B",
"`@	c #222221",
" #	c #292928",
".#	c #363734",
"+#	c #262826",
"@#	c #2C2C2B",
"##	c #373735",
"$#	c #383835",
"%#	c #4D4E4B",
"&#	c #51524E",
"*#	c #555551",
"=#	c #393A36",
"-#	c #3E403E",
";#	c #252624",
">#	c #282926",
",#	c #2F302E",
"'#	c #373835",
")#	c #2B2C2A",
"!#	c #2F2F2D",
"~#	c #333431",
"{#	c #343532",
"]#	c #575853",
"^#	c #4D4D4A",
"/#	c #51524C",
"(#	c #53544F",
"_#	c #393B37",
":#	c #3F413D",
"<#	c #232422",
"[#	c #2B2C29",
"}#	c #252523",
"|#	c #292B28",
"1#	c #333430",
"2#	c #343632",
"3#	c #484A45",
"4#	c #4D4E48",
"5#	c #52534E",
"6#	c #3A3C37",
"7#	c #232321",
"8#	c #2A2C29",
"9#	c #262724",
"0#	c #373935",
"a#	c #40413D",
"b#	c #2C2E2B",
"c#	c #383935",
"d#	c #585953",
"e#	c #363733",
"f#	c #353531",
"g#	c #383A35",
"h#	c #41433E",
"i#	c #262825",
"j#	c #30322E",
"k#	c #2F302D",
"l#	c #3B3C38",
"m#	c #3E3F3B",
"n#	c #393A37",
"o#	c #40413C",
"p#	c #3E403B",
"q#	c #54554E",
"r#	c #484944",
"s#	c #41423F",
"t#	c #30312E",
"u#	c #30302E",
"v#	c #31322F",
"w#	c #3B3B39",
"x#	c #42433F",
"                            . + @ # $ % % $ & * = = - ; ",
"                  > , ' ) ! ~ { ] # ^ / ( _ : < [ } | 1 ",
"                2 3 4 2 5 6 7 8 9 0 a b c % d e f g h i ",
"                j 2 5 k l m n o p c q r s c % t u v w x ",
"                7 6 l l m y z A B C D E F G H I J K L M ",
"                N ( ( N O P Q R S T U V W f g X Y t Z ` ",
"                 .^  . .../ +.@.#.$.%.&.*.=.-.$ ;.>.S 1 ",
"                ,.V / / '.).!.~.{.].^./.(._.S :.<.[.}.|.",
"        1.2.3.4.5.6.7.8.9.0.0.a.b.c.d.e.f.g.h.i.j.k.l.m.",
"    n.o.p.3.q.r.s.t.u.v.w.x.y.z.A.B.j.C.D.E.F.&.G.H.I.J.",
"  K.L.M.n.n.N.O.P.Q.R.S.T.U.V.W.}.X.Y.Z.`.`.I. +.+ +++@+",
"  #+$+%+&+*+=+-+;+P.2.>+,+'+)+!+~+{+]+^+/+(+_+:+<+[+}+$ ",
"p.|+1+2+3+4+5+6+7+8+9+0+a+b+c+d+I.e+f+g+h+h+}+i+~+j+}+k+",
"p.l+m+n+o+5+p+q+q+5+5+r+s+t+u+v+j+w+x+y+z+^+++}+j+A+y+B+",
"p.l+C+D+E+5+p+5+5+5+5+F+G+H+I+J+K+L+x+M+N+O+/+P+z+i+Q+R+",
"p.S+$+T+U+5+5+V+W+X+q+=+Y+Z+`+ @.@+@{.@@_+#@p L+$@%@&@' ",
"3.*@=@*@-@;@q+5+8+>@,@'@)@!@~@{@]@^@t /@/@(@_@:@<@[@}@|@",
"  1@2@3@p.4@5@5+6@q.n.q.7@8@9@0@a@b@c@ .[ d@e@f@g@h@i@j@",
"    k@l@m@n.q.n@o@3.n.p@q@r@s@t@a@.+u@v@w@x@]@y@z@A@B@C@",
"      n.1@3.n.n.D@n.>+E@F@G@H@I@a@J@K@L@M@N@i@O@P@Q@R@S@",
"        n.n.3.n.3.T@U@V@W@t@H@X@Y@Z@`@ #M@P@.#+#@###$#C@",
"                      %#t@t@&#*#=#-#;#P@>#,#'#)#!#~#{#]#",
"                        ^#I+/#(#_#:#<#[#}#)#B@|#)#1#2#]#",
"                          3#4#5#6#:#7#8#9#0#a#2#b#{#c#d#",
"                            e#f#g#h#i#j#k#l#m#_#n#o#p#q#",
"                          r#s#t#!#'#u#v#        w#x#3#  "};
