/* XPM */ 
static const char * rectangle_xpm[] = {
"24 24 87 1",
" 	c None",
"!	c black",
"#	c #FFDDFF",
"$	c #FFDAFF",
"%	c #FFDBFF",
"&	c #FFD8FC",
"'	c #FFE6FF",
"(	c #80C68A",
")	c #6AC774",
"*	c #69C476",
"+	c #69C576",
",	c #68C375",
"-	c #6FCB77",
".	c #98D1A2",
"0	c #32A543",
"1	c #00B40A",
"2	c #00BA16",
"3	c #00B916",
"4	c #00B915",
"5	c #00BA18",
"6	c #00B911",
"7	c #00A900",
"8	c #7CBD84",
"9	c #6DA875",
":	c #17AD2C",
";	c #6DDB7C",
"<	c #E6F7E9",
"=	c #E4F6E6",
">	c #E5F7E7",
"?	c #E2F6E5",
"@	c #C3EBCA",
"A	c #09BF1E",
"B	c #77C381",
"C	c #56A560",
"D	c #0CA922",
"E	c #82DE8E",
"F	c #DDF3E0",
"G	c #0BC026",
"H	c #67B772",
"I	c #5AA664",
"J	c #0EAA24",
"K	c #7CDD89",
"L	c #D5F1D9",
"M	c #09BF23",
"N	c #6AB975",
"O	c #7DDE8A",
"P	c #D7F2DB",
"Q	c #0AC024",
"R	c #59A663",
"S	c #0DAA23",
"T	c #D6F1DA",
"U	c #0ABF24",
"V	c #58A563",
"W	c #0EA924",
"X	c #81DE8E",
"Y	c #DDF2E0",
"Z	c #0CC126",
"[	c #69B874",
"]	c #94A897",
"^	c #24AC37",
"_	c #42D352",
"`	c #ADEAB6",
"a	c #A8E9B0",
"b	c #A7E9B0",
"c	c #A8EAB1",
"d	c #A6E9B0",
"e	c #AFEBB7",
"f	c #8EE39B",
"g	c #00B609",
"h	c #77C081",
"i	c #76BA80",
"j	c #28B12F",
"k	c #07AD1F",
"l	c #05AE1D",
"m	c #06AE1D",
"n	c #04AE1D",
"o	c #09AD20",
"p	c #45B64F",
"q	c #D1E9D4",
"r	c #94AD9D",
"s	c #42A550",
"t	c #40A750",
"u	c #42A651",
"v	c #42A751",
"w	c #40A950",
"x	c #429C4E",
"y	c #DBD7DC",
"                        ",
"                        ",
"     #$%%%%%%%%%%%&'    ",
"    ()*+++++++++++,-.   ",
"   0123422222222235678  ",
"  9:;<==>>>>>>>>>?>@AB  ",
"  CDE              FGH  ",
"  IJK              LMN  ",
"  IJO              PQN  ",
"  IJO              PQN  ",
"  IJO              PQN  ",
"  IJO              PQN  ",
"  IJO              PQN  ",
"  IJO              PQN  ",
"  IJO              PQN  ",
"  IJO              PQN  ",
"  RSK              TUN  ",
"  VWX              YZ[  ",
"  ]^_`abcccccccccdefgh  ",
"   ijklllllllllllmnopq  ",
"    rstuvvvvvvvvvvwxy   ",
"                        ",
"                        ",
"                        "};