/* XPM */
static char * rot3d_xpm[] = {
"27 27 216 2",
"  	c None",
". 	c #354252",
"+ 	c #3C4C60",
"@ 	c #0D1117",
"# 	c #000000",
"$ 	c #232D3C",
"% 	c #06070A",
"& 	c #1D2530",
"* 	c #334259",
"= 	c #37475F",
"- 	c #13181E",
"; 	c #5A749C",
"> 	c #2A394E",
", 	c #05070A",
"' 	c #080A0B",
") 	c #313D50",
"! 	c #1C2432",
"~ 	c #030304",
"{ 	c #020202",
"] 	c #06080B",
"^ 	c #56739E",
"/ 	c #57729B",
"( 	c #0B0E13",
"_ 	c #040506",
": 	c #07090D",
"< 	c #374863",
"[ 	c #1A212C",
"} 	c #07080C",
"| 	c #0E1116",
"1 	c #0F1319",
"2 	c #5472A0",
"3 	c #485A79",
"4 	c #090B0E",
"5 	c #090B0D",
"6 	c #1E2631",
"7 	c #364762",
"8 	c #0D1115",
"9 	c #455C7E",
"0 	c #567097",
"a 	c #060709",
"b 	c #2E3C4E",
"c 	c #2A384C",
"d 	c #030406",
"e 	c #131922",
"f 	c #283548",
"g 	c #56729B",
"h 	c #121720",
"i 	c #050709",
"j 	c #2D3A4F",
"k 	c #2E3A4D",
"l 	c #050607",
"m 	c #010203",
"n 	c #445775",
"o 	c #55729F",
"p 	c #587196",
"q 	c #010102",
"r 	c #354763",
"s 	c #303D4F",
"t 	c #27303C",
"u 	c #050708",
"v 	c #040406",
"w 	c #101419",
"x 	c #52698C",
"y 	c #5473A1",
"z 	c #5A7193",
"A 	c #14191F",
"B 	c #191E24",
"C 	c #07090B",
"D 	c #0A0C0F",
"E 	c #344662",
"F 	c #3C4C63",
"G 	c #2F3E51",
"H 	c #040608",
"I 	c #536B8E",
"J 	c #5573A0",
"K 	c #5A7191",
"L 	c #0D0F12",
"M 	c #070A0D",
"N 	c #1E2531",
"O 	c #313D52",
"P 	c #3B4B63",
"Q 	c #384963",
"R 	c #364863",
"S 	c #364662",
"T 	c #384862",
"U 	c #050608",
"V 	c #455E82",
"W 	c #0C0F14",
"X 	c #3C4B63",
"Y 	c #1B2331",
"Z 	c #080B0E",
"` 	c #374762",
" .	c #2B394E",
"..	c #394963",
"+.	c #2D3A4D",
"@.	c #2F3C4F",
"#.	c #3E4D64",
"$.	c #161B22",
"%.	c #080A0D",
"&.	c #181E27",
"*.	c #222A36",
"=.	c #415064",
"-.	c #070A0E",
";.	c #202936",
">.	c #374761",
",.	c #374862",
"'.	c #304058",
").	c #0D1016",
"!.	c #313C4B",
"~.	c #0B0E12",
"{.	c #0E1219",
"].	c #354359",
"^.	c #0E1218",
"/.	c #0A0D10",
"(.	c #404E63",
"_.	c #333D47",
":.	c #030507",
"<.	c #3A4B64",
"[.	c #090B0F",
"}.	c #47505D",
"|.	c #040507",
"1.	c #3A475D",
"2.	c #1A2027",
"3.	c #394A62",
"4.	c #0D1218",
"5.	c #030405",
"6.	c #020101",
"7.	c #3E4C61",
"8.	c #4B5F7A",
"9.	c #314057",
"0.	c #536A8A",
"a.	c #171C22",
"b.	c #344561",
"c.	c #3E4E63",
"d.	c #3B4E6B",
"e.	c #283343",
"f.	c #2A384D",
"g.	c #020305",
"h.	c #4E678C",
"i.	c #54739F",
"j.	c #293545",
"k.	c #0E1115",
"l.	c #171E29",
"m.	c #263142",
"n.	c #404E60",
"o.	c #597399",
"p.	c #11161D",
"q.	c #1A212D",
"r.	c #161E29",
"s.	c #283342",
"t.	c #0F141B",
"u.	c #5B769D",
"v.	c #07080B",
"w.	c #0D1219",
"x.	c #455B7B",
"y.	c #56729D",
"z.	c #5572A0",
"A.	c #28364A",
"B.	c #293649",
"C.	c #232E3E",
"D.	c #32425A",
"E.	c #56739C",
"F.	c #57739C",
"G.	c #2B384C",
"H.	c #151B25",
"I.	c #28364B",
"J.	c #2A384E",
"K.	c #161C25",
"L.	c #0B0D11",
"M.	c #020203",
"N.	c #2C3849",
"O.	c #55719A",
"P.	c #5674A0",
"Q.	c #5775A2",
"R.	c #5877A5",
"S.	c #5775A3",
"T.	c #56749E",
"U.	c #56739F",
"V.	c #5574A1",
"W.	c #56719C",
"X.	c #465A78",
"Y.	c #0C0F13",
"Z.	c #1B2027",
"`.	c #202938",
" +	c #121820",
".+	c #090C10",
"++	c #07090C",
"@+	c #495D79",
"#+	c #58739C",
"$+	c #5A7192",
"%+	c #2C3747",
"&+	c #151A21",
"*+	c #1F2733",
"=+	c #1C2532",
"-+	c #10151D",
";+	c #5A7297",
">+	c #425166",
",+	c #161B21",
"'+	c #1F2732",
")+	c #364661",
"!+	c #2B394B",
"~+	c #374559",
"{+	c #1A2331",
"]+	c #0C1015",
"^+	c #4A576A",
"/+	c #21262E",
"(+	c #010101",
"_+	c #040508",
":+	c #3E4D66",
"<+	c #364457",
"[+	c #273346",
"}+	c #3B4B61",
"|+	c #2D3B4D",
"1+	c #0A0E12",
"2+	c #10151C",
"3+	c #2B3748",
"                                                      ",
"                      . + @ # $ %                     ",
"                    & * = - ; > ,                     ",
"                  ' ) ! ~ { ] ^ / (                   ",
"                _ : < [ }   | 1 2 3 4                 ",
"                5 6 7 #       8 9 0 ]                 ",
"                a b c d       e f g h                 ",
"                i j k l     # m n o p q # #           ",
"                # r s a t u v w x y z A # #           ",
"          B C D # E F ( ( G # H I J / K q #           ",
"      L M N O ) P r Q Q R S T U @ J V M W X Y a       ",
"    Z W `  ...+.@.7 #.$.%.&.*.=.# # -.;.>.,.'.).# !.  ",
"  ~.{.].^./.# % # 7 (._.          Z :.    # [ ` <.(   ",
"  [.:.}.|.      # S 1.                      ~.# 2.3.  ",
"  4.5.6.        # 7 7.                          # 8.  ",
"  9.0., a.      # b.c.          # -.d.          e.f.  ",
"  g.h.i.j.k.l.& # m.n.        { ( o.p.q.  r.s.t.o u.  ",
"  v.w.x.y.z.A.B.C.D.#       # i E.F.G.H.# I.J.9 K.L.  ",
"    M.|.@ N.O.P.Q.R.S.#   5.1 T.J U.y V.W.X.{.# Y.    ",
"        v.Z.# # `.m. +.+  # ++@+#+z.$+%+|.%.M.        ",
"                &+*+=+-+    # ] ;+p >+M.              ",
"                ,+'+)+#         # !+~+#               ",
"                  # {+]+|.    a                       ",
"                  ^+1 ^./+(+_+#                       ",
"                    :+i ] a <+[+#                     ",
"                      }+|+1+2+3+                      ",
"                                                      "};
