/* XPM */ 
static const char * rotate_xpm[] = {
"28 28 79 1",
" 	c None",
"!	c black",
"#	c #415575",
"$	c #475D7F",
"%	c #415473",
"&	c #4A5E7F",
"'	c #4E6384",
"(	c #3E506D",
")	c #2A364A",
"*	c #3B4D67",
"+	c #485D7F",
",	c #4A5F81",
"-	c #4F6484",
".	c #4E6383",
"0	c #3A4B68",
"1	c #222A3C",
"2	c #425673",
"3	c #4C6082",
"4	c #4D6283",
"5	c #4F6485",
"6	c #3C4D6A",
"7	c #253040",
"8	c #475D7C",
"9	c #4E6284",
":	c #4C6183",
";	c #4B6082",
"<	c #516881",
"=	c #1C2331",
">	c #465979",
"?	c #4E6484",
"@	c #4D6384",
"A	c #475B7D",
"B	c #324057",
"C	c #1E2635",
"D	c #0E1235",
"E	c #3C4F6A",
"F	c #4D6284",
"G	c #435776",
"H	c #1C2530",
"I	c #45587D",
"J	c #1B2430",
"K	c #4A5F80",
"L	c #495D7E",
"M	c #212C39",
"N	c #2E3B50",
"O	c #4C6283",
"P	c #3A4A67",
"Q	c #2E3C50",
"R	c #435878",
"S	c #526982",
"T	c #18204B",
"U	c #1A224D",
"V	c #4D657F",
"W	c #43587A",
"X	c #303E52",
"Y	c #2C394D",
"Z	c #3B4C69",
"[	c #1A222E",
"]	c #4A5D7E",
"^	c #242F3D",
"_	c #445879",
"`	c #212A38",
"a	c #191F2D",
"b	c #445877",
"c	c #36455E",
"d	c #253043",
"e	c #12183B",
"f	c #263040",
"g	c #475C7B",
"h	c #4C6182",
"i	c #506782",
"j	c #21293A",
"k	c #455978",
"l	c #4D6285",
"m	c #4D6385",
"n	c #252F41",
"o	c #3C4D68",
"p	c #4D6388",
"q	c #51688D",
"                            ",
"                            ",
"                            ",
"               #            ",
"               $%           ",
"               &'(          ",
"           )*+,--.0         ",
"         123455''-.6        ",
"        789':;<-'-.6        ",
"       =>?@ABCD+5.0         ",
"       EF.GH   I.(          ",
"      JK'LM    $%           ",
"      NOOP     #            ",
"      6':Q                  ",
"      R-ST         UV$W     ",
"      0':X         X:'0     ",
"      YOOZ         ZOOY     ",
"      [K']^       ^]'K[     ",
"       *4'_`     `_'4*      ",
"       ab?@LcdedcL@?ba      ",
"        fgF':hih:'Fgf       ",
"         jklm555mlkj        ",
"           nopqpon          ",
"                            ",
"                            ",
"                            ",
"                            ",
"                            "};