/* XPM */
static char * sagittal_xpm[] = {
"25 25 136 2",
"  	c None",
". 	c #2A2A2A",
"+ 	c #414141",
"@ 	c #505050",
"# 	c #545454",
"$ 	c #535353",
"% 	c #4F4F4F",
"& 	c #484848",
"* 	c #333333",
"= 	c #1E1E1E",
"- 	c #292929",
"; 	c #5D5D5D",
"> 	c #656565",
", 	c #555555",
"' 	c #3C3C3C",
") 	c #3D3D3D",
"! 	c #434343",
"~ 	c #4D4D4D",
"{ 	c #525252",
"] 	c #565656",
"^ 	c #636363",
"/ 	c #595959",
"( 	c #252525",
"_ 	c #282828",
": 	c #474747",
"< 	c #353535",
"[ 	c #494949",
"} 	c #606060",
"| 	c #6B6B6B",
"1 	c #6D6D6D",
"2 	c #585858",
"3 	c #4A4A4A",
"4 	c #444444",
"5 	c #767676",
"6 	c #343434",
"7 	c #5E5E5E",
"8 	c #393939",
"9 	c #707070",
"0 	c #8C8C8C",
"a 	c #929292",
"b 	c #8A8A8A",
"c 	c #858585",
"d 	c #9A9A9A",
"e 	c #949494",
"f 	c #898989",
"g 	c #5A5A5A",
"h 	c #515151",
"i 	c #676767",
"j 	c #383838",
"k 	c #818181",
"l 	c #7C7C7C",
"m 	c #7E7E7E",
"n 	c #848484",
"o 	c #888888",
"p 	c #909090",
"q 	c #A4A4A4",
"r 	c #A0A0A0",
"s 	c #808080",
"t 	c #5F5F5F",
"u 	c #2E2E2E",
"v 	c #404040",
"w 	c #363636",
"x 	c #7A7A7A",
"y 	c #737373",
"z 	c #7D7D7D",
"A 	c #959595",
"B 	c #8F8F8F",
"C 	c #7B7B7B",
"D 	c #8D8D8D",
"E 	c #575757",
"F 	c #212121",
"G 	c #454545",
"H 	c #787878",
"I 	c #999999",
"J 	c #727272",
"K 	c #6F6F6F",
"L 	c #A6A6A6",
"M 	c #919191",
"N 	c #868686",
"O 	c #7F7F7F",
"P 	c #000000",
"Q 	c #797979",
"R 	c #989898",
"S 	c #ADADAD",
"T 	c #424242",
"U 	c #616161",
"V 	c #777777",
"W 	c #8E8E8E",
"X 	c #838383",
"Y 	c #9E9E9E",
"Z 	c #B4B4B4",
"` 	c #A8A8A8",
" .	c #222222",
"..	c #262626",
"+.	c #6C6C6C",
"@.	c #6E6E6E",
"#.	c #3E3E3E",
"$.	c #272727",
"%.	c #3B3B3B",
"&.	c #4B4B4B",
"*.	c #8B8B8B",
"=.	c #5B5B5B",
"-.	c #373737",
";.	c #2F2F2F",
">.	c #878787",
",.	c #9F9F9F",
"'.	c #2C2C2C",
").	c #626262",
"!.	c #828282",
"~.	c #2D2D2D",
"{.	c #242424",
"].	c #6A6A6A",
"^.	c #4C4C4C",
"/.	c #979797",
"(.	c #2B2B2B",
"_.	c #717171",
":.	c #757575",
"<.	c #323232",
"[.	c #646464",
"}.	c #A9A9A9",
"|.	c #3A3A3A",
"1.	c #747474",
"2.	c #4E4E4E",
"3.	c #939393",
"4.	c #B7B7B7",
"5.	c #5C5C5C",
"6.	c #9D9D9D",
"7.	c #B8B8B8",
"8.	c #232323",
"9.	c #666666",
"0.	c #A3A3A3",
"a.	c #A2A2A2",
"b.	c #AFAFAF",
"c.	c #ABABAB",
"d.	c #313131",
"e.	c #696969",
"                                                  ",
"                                                  ",
"                  . + @ # # $ % & * =             ",
"              - ; > , & ' ) ! ~ { ] ^ / (         ",
"            _ ; : < [ } | 1 | 2 3 4 < # 5 6       ",
"            7 8 # 9 0 a b c a d e f g * h i       ",
"          j [ g k l m k n o c p q r s t u t v     ",
"          w 8 x y z 0 A d r r B n 0 C D # 8 E     ",
"        u F G H 5 D I 0 J K e L M s N A O 6 $ _   ",
"        < P g m J n r H Q s m R S a o B N [ T v   ",
"        v P . U V s W X A Y 0 X Z ` m c B U w 4   ",
"       .T ..F P 6 h } +.@.p Y +.m k x 0 d y #.:   ",
"     .) [ G 4 $.P P P %.&.f Y Q @.V X *.D o h &.  ",
"  - : %.& =.% -.v ;.P P -.>.,.*.b o V f p y ^ G   ",
"  ^ h _ % | 2 =.; &.'.-./ ).*.c y e *.!.9 G @.~.  ",
"  {., 7 / ; t @.].^.. 3 i 4 @./.*.l W >.T (.2     ",
"    ) O &.4 % ^.7 ! P ~ c % ^._.H ; O > -.=.G     ",
"    : % < i :.5 O 0 # 4 z > <.-.: 3 1 K Q ,.<     ",
"    -.[ [.b Q z m 0 W $ 9 7 <.% L e Y m }.c       ",
"    |.^ =.s 1.Q X !.1., / 2.|.].3.e m m 4.g       ",
"      5.t 1 5 Q x o C =.t { 4 _.s Y 5 6.7.8       ",
"    8.| 9.+.Q O s 3.9 # 5., g O 0.a.1.b.q =       ",
"    F =., i x 5 k [.u h [.2 y y n X Q c.C         ",
"      d.1.0 d p e.v _ { / h [.V 1.Q x 6.2         ",
"                                                  "};
