/* XPM */
static char * sagittal_xpm[] = {
"25 25 161 2",
"  	c None",
". 	c #000000",
"+ 	c #090909",
"@ 	c #080808",
"# 	c #070707",
"$ 	c #060606",
"% 	c #050505",
"& 	c #030303",
"* 	c #0B0B0B",
"= 	c #040404",
"- 	c #0F0F0F",
"; 	c #2A2A2A",
"> 	c #414141",
", 	c #505050",
"' 	c #545454",
") 	c #535353",
"! 	c #4F4F4F",
"~ 	c #484848",
"{ 	c #333333",
"] 	c #1E1E1E",
"^ 	c #0C0C0C",
"/ 	c #0A0A0A",
"( 	c #292929",
"_ 	c #5D5D5D",
": 	c #656565",
"< 	c #555555",
"[ 	c #3C3C3C",
"} 	c #3D3D3D",
"| 	c #434343",
"1 	c #4D4D4D",
"2 	c #525252",
"3 	c #565656",
"4 	c #636363",
"5 	c #595959",
"6 	c #252525",
"7 	c #282828",
"8 	c #474747",
"9 	c #353535",
"0 	c #494949",
"a 	c #606060",
"b 	c #6B6B6B",
"c 	c #6D6D6D",
"d 	c #585858",
"e 	c #4A4A4A",
"f 	c #444444",
"g 	c #767676",
"h 	c #343434",
"i 	c #151515",
"j 	c #5E5E5E",
"k 	c #393939",
"l 	c #707070",
"m 	c #8C8C8C",
"n 	c #929292",
"o 	c #8A8A8A",
"p 	c #858585",
"q 	c #9A9A9A",
"r 	c #949494",
"s 	c #898989",
"t 	c #5A5A5A",
"u 	c #515151",
"v 	c #676767",
"w 	c #383838",
"x 	c #818181",
"y 	c #7C7C7C",
"z 	c #7E7E7E",
"A 	c #848484",
"B 	c #888888",
"C 	c #909090",
"D 	c #A4A4A4",
"E 	c #A0A0A0",
"F 	c #808080",
"G 	c #5F5F5F",
"H 	c #2E2E2E",
"I 	c #404040",
"J 	c #111111",
"K 	c #363636",
"L 	c #7A7A7A",
"M 	c #737373",
"N 	c #7D7D7D",
"O 	c #959595",
"P 	c #8F8F8F",
"Q 	c #7B7B7B",
"R 	c #8D8D8D",
"S 	c #575757",
"T 	c #212121",
"U 	c #454545",
"V 	c #787878",
"W 	c #999999",
"X 	c #727272",
"Y 	c #6F6F6F",
"Z 	c #A6A6A6",
"` 	c #919191",
" .	c #868686",
"..	c #7F7F7F",
"+.	c #131313",
"@.	c #797979",
"#.	c #989898",
"$.	c #ADADAD",
"%.	c #424242",
"&.	c #020202",
"*.	c #171717",
"=.	c #161616",
"-.	c #616161",
";.	c #777777",
">.	c #8E8E8E",
",.	c #838383",
"'.	c #9E9E9E",
").	c #B4B4B4",
"!.	c #A8A8A8",
"~.	c #222222",
"{.	c #262626",
"].	c #1B1B1B",
"^.	c #6C6C6C",
"/.	c #6E6E6E",
"(.	c #3E3E3E",
"_.	c #272727",
":.	c #141414",
"<.	c #181818",
"[.	c #3B3B3B",
"}.	c #4B4B4B",
"|.	c #8B8B8B",
"1.	c #010101",
"2.	c #5B5B5B",
"3.	c #373737",
"4.	c #2F2F2F",
"5.	c #0E0E0E",
"6.	c #878787",
"7.	c #9F9F9F",
"8.	c #2C2C2C",
"9.	c #626262",
"0.	c #828282",
"a.	c #2D2D2D",
"b.	c #242424",
"c.	c #6A6A6A",
"d.	c #4C4C4C",
"e.	c #979797",
"f.	c #2B2B2B",
"g.	c #121212",
"h.	c #0D0D0D",
"i.	c #717171",
"j.	c #757575",
"k.	c #323232",
"l.	c #646464",
"m.	c #A9A9A9",
"n.	c #101010",
"o.	c #3A3A3A",
"p.	c #747474",
"q.	c #4E4E4E",
"r.	c #939393",
"s.	c #B7B7B7",
"t.	c #5C5C5C",
"u.	c #9D9D9D",
"v.	c #B8B8B8",
"w.	c #232323",
"x.	c #666666",
"y.	c #A3A3A3",
"z.	c #A2A2A2",
"A.	c #AFAFAF",
"B.	c #ABABAB",
"C.	c #313131",
"D.	c #696969",
". + @ # @ @ + @ # $ # % $ $ # $ $ @ # @ + @ @ @ @ ",
". + @ # @ # + @ % & $ # * * + # % % = = $ @ # # @ ",
". + + + @ + + = - ; > , ' ' ) ! ~ { ] ^ = @ @ # + ",
". / + / @ + = ( _ : < ~ [ } | 1 2 3 4 5 6 # @ @ / ",
". / + @ @ & 7 _ 8 9 0 a b c b d e f 9 ' g h # + / ",
". * + # % i j k ' l m n o p n q r s t { u v i @ / ",
". / + @ & w 0 t x y z x A B p C D E F G H G I @ + ",
". * + $ J K k L M N m O q E E P A m Q R ' k S - @ ",
". * / $ H T U V g R W m X Y r Z ` F  .O ..h ) 7 % ",
". * # +.9 J t z X A E V @.F z #.$.n B P  .0 %.I &.",
". # # *.I =.; -.;.F >.,.O '.m ,.).!.z p P -.K f = ",
". @ / ~.%.{.T ].h u a ^./.C '.^.z x L m q M (.8 @ ",
". # ~.} 0 U f _.:.*.<.[.}.s '.@./.;.,.|.R B u }./ ",
"1.( 8 [.~ 2.! 3.I 4.# 5.3.6.7.|.o B ;.s C M 4 U # ",
"& 4 u 7 ! b d 2._ }.8.3.5 9.|.p M r |.0.l U /.a./ ",
". b.< j 5 _ G /.c.d.; e v f /.e.|.y >.6.%.f.d g.h.",
". * } ..}.f ! d.j | $ 1 p ! d.i.V _ ..: 3.2.U / 5.",
". ^ 8 ! 9 v j.g ..m ' f N : k.3.8 e c Y @.7.9 + * ",
". - 3.0 l.o @.N z m >.) l j k.! Z r '.z m.p =.* ^ ",
". n.o.4 2.F p.@.,.0.p.< 5 q.o.c.r.r z z s.t / h.h.",
". h.].t.G c g @.L B Q 2.G 2 f i.F '.g u.v.k # ^ h.",
". h.w.b x.^.@...F r.l ' t.< t ..y.z.p.A.D ] / n.- ",
". J T 2.< v L g x l.H u l.d M M A ,.@.B.Q g.5.- g.",
". =.J C.p.m q C D.I 7 2 5 u l.;.p.@.L u.d * ^ * :.",
". . . 1.= = % = & &.1.&.&.&.& = & & = % &.. . . . "};
