/* XPM */
static char * send_xpm[] = {
"28 26 447 2",
"  	c None",
". 	c #6A6865",
"+ 	c #5E5B58",
"@ 	c #626262",
"# 	c #797979",
"$ 	c #777777",
"% 	c #787878",
"& 	c #969A9E",
"* 	c #82827F",
"= 	c #7C7C7A",
"- 	c #797976",
"; 	c #7D7C7B",
"> 	c #6D6D6C",
", 	c #6C6C6A",
"' 	c #6B6B6A",
") 	c #6C6B69",
"! 	c #6A6765",
"~ 	c #676563",
"{ 	c #5F5E5A",
"] 	c #50504F",
"^ 	c #616161",
"/ 	c #5E5E5E",
"( 	c #636362",
"_ 	c #676766",
": 	c #666665",
"< 	c #6F706E",
"[ 	c #727271",
"} 	c #767674",
"| 	c #6F6F6C",
"1 	c #8B8B89",
"2 	c #696967",
"3 	c #6B6B69",
"4 	c #6A6A68",
"5 	c #686866",
"6 	c #676664",
"7 	c #666462",
"8 	c #5F5E5B",
"9 	c #4E4E4D",
"0 	c #7C7C7C",
"a 	c #6F6F70",
"b 	c #717171",
"c 	c #757575",
"d 	c #7B7B7B",
"e 	c #818181",
"f 	c #898989",
"g 	c #939393",
"h 	c #575756",
"i 	c #8E8E8C",
"j 	c #686765",
"k 	c #676765",
"l 	c #666664",
"m 	c #646462",
"n 	c #636361",
"o 	c #5E5C5A",
"p 	c #4D4D4D",
"q 	c #6A6A6B",
"r 	c #6C6C6E",
"s 	c #727273",
"t 	c #7E7E7E",
"u 	c #848484",
"v 	c #8D8D8D",
"w 	c #555654",
"x 	c #929290",
"y 	c #626260",
"z 	c #61615F",
"A 	c #5D5C59",
"B 	c #4B4B4B",
"C 	c #747474",
"D 	c #666667",
"E 	c #5A5A5D",
"F 	c #565657",
"G 	c #595958",
"H 	c #5D5D5D",
"I 	c #656665",
"J 	c #666767",
"K 	c #888888",
"L 	c #525252",
"M 	c #939391",
"N 	c #626261",
"O 	c #616160",
"P 	c #60605E",
"Q 	c #605F5D",
"R 	c #5B5A58",
"S 	c #4A4A4A",
"T 	c #727272",
"U 	c #5E5E5F",
"V 	c #5D5D5E",
"W 	c #6A6A6A",
"X 	c #908F8B",
"Y 	c #5F5E5E",
"Z 	c #4F4F4E",
"` 	c #90908E",
" .	c #606060",
"..	c #5F5F5F",
"+.	c #5E5E5C",
"@.	c #5A5957",
"#.	c #484849",
"$.	c #6D6D6D",
"%.	c #59595A",
"&.	c #555557",
"*.	c #6C6C6D",
"=.	c #717173",
"-.	c #737375",
";.	c #6B6B6C",
">.	c #767676",
",.	c #566465",
"'.	c #5D5E5E",
").	c #5C5C5D",
"!.	c #5B5B5C",
"~.	c #5C5B5B",
"{.	c #595757",
"].	c #474747",
"^.	c #686869",
"/.	c #4D4D4F",
"(.	c #3E3E40",
"_.	c #4B4A4C",
":.	c #4B4B4D",
"<.	c #4E4E50",
"[.	c #525253",
"}.	c #515152",
"|.	c #3F3F3F",
"1.	c #868685",
"2.	c #9D1F10",
"3.	c #B10E0D",
"4.	c #B10C0C",
"5.	c #B00D0D",
"6.	c #B50909",
"7.	c #8A3030",
"8.	c #5F5959",
"9.	c #595D5D",
"0.	c #5B5B5B",
"a.	c #5B5A5A",
"b.	c #5A595A",
"c.	c #585657",
"d.	c #454545",
"e.	c #656567",
"f.	c #464648",
"g.	c #3B3B3E",
"h.	c #414143",
"i.	c #414142",
"j.	c #434344",
"k.	c #454547",
"l.	c #48484A",
"m.	c #3C3C3E",
"n.	c #373737",
"o.	c #828283",
"p.	c #AA180F",
"q.	c #B5110E",
"r.	c #B10D0D",
"s.	c #B00C0C",
"t.	c #AF0B0B",
"u.	c #AD0303",
"v.	c #AD0C0C",
"w.	c #A91515",
"x.	c #744343",
"y.	c #565C5D",
"z.	c #595758",
"A.	c #585757",
"B.	c #585656",
"C.	c #575455",
"D.	c #424243",
"E.	c #616163",
"F.	c #454447",
"G.	c #4D4D50",
"H.	c #515053",
"I.	c #525255",
"J.	c #555558",
"K.	c #4A4A4C",
"L.	c #3A3A3B",
"M.	c #7F7F7F",
"N.	c #AB1B10",
"O.	c #BD1611",
"P.	c #B91310",
"Q.	c #AF0C0C",
"R.	c #AF0D0D",
"S.	c #B62120",
"T.	c #E5B2AD",
"U.	c #BB3A36",
"V.	c #AF0A0A",
"W.	c #B20A0A",
"X.	c #8D2F2F",
"Y.	c #535858",
"Z.	c #575456",
"`.	c #565455",
" +	c #555354",
".+	c #5D5D5F",
"++	c #3F3F41",
"@+	c #333334",
"#+	c #3B3B3D",
"$+	c #363637",
"%+	c #3C3C3C",
"&+	c #323232",
"*+	c #7A7A7A",
"=+	c #A62613",
"-+	c #B61510",
";+	c #C52015",
">+	c #B20E0D",
",+	c #B62222",
"'+	c #FBF7F4",
")+	c #F9F3F1",
"!+	c #C9625F",
"~+	c #B21615",
"{+	c #B00909",
"]+	c #7E3636",
"^+	c #535758",
"/+	c #585857",
"(+	c #575555",
"_+	c #3D3D3D",
":+	c #5A5A5C",
"<+	c #484848",
"[+	c #353535",
"}+	c #2E2E2E",
"|+	c #383839",
"1+	c #414141",
"2+	c #444444",
"3+	c #494949",
"4+	c #3F3F40",
"5+	c #313131",
"6+	c #AC1910",
"7+	c #C41C13",
"8+	c #C11D13",
"9+	c #AF0F0F",
"0+	c #B41A1A",
"a+	c #B41B1B",
"b+	c #B82625",
"c+	c #E5B0AE",
"d+	c #FFFFFF",
"e+	c #DD9F9B",
"f+	c #BC302F",
"g+	c #A70B0C",
"h+	c #604A4A",
"i+	c #4F5251",
"j+	c #525151",
"k+	c #4F4F4F",
"l+	c #444445",
"m+	c #303031",
"n+	c #2D2D2D",
"o+	c #303030",
"p+	c #3A3A3A",
"q+	c #707070",
"r+	c #B0110E",
"s+	c #C92416",
"t+	c #BD1009",
"u+	c #CF7C77",
"v+	c #E9BFBD",
"w+	c #E9BDBD",
"x+	c #E9BEBE",
"y+	c #F4DFDE",
"z+	c #F0D2D0",
"A+	c #BE3E3B",
"B+	c #822727",
"C+	c #4F5755",
"D+	c #535351",
"E+	c #505050",
"F+	c #424242",
"G+	c #2F2F2F",
"H+	c #343434",
"I+	c #363636",
"J+	c #6B6B6B",
"K+	c #B0100E",
"L+	c #BE140A",
"M+	c #CE7874",
"N+	c #FCFAF9",
"O+	c #FEFEFE",
"P+	c #FEFFFE",
"Q+	c #FAF5F4",
"R+	c #B71817",
"S+	c #911F1F",
"T+	c #4F4C4A",
"U+	c #4D4D4B",
"V+	c #3B3B3A",
"W+	c #545454",
"X+	c #252525",
"Y+	c #212121",
"Z+	c #292929",
"`+	c #2C2C2C",
" @	c #2C2C2D",
".@	c #696968",
"+@	c #AC1A10",
"@@	c #C21D13",
"#@	c #C42014",
"$@	c #B2120F",
"%@	c #F2DFDD",
"&@	c #C86C63",
"*@	c #AF0505",
"=@	c #941F1E",
"-@	c #534947",
";@	c #4B4C4A",
">@	c #393938",
",@	c #535353",
"'@	c #383939",
")@	c #434343",
"!@	c #555656",
"~@	c #616262",
"{@	c #60605F",
"]@	c #A52813",
"^@	c #B6120E",
"/@	c #CA2316",
"(@	c #B40805",
"_@	c #CE6765",
":@	c #ECD1CB",
"<@	c #D68B86",
"[@	c #BE3D39",
"}@	c #DC9A96",
"|@	c #E6B9B5",
"1@	c #94201F",
"2@	c #534A49",
"3@	c #3A3A38",
"4@	c #555555",
"5@	c #8A8A8A",
"6@	c #8C8C8B",
"7@	c #8F8F8F",
"8@	c #959595",
"9@	c #9F9E9E",
"0@	c #A6A6A4",
"a@	c #999996",
"b@	c #6E6E6B",
"c@	c #AC160F",
"d@	c #BF1310",
"e@	c #C21210",
"f@	c #AA0000",
"g@	c #AC0102",
"h@	c #C65653",
"i@	c #EDCFCA",
"j@	c #B82524",
"k@	c #842C2B",
"l@	c #495251",
"m@	c #4F4F4D",
"n@	c #393937",
"o@	c #464646",
"p@	c #4A4B4B",
"q@	c #7D7D7B",
"r@	c #81827F",
"s@	c #7E7E7B",
"t@	c #71716F",
"u@	c #585856",
"v@	c #383837",
"w@	c #575754",
"x@	c #AF120E",
"y@	c #BA0D0E",
"z@	c #B40D0D",
"A@	c #B72523",
"B@	c #A71514",
"C@	c #604A47",
"D@	c #4F514F",
"E@	c #51514F",
"F@	c #1E1E1E",
"G@	c #272726",
"H@	c #282828",
"I@	c #30312F",
"J@	c #2B2B29",
"K@	c #2A2A29",
"L@	c #313130",
"M@	c #353633",
"N@	c #575753",
"O@	c #AD130E",
"P@	c #B10B0B",
"Q@	c #B00E0E",
"R@	c #6A4140",
"S@	c #505451",
"T@	c #525250",
"U@	c #545452",
"V@	c #3B3C3C",
"W@	c #222322",
"X@	c #2A2B29",
"Y@	c #242423",
"Z@	c #2C2E2C",
"`@	c #272826",
" #	c #2C2D2B",
".#	c #333532",
"+#	c #343531",
"@#	c #565752",
"##	c #A91D11",
"$#	c #AD140E",
"%#	c #B00C0D",
"&#	c #B10D0B",
"*#	c #991B1A",
"=#	c #594D4B",
"-#	c #515250",
";#	c #555552",
">#	c #393936",
",#	c #3B3C3B",
"'#	c #222221",
")#	c #292928",
"!#	c #363734",
"~#	c #262826",
"{#	c #2C2C2B",
"]#	c #373735",
"^#	c #383835",
"/#	c #4D4F4C",
"(#	c #51524E",
"_#	c #555551",
":#	c #393A36",
"<#	c #3E403E",
"[#	c #252624",
"}#	c #282926",
"|#	c #2F302E",
"1#	c #373835",
"2#	c #2B2C2A",
"3#	c #2F2F2D",
"4#	c #333431",
"5#	c #343532",
"6#	c #575853",
"7#	c #4D4D4A",
"8#	c #4F504C",
"9#	c #51524C",
"0#	c #53544F",
"a#	c #393B37",
"b#	c #3F413D",
"c#	c #232422",
"d#	c #2B2C29",
"e#	c #252523",
"f#	c #292B28",
"g#	c #333430",
"h#	c #343632",
"i#	c #484A45",
"j#	c #4D4E48",
"k#	c #52534E",
"l#	c #3A3C37",
"m#	c #232321",
"n#	c #2A2C29",
"o#	c #262724",
"p#	c #373935",
"q#	c #40413D",
"r#	c #2C2E2B",
"s#	c #383935",
"t#	c #585953",
"u#	c #363733",
"v#	c #353531",
"w#	c #383A35",
"x#	c #41433E",
"y#	c #262825",
"z#	c #30322E",
"A#	c #2F302D",
"B#	c #3B3C38",
"C#	c #3E3F3B",
"D#	c #393A37",
"E#	c #40413C",
"F#	c #3E403B",
"G#	c #54554E",
"H#	c #484944",
"I#	c #41423F",
"J#	c #30312E",
"K#	c #30302E",
"L#	c #31322F",
"M#	c #3B3B39",
"N#	c #42433F",
"                            . + @ # $ % % $ & * = = - ; ",
"                  > , ' ) ! ~ { ] # ^ / ( _ : < [ } | 1 ",
"                2 3 4 2 5 6 7 8 9 0 a b c % d e f g h i ",
"                j 2 5 k l m n o p c q r s c % t u v w x ",
"                7 6 l l m y z A B C D E F G H I J K L M ",
"                N ( ( N O P Q R S T U V W f g X Y t Z ` ",
"                 .^  . .../ +.@.#.$.%.&.*.=.-.$ ;.>.S 1 ",
"                ,.'./ / ).!.~.{.].^./.(._.:.S <.[.}.|.1.",
"      2.3.4.5.6.7.8.9.0.a.b.b.c.d.e.f.g.h.i.j.k.l.m.n.o.",
"    p.q.r.s.t.u.v.w.x.y.z.A.B.C.D.E.l.F.G.H.I.&.J.K.L.M.",
"  N.O.P.Q.R.S.T.U.V.W.X.Y.Z.`. +|..+++@+#+#+L.$+%+$+&+*+",
"=+-+;+>+t.t.,+'+)+!+~+{+]+^+/+(+_+:+<+[+}+|+1+2+3+4+5+$ ",
"6+7+8+9+0+a+b+c+d+d+e+f+g+h+i+j+L.k+l+m+n+n+5+o+_+p+5+q+",
"r+s+t+u+v+w+x+y+d+d+d+z+A+B+C+D+p+E+F+G+H+[+&+5+p+I+G+J+",
"K+s+L+M+N+d+d+d+O+P+d+Q+R+S+T+U+V+W+F+X+Y+Z+}+`+H+o+ @.@",
"+@@@#@$@%@d+d+d+d+O+d+&@*@=@-@;@>@,@].'@1+)@p W+!@~@{@' ",
"]@^@/@(@_@:@<@[@}@d+|@u.4.1@2@U+3@4@t 5@5@6@7@8@9@0@a@b@",
"  c@d@e@*@f@g@g@h@i@j@Q.s.k@l@m@n@o@p@ .[ q@r@s@t@u@v@w@",
"    x@y@z@5.5.Q.~+A@5.s.B@C@D@E@n@%+F@G@H@I@3@J@K@L@M@N@",
"      O@5.s.R.5.Q.t.P@Q@R@S@T@U@n@V@W@X@Y@Z@v@`@ #.#+#@#",
"        ##$#s.%#s.&#*#=#-#E@T@;#>#,#'#)#Y@ #!#~#{#]#^#N@",
"                      /#E@E@(#_#:#<#[# #}#|#1#2#3#4#5#6#",
"                        7#8#9#0#a#b#c#d#e#2#M@f#2#g#h#6#",
"                          i#j#k#l#b#m#n#o#p#q#h#r#5#s#t#",
"                            u#v#w#x#y#z#A#B#C#a#D#E#F#G#",
"                          H#I#J#3#1#K#L#        M#N#i#  "};
