/* XPM */
static char * skin_xpm[] = {
"28 28 448 2",
"  	c None",
". 	c #6B4622",
"+ 	c #C08347",
"@ 	c #FAB56E",
"# 	c #F3AE6A",
"$ 	c #DA9858",
"% 	c #C28447",
"& 	c #A56E39",
"* 	c #6E4824",
"= 	c #F8B46E",
"- 	c #F1AD69",
"; 	c #D99757",
"> 	c #AB723B",
", 	c #986432",
"' 	c #704725",
") 	c #744A26",
"! 	c #794E28",
"~ 	c #7D5029",
"{ 	c #7C5029",
"] 	c #80522A",
"^ 	c #704724",
"/ 	c #714A25",
"( 	c #C28549",
"_ 	c #F8B36D",
": 	c #EFAB68",
"< 	c #D79656",
"[ 	c #BF8246",
"} 	c #AA713A",
"| 	c #8C5C2D",
"1 	c #9D6A39",
"2 	c #966637",
"3 	c #7A4F27",
"4 	c #8A5A2D",
"5 	c #946132",
"6 	c #996634",
"7 	c #9A6635",
"8 	c #905E30",
"9 	c #8E5C30",
"0 	c #926031",
"a 	c #82552C",
"b 	c #734C25",
"c 	c #C4864A",
"d 	c #F9B46E",
"e 	c #EEAB67",
"f 	c #D79655",
"g 	c #BE8145",
"h 	c #A87039",
"i 	c #946232",
"j 	c #C3874A",
"k 	c #8A5D33",
"l 	c #85562B",
"m 	c #9D6835",
"n 	c #AC743C",
"o 	c #B37941",
"p 	c #B37A41",
"q 	c #AF7740",
"r 	c #AB733E",
"s 	c #A8723D",
"t 	c #A46D3B",
"u 	c #906033",
"v 	c #764D25",
"w 	c #C5874A",
"x 	c #D49554",
"y 	c #BE8045",
"z 	c #A66E38",
"A 	c #A66F3B",
"B 	c #C88A4C",
"C 	c #7A502C",
"D 	c #86572B",
"E 	c #B1773F",
"F 	c #C18549",
"G 	c #C5884C",
"H 	c #C1864A",
"I 	c #C0854B",
"J 	c #C5894F",
"K 	c #C78B50",
"L 	c #C1854B",
"M 	c #A47040",
"N 	c #764D26",
"O 	c #EEAA67",
"P 	c #D29253",
"Q 	c #BD8045",
"R 	c #A56E38",
"S 	c #AE763F",
"T 	c #C78A4C",
"U 	c #734A29",
"V 	c #794D27",
"W 	c #946033",
"X 	c #A76F3D",
"Y 	c #BA7F48",
"Z 	c #C1854D",
"` 	c #C68950",
" .	c #D29459",
"..	c #D39559",
"+.	c #C68A51",
"@.	c #C88B52",
"#.	c #CC8E54",
"$.	c #AD7846",
"%.	c #7A5028",
"&.	c #C2864A",
"*.	c #F5B16D",
"=.	c #EBA866",
"-.	c #D29252",
";.	c #BD8145",
">.	c #A66F39",
",.	c #B77D44",
"'.	c #BE8549",
").	c #754A29",
"!.	c #6A4122",
"~.	c #81522B",
"{.	c #9F6839",
"].	c #B37845",
"^.	c #C2854E",
"/.	c #CB8C55",
"(.	c #CA8B55",
"_.	c #C78A54",
":.	c #C08450",
"<.	c #BC804C",
"[.	c #BF824E",
"}.	c #C68853",
"|.	c #B17948",
"1.	c #936035",
"2.	c #BD8049",
"3.	c #E09F62",
"4.	c #D8985C",
"5.	c #C4864D",
"6.	c #AF763F",
"7.	c #9E6836",
"8.	c #B97E45",
"9.	c #B27B44",
"0.	c #774C2B",
"a.	c #724725",
"b.	c #8A592F",
"c.	c #9F683A",
"d.	c #B77C47",
"e.	c #C58850",
"f.	c #CE8E57",
"g.	c #CC8D56",
"h.	c #CB8D56",
"i.	c #C78954",
"j.	c #C68953",
"k.	c #C88A54",
"l.	c #B77C4C",
"m.	c #9E683B",
"n.	c #C0824C",
"o.	c #E7A365",
"p.	c #D5955B",
"q.	c #AE7340",
"r.	c #A26939",
"s.	c #B77A44",
"t.	c #A06E3C",
"u.	c #7F512F",
"v.	c #A06A39",
"w.	c #B57B46",
"x.	c #C3854E",
"y.	c #D3945B",
"z.	c #CD8F57",
"A.	c #C58853",
"B.	c #C18551",
"C.	c #C98A54",
"D.	c #B67D4C",
"E.	c #A06A3E",
"F.	c #C2854D",
"G.	c #EBA869",
"H.	c #DA995E",
"I.	c #BC7F4A",
"J.	c #B07441",
"K.	c #A86E3C",
"L.	c #BB7E47",
"M.	c #946436",
"N.	c #7D502E",
"O.	c #744C26",
"P.	c #A16C38",
"Q.	c #B87D44",
"R.	c #C98C4F",
"S.	c #CE9155",
"T.	c #E1A264",
"U.	c #DD9E61",
"V.	c #D6985D",
"W.	c #CB8F56",
"X.	c #C48752",
"Y.	c #C18650",
"Z.	c #C68952",
"`.	c #B27A4A",
" +	c #9A663A",
".+	c #BF824C",
"++	c #E09E62",
"@+	c #D3945A",
"#+	c #BE814B",
"$+	c #B17542",
"%+	c #A56C3C",
"&+	c #C08249",
"*+	c #83582F",
"=+	c #845431",
"-+	c #6C4523",
";+	c #82552B",
">+	c #9E6A37",
",+	c #C68A4D",
"'+	c #D7995B",
")+	c #E1A363",
"!+	c #E6A665",
"~+	c #E8A767",
"{+	c #E3A464",
"]+	c #D89A5E",
"^+	c #CE9157",
"/+	c #C58A51",
"(+	c #A97646",
"_+	c #7C5129",
":+	c #E8A766",
"<+	c #DF9E5F",
"[+	c #C3864C",
"}+	c #AE733F",
"|+	c #AC733E",
"1+	c #774F2A",
"2+	c #80512F",
"3+	c #7A502A",
"4+	c #6B4522",
"5+	c #B37B46",
"6+	c #DB9D5F",
"7+	c #EAA968",
"8+	c #E5A565",
"9+	c #D4975A",
"0+	c #CD9056",
"a+	c #C88C53",
"b+	c #A27142",
"c+	c #7A5027",
"d+	c #CD8F50",
"e+	c #F9B56F",
"f+	c #D19152",
"g+	c #B3783F",
"h+	c #B87E44",
"i+	c #764D29",
"j+	c #7B4D2C",
"k+	c #855A30",
"l+	c #8A5D32",
"m+	c #C1864D",
"n+	c #BB854E",
"o+	c #A26E3C",
"p+	c #E2A262",
"q+	c #ECAB69",
"r+	c #EBAA68",
"s+	c #BC824A",
"t+	c #9C6B3D",
"u+	c #795027",
"v+	c #CE8F50",
"w+	c #FAB46F",
"x+	c #CE8E51",
"y+	c #B47940",
"z+	c #BE8449",
"A+	c #6D4725",
"B+	c #73492A",
"C+	c #C4884D",
"D+	c #BE834A",
"E+	c #87592F",
"F+	c #8C5D31",
"G+	c #A6703D",
"H+	c #A9723D",
"I+	c #E2A160",
"J+	c #F1AE6B",
"K+	c #F2AF6C",
"L+	c #DA9A5B",
"M+	c #BE844B",
"N+	c #BB8149",
"O+	c #A37242",
"P+	c #794F27",
"Q+	c #FAB66F",
"R+	c #EEAB68",
"S+	c #D09051",
"T+	c #B67A41",
"U+	c #CA8C4E",
"V+	c #B67D45",
"W+	c #6C4625",
"X+	c #B07944",
"Y+	c #E0A061",
"Z+	c #C98D51",
"`+	c #8C5D30",
" @	c #754B25",
".@	c #8A5B2E",
"+@	c #C98C4D",
"@@	c #E9A764",
"#@	c #F4B16E",
"$@	c #F0AD69",
"%@	c #D59656",
"&@	c #C3874C",
"*@	c #CB8E53",
"=@	c #A87644",
"-@	c #784F27",
";@	c #FAB570",
">@	c #D09052",
",@	c #B67B40",
"'@	c #D19253",
")@	c #AA743F",
"!@	c #CB8D50",
"~@	c #CC9053",
"{@	c #BB8148",
"]@	c #84572D",
"^@	c #81552A",
"/@	c #E4A360",
"(@	c #F7B36E",
"_@	c #F2AE6A",
":@	c #E3A260",
"<@	c #D69757",
"[@	c #D8995B",
"}@	c #E5A464",
"|@	c #B6814D",
"1@	c #7B5128",
"2@	c #D19251",
"3@	c #FBB671",
"4@	c #EDAA67",
"5@	c #CF9051",
"6@	c #BA7E43",
"7@	c #A06D3A",
"8@	c #996837",
"9@	c #CE9052",
"0@	c #C68A4F",
"a@	c #82562C",
"b@	c #956332",
"c@	c #C6884C",
"d@	c #DF9F5E",
"e@	c #E8A663",
"f@	c #E7A563",
"g@	c #DB9A5A",
"h@	c #DD9D5D",
"i@	c #E7A665",
"j@	c #BF8853",
"k@	c #7C5229",
"l@	c #FCB872",
"m@	c #CE8E50",
"n@	c #9D6A38",
"o@	c #674122",
"p@	c #774E27",
"q@	c #A06D3B",
"r@	c #986535",
"s@	c #7F532A",
"t@	c #91602F",
"u@	c #C38649",
"v@	c #E5A360",
"w@	c #F3AF6A",
"x@	c #F5B26C",
"y@	c #DC9B5A",
"z@	c #D19355",
"A@	c #DC9C5C",
"B@	c #C18A52",
"C@	c #D39353",
"D@	c #FCB670",
"E@	c #F1AC68",
"F@	c #BD8044",
"G@	c #C4884C",
"H@	c #9A6837",
"I@	c #684422",
"J@	c #AF763E",
"K@	c #9E6937",
"L@	c #85562C",
"M@	c #AA723B",
"N@	c #D49454",
"O@	c #F5B26D",
"P@	c #D79757",
"Q@	c #C6894C",
"R@	c #D79859",
"S@	c #C28A52",
"T@	c #7D5229",
"U@	c #FBB670",
"V@	c #EFAC68",
"W@	c #A06C38",
"X@	c #85592E",
"Y@	c #976435",
"Z@	c #986636",
"`@	c #895A2E",
" #	c #BB7F45",
".#	c #DE9E5C",
"+#	c #DE9D5B",
"@#	c #C98B4D",
"##	c #C78A4E",
"$#	c #E6A563",
"%#	c #C88F57",
"&#	c #7F5329",
"*#	c #D49453",
"=#	c #D49354",
"-#	c #86572C",
";#	c #946233",
">#	c #906135",
",#	c #A8703A",
"'#	c #D09151",
")#	c #EEAB66",
"!#	c #D19252",
"~#	c #C6884B",
"{#	c #EDAA66",
"]#	c #C48C55",
"^#	c #7F542A",
"/#	c #D59553",
"(#	c #FCB771",
"_#	c #F2AE69",
":#	c #D59454",
"<#	c #8B5A2D",
"[#	c #A06B36",
"}#	c #C78A4D",
"|#	c #A66F38",
"1#	c #BB7F43",
"2#	c #D29351",
"3#	c #E6A561",
"4#	c #BF8449",
"5#	c #B77D45",
"6#	c #E0A05E",
"7#	c #D99B5D",
"8#	c #704925",
"9#	c #CB8C4C",
"0#	c #F0AC67",
"a#	c #DE9C5A",
"b#	c #A26B36",
"c#	c #734A25",
"d#	c #6D4623",
"e#	c #9B6635",
"f#	c #BC8249",
"g#	c #D19357",
"h#	c #BA7F45",
"i#	c #AD743E",
"j#	c #A06C3C",
"k#	c #99673A",
"l#	c #986639",
"m#	c #8D5C31",
"n#	c #B07946",
"o#	c #D09358",
"p#	c #C4874D",
"q#	c #6F4925",
"r#	c #7A4F28",
"s#	c #976433",
"t#	c #986A3E",
"u#	c #A57343",
"v#	c #9B6A3B",
"w#	c #926134",
"x#	c #8F5F32",
"y#	c #895B2F",
"z#	c #86582F",
"A#	c #A06D3E",
"B#	c #B67F4A",
"C#	c #BF854D",
"D#	c #9C6938",
"E#	c #81542B",
"F#	c #946334",
"G#	c #9E6C3B",
"H#	c #86592F",
"I#	c #7E552F",
"J#	c #8D6135",
"K#	c #AD7843",
"L#	c #B57C45",
"M#	c #966435",
"N#	c #865930",
"O#	c #734C2A",
"                                    . + @ # $ % &       ",
"                                    * % = - ; + > ,     ",
"                      ' ) ! ~ { ] ^ / ( _ : < [ } | 1 2 ",
"                  3 4 5 6 7 8 9 0 a b c d e f g h i j k ",
"                l m n o p q r s t u v w = e x y z A B C ",
"              D m E F G H I J K L M N w d O P Q R S T U ",
"            V W X Y Z `  ...+.@.#.$.%.&.*.=.-.;.>.,.'.).",
"          !.~.{.].^./.(._.:.<.[.}.|.1.2.3.4.5.6.7.8.9.0.",
"          a.b.c.d.e.f.g.h._.i.j.k.l.m.n.o.p.n.q.r.s.t.u.",
"          ' 9 v.w.x.y.z.A.B.A.}.C.D.E.F.G.H.I.J.K.L.M.N.",
"          O.P.Q.R.S.T.U.V.W.X.Y.Z.`. +.+++@+#+$+%+&+*+=+",
"          -+;+>+,+'+)+!+~+{+]+^+/+(+_+&.:+<+[+}+|+G 1+2+",
"            3+4+2 5+6+7+7+8+9+0+a+b+c+d+e+: f+g+h+d+i+j+",
"          k+/+l+m+n+o+p+q+r+'+J s+t+u+v+w+: x+y+F z+A+B+",
"          C+D+E+F+G+H+I+J+K+L+M+N+O+P+v+Q+R+S+T+U+V+W+  ",
"        X+Y+Z+`+ @.@+@@@#@$@%@&@*@=@-@d+;@: >@,@'@)@    ",
"        !@~@{@]@^@o /@(@_@:@<@[@}@|@1@2@3@4@5@6@f+7@    ",
"      8@9@0@{@a@b@c@d@e@f@g@g@h@i@j@k@f+l@R+>@+ m@n@o@  ",
"        p@q@r@s@t@u@v@w@x@y@'@z@A@B@k@C@D@E@C@F@G@H@    ",
"          I@J@K@L@M@N@R+O@P@Q@R@@@S@T@C@U@V@C@Q W@X@    ",
"            Y@Z@a `@ #.#f@+#@###$#%#&#*#U@V@=#F@& -#    ",
"            ;#>#u ^@,#'#)#)#!#~#{#]#^#/#(#_#:#g } <#    ",
"            [#}#v+|#1#2#3#.#4#5#6#7#8#9#0#a#g b#c#      ",
"          d#e#f#g#h#i#j#k#l#m#n#o#p#q#r#s#-#            ",
"              t#u#v#w#x#y#z#A#B#C#D#E#F#G#H#            ",
"                          I#J#K#L#M#z#N#O#              ",
"                                                        ",
"                                                        "};
