/* XPM */
static char * surface_xpm[] = {
"26 27 144 2",
"  	c None",
". 	c #F8F8F8",
"+ 	c #BDBDBD",
"@ 	c #E3E3E3",
"# 	c #929292",
"$ 	c #FEFEFE",
"% 	c #D7D7D7",
"& 	c #E6E6E6",
"* 	c #FFFFFF",
"= 	c #C5C5C5",
"- 	c #5C5C5C",
"; 	c #ACACAC",
"> 	c #E9E9E9",
", 	c #E5E5E5",
"' 	c #D3D3D3",
") 	c #FBFBFB",
"! 	c #EBEBEB",
"~ 	c #8D8D8D",
"{ 	c #C4C4C4",
"] 	c #F9F9F9",
"^ 	c #858585",
"/ 	c #E8E8E8",
"( 	c #A8A8A8",
"_ 	c #B3B3B3",
": 	c #EFEFEF",
"< 	c #FCFCFC",
"[ 	c #BABABA",
"} 	c #6D6D6D",
"| 	c #404040",
"1 	c #E1E1E1",
"2 	c #C1C1C1",
"3 	c #C9C9C9",
"4 	c #AEAEAE",
"5 	c #767676",
"6 	c #B7B7B7",
"7 	c #E2E2E2",
"8 	c #6C6C6C",
"9 	c #6E6E6E",
"0 	c #EDEDED",
"a 	c #A5A5A5",
"b 	c #ADADAD",
"c 	c #AFAFAF",
"d 	c #BFBFBF",
"e 	c #F5F5F5",
"f 	c #CACACA",
"g 	c #8A8A8A",
"h 	c #808080",
"i 	c #D6D6D6",
"j 	c #B8B8B8",
"k 	c #CBCBCB",
"l 	c #BEBEBE",
"m 	c #A4A4A4",
"n 	c #A3A3A3",
"o 	c #C2C2C2",
"p 	c #868686",
"q 	c #6A6A6A",
"r 	c #828282",
"s 	c #888888",
"t 	c #A6A6A6",
"u 	c #818181",
"v 	c #989898",
"w 	c #7E7E7E",
"x 	c #A1A1A1",
"y 	c #C0C0C0",
"z 	c #B1B1B1",
"A 	c #565656",
"B 	c #757575",
"C 	c #D0D0D0",
"D 	c #CCCCCC",
"E 	c #626262",
"F 	c #DFDFDF",
"G 	c #CECECE",
"H 	c #CDCDCD",
"I 	c #EEEEEE",
"J 	c #BCBCBC",
"K 	c #D4D4D4",
"L 	c #9E9E9E",
"M 	c #909090",
"N 	c #666666",
"O 	c #A2A2A2",
"P 	c #707070",
"Q 	c #999999",
"R 	c #A9A9A9",
"S 	c #AAAAAA",
"T 	c #B9B9B9",
"U 	c #7A7A7A",
"V 	c #DEDEDE",
"W 	c #898989",
"X 	c #949494",
"Y 	c #F2F2F2",
"Z 	c #C6C6C6",
"` 	c #525252",
" .	c #777777",
"..	c #747474",
"+.	c #B0B0B0",
"@.	c #7F7F7F",
"#.	c #727272",
"$.	c #959595",
"%.	c #A0A0A0",
"&.	c #BBBBBB",
"*.	c #9D9D9D",
"=.	c #9A9A9A",
"-.	c #5D5D5D",
";.	c #797979",
">.	c #B4B4B4",
",.	c #939393",
"'.	c #9C9C9C",
").	c #4B4B4B",
"!.	c #848484",
"~.	c #636363",
"{.	c #787878",
"].	c #9B9B9B",
"^.	c #9F9F9F",
"/.	c #D8D8D8",
"(.	c #686868",
"_.	c #ABABAB",
":.	c #D5D5D5",
"<.	c #8C8C8C",
"[.	c #D9D9D9",
"}.	c #616161",
"|.	c #E7E7E7",
"1.	c #A7A7A7",
"2.	c #B5B5B5",
"3.	c #8B8B8B",
"4.	c #E4E4E4",
"5.	c #C3C3C3",
"6.	c #969696",
"7.	c #B6B6B6",
"8.	c #D2D2D2",
"9.	c #C7C7C7",
"0.	c #6B6B6B",
"a.	c #B2B2B2",
"b.	c #454545",
"c.	c #979797",
"d.	c #838383",
"e.	c #919191",
"f.	c #7C7C7C",
"g.	c #7D7D7D",
"h.	c #C8C8C8",
"i.	c #8E8E8E",
"j.	c #717171",
"k.	c #7B7B7B",
"l.	c #737373",
"m.	c #656565",
"                                                    ",
"                                        . +   @     ",
"                                      # $ %   &     ",
"                    * = -             ; * >   ,     ",
"                ' ; ) ! ~             { * ] ^ /     ",
"                ( _ : < [ }         | 1 * * 2 3 4   ",
"                5 6 7 ] [ 8         9 0 * * ! 4 a   ",
"                  b c d e f g       h i j k l i m   ",
"                  n o p q r         ( 9 s t u + ;   ",
"                  v w x y z A       B C 4 D E * 6   ",
"                  4 F * G k q       H I J K L M v   ",
"                  N ~ O = + P       Q = 1 R S T U m ",
"                  V W X Y Z B     ` R [  ...+.@.#.s ",
"                  $.%.&.+ ^       *.= =.-.g ' P N   ",
"                ;.=.c ~ >.,.     .@.+.g *.j '.).    ",
"              P l K !.~.{.      ].{.o ^.6 b L       ",
"            E =./.o V x w     (.].O * f S x _.      ",
"            =.3 :.[ O m       j D &.m 1 a [ =.<.    ",
"          S C [.p < _.9     }.|.'.[.~.z 1.{.2.3.    ",
"        1.' 4.0 v V B       5.t ~ =.+   6.X x       ",
"        c :.f R 7.j       3.D   R   z ;.Q ^         ",
"      ( x >.=   8.m     5 9.O 0.= W !.a.b.c.        ",
"  s X $.d.R a.5 Z 3.    e.H ^.f.q g.h {.~ f.        ",
"  h.*.i.'.6   j : g.  - j.M R k.R l.[ 3.o           ",
":.+ O 5.  h ^ G M     m.g +.  # 4 n                 ",
"  z + k.z h.7.      +.T                             ",
"      :.J o                                         "};
