/* XPM */
static const char * trash_xpm[] = {
"28 28 113 2",
"  	c None",
". 	c #797979",
"+ 	c #898989",
"@ 	c #9A9A9A",
"# 	c #A6A6A6",
"$ 	c #BABABA",
"% 	c #C7C7C7",
"& 	c #CECECE",
"* 	c #D9D9D9",
"= 	c #D4D4D4",
"- 	c #9C9C9C",
"; 	c #8A8A8A",
"> 	c #858585",
", 	c #7D7D7D",
"' 	c #949494",
") 	c #AAAAAA",
"! 	c #B1B1B1",
"~ 	c #E0E0E0",
"{ 	c #E3E3E3",
"] 	c #DEDEDE",
"^ 	c #D7D7D7",
"/ 	c #D3D3D3",
"( 	c #CBCBCB",
"_ 	c #BBBBBB",
": 	c #A5A5A5",
"< 	c #979797",
"[ 	c #919191",
"} 	c #ADADAD",
"| 	c #C4C4C4",
"1 	c #CFCFCF",
"2 	c #D5D5D5",
"3 	c #DCDCDC",
"4 	c #CACACA",
"5 	c #AEAEAE",
"6 	c #909090",
"7 	c #7C7C7C",
"8 	c #808080",
"9 	c #9D9D9D",
"0 	c #A3A3A3",
"a 	c #A9A9A9",
"b 	c #ACACAC",
"c 	c #B9B9B9",
"d 	c #C0C0C0",
"e 	c #BEBEBE",
"f 	c #B4B4B4",
"g 	c #ABABAB",
"h 	c #B0B0B0",
"i 	c #999999",
"j 	c #8B8B8B",
"k 	c #787878",
"l 	c #AFAFAF",
"m 	c #BDBDBD",
"n 	c #B5B5B5",
"o 	c #BCBCBC",
"p 	c #C1C1C1",
"q 	c #BFBFBF",
"r 	c #939393",
"s 	c #B3B3B3",
"t 	c #B6B6B6",
"u 	c #C6C6C6",
"v 	c #C8C8C8",
"w 	c #C2C2C2",
"x 	c #B8B8B8",
"y 	c #8F8F8F",
"z 	c #757575",
"A 	c #747474",
"B 	c #CDCDCD",
"C 	c #B7B7B7",
"D 	c #717171",
"E 	c #B2B2B2",
"F 	c #A0A0A0",
"G 	c #838383",
"H 	c #727272",
"I 	c #9B9B9B",
"J 	c #878787",
"K 	c #707070",
"L 	c #A8A8A8",
"M 	c #A7A7A7",
"N 	c #6C6C6C",
"O 	c #C3C3C3",
"P 	c #9F9F9F",
"Q 	c #A4A4A4",
"R 	c #989898",
"S 	c #A2A2A2",
"T 	c #848484",
"U 	c #6D6D6D",
"V 	c #C5C5C5",
"W 	c #929292",
"X 	c #828282",
"Y 	c #6E6E6E",
"Z 	c #C9C9C9",
"` 	c #A1A1A1",
" .	c #818181",
"..	c #6F6F6F",
"+.	c #8D8D8D",
"@.	c #868686",
"#.	c #8C8C8C",
"$.	c #6A6A6A",
"%.	c #959595",
"&.	c #888888",
"*.	c #DADADA",
"=.	c #696969",
"-.	c #DBDBDB",
";.	c #7F7F7F",
">.	c #7B7B7B",
",.	c #646464",
"'.	c #636363",
").	c #737373",
"!.	c #D6D6D6",
"~.	c #8E8E8E",
"{.	c #7E7E7E",
"].	c #7A7A7A",
"^.	c #676767",
"                                                        ",
"                                                        ",
"                                                        ",
"              . + @ # $ % % & * = $ - ; > ,             ",
"            ' ) ! % = ~ { { { ] ^ / ( _ : < <           ",
"            , [ } | 1 2 * 3 ] ^ & 4 | 5 6 7 8           ",
"            9 0 a b c d e f g } h : 9 i j k k           ",
"            l m $ n o p q e o _ o c h ) r 8 7           ",
"            s q t 4 1 u v w e o $ x x g y z A           ",
"            a m _ d u B w e $ c C c } 9 > D             ",
"            0 $ o e | w w c n f f E ! F G H             ",
"            i x $ | 4 p x E h 5 h E # I J K             ",
"              e $ q m e s } L M g g } F G N             ",
"              O q m d x l : P P # } g Q G N             ",
"              d w o | x L P R i S } h P T U             ",
"              O V m _ l : i W ' F M a : X Y             ",
"              4 Z e E a F W j [ @ ) b `  ...            ",
"              & & m E } i +.@.#.@ F b ` G $.            ",
"              w 2 $ f ) %.&.> J #.9 F 0 G Y             ",
"              5 *.t g %.j X X G ; R L F 8               ",
"                ] f [ z ..Y =.z Y =.G @ ,               ",
"                -.- ;.>.;.8 . G H ,.'.).A               ",
"                !.Q ~.~.~.#.@.{.].. H ^.U               ",
"                m a ' [ +.j J 8 >.k A ].G               ",
"                S h L F < ~.&.+ +.' - @                 ",
"                    e V ( v p e $ C t                   ",
"                                                        ",
"                                                        "};
