/* XPM */
static char * viewer_xpm[] = {
"26 26 267 2",
"  	c None",
". 	c #484848",
"+ 	c #484847",
"@ 	c #474849",
"# 	c #545455",
"$ 	c #514F4D",
"% 	c #464747",
"& 	c #474747",
"* 	c #474B50",
"= 	c #62615F",
"- 	c #595D62",
"; 	c #D5D7D8",
"> 	c #70675D",
", 	c #474748",
"' 	c #44474A",
") 	c #5E5E5F",
"! 	c #93959A",
"~ 	c #BDC1C7",
"{ 	c #B1B2B3",
"] 	c #84807D",
"^ 	c #4B4946",
"/ 	c #4C5256",
"( 	c #696A6E",
"_ 	c #C3C3C1",
": 	c #C5C7CA",
"< 	c #707070",
"[ 	c #555858",
"} 	c #A1A6A9",
"| 	c #9B999A",
"1 	c #AAA49F",
"2 	c #4B4A4A",
"3 	c #464646",
"4 	c #454544",
"5 	c #464647",
"6 	c #484F55",
"7 	c #A3A7A9",
"8 	c #CACACB",
"9 	c #A3A09C",
"0 	c #4D4C4C",
"a 	c #474646",
"b 	c #4F5459",
"c 	c #585959",
"d 	c #899095",
"e 	c #8A8279",
"f 	c #3F4145",
"g 	c #ACB2B7",
"h 	c #B3B1AE",
"i 	c #838587",
"j 	c #5C5C5B",
"k 	c #4A4F53",
"l 	c #646668",
"m 	c #84868E",
"n 	c #A4A6A8",
"o 	c #A3A09D",
"p 	c #524F4B",
"q 	c #484747",
"r 	c #5D6369",
"s 	c #8A8B8B",
"t 	c #868584",
"u 	c #535353",
"v 	c #565B61",
"w 	c #A8A8A6",
"x 	c #BBBDBE",
"y 	c #56575D",
"z 	c #44494E",
"A 	c #5A5A59",
"B 	c #686665",
"C 	c #3F464C",
"D 	c #5D5C58",
"E 	c #BBBCBE",
"F 	c #C2C3C4",
"G 	c #676562",
"H 	c #454444",
"I 	c #474746",
"J 	c #6A6E73",
"K 	c #474647",
"L 	c #8C979F",
"M 	c #C8CACC",
"N 	c #A7A4A1",
"O 	c #555658",
"P 	c #505559",
"Q 	c #474545",
"R 	c #4F5860",
"S 	c #706A66",
"T 	c #757F86",
"U 	c #B0B0B0",
"V 	c #8C8A8A",
"W 	c #5D5C5B",
"X 	c #4A5054",
"Y 	c #82848C",
"Z 	c #E0E4E7",
"` 	c #FCF9F4",
" .	c #6A625A",
"..	c #484746",
"+.	c #515355",
"@.	c #4F4D4A",
"#.	c #454647",
"$.	c #454342",
"%.	c #828A91",
"&.	c #514E4C",
"*.	c #41454B",
"=.	c #9FA1A2",
"-.	c #858483",
";.	c #504F4F",
">.	c #565C61",
",.	c #B6B8B9",
"'.	c #D4D3D2",
").	c #BDBDBE",
"!.	c #BDB9B5",
"~.	c #514D48",
"{.	c #505861",
"].	c #A19E9C",
"^.	c #85878B",
"/.	c #928C85",
"(.	c #484643",
"_.	c #5E676E",
":.	c #5D5B59",
"<.	c #5B6063",
"[.	c #6E7276",
"}.	c #4B4C4D",
"|.	c #C0C1C3",
"1.	c #8B867F",
"2.	c #7D7D7D",
"3.	c #B6BABC",
"4.	c #675F57",
"5.	c #3C4146",
"6.	c #DBE2E9",
"7.	c #FAFAF8",
"8.	c #E4E3E2",
"9.	c #D5D0CC",
"0.	c #514E49",
"a.	c #464545",
"b.	c #474C4F",
"c.	c #474848",
"d.	c #4D565D",
"e.	c #645D58",
"f.	c #444343",
"g.	c #A5A29F",
"h.	c #757371",
"i.	c #56585A",
"j.	c #9C9D9F",
"k.	c #9D9D9B",
"l.	c #36302C",
"m.	c #BCC1C4",
"n.	c #C9C9CB",
"o.	c #ABAEB0",
"p.	c #ECEFEF",
"q.	c #B0ABA6",
"r.	c #4C4844",
"s.	c #73787D",
"t.	c #494847",
"u.	c #8A8887",
"v.	c #9A9997",
"w.	c #999A9A",
"x.	c #727374",
"y.	c #A6A5A4",
"z.	c #474846",
"A.	c #A9B1B9",
"B.	c #CDC6BE",
"C.	c #ACB0B2",
"D.	c #E9EDF1",
"E.	c #D9D5D2",
"F.	c #80766C",
"G.	c #454648",
"H.	c #656C73",
"I.	c #545351",
"J.	c #838381",
"K.	c #7C7D80",
"L.	c #9F9F9F",
"M.	c #A8A7A5",
"N.	c #52514F",
"O.	c #777E85",
"P.	c #FDFFFF",
"Q.	c #6D645E",
"R.	c #C1C8D0",
"S.	c #E7E5E4",
"T.	c #B4B2AF",
"U.	c #544C46",
"V.	c #43464A",
"W.	c #585B5D",
"X.	c #5B6064",
"Y.	c #696969",
"Z.	c #A09F9F",
"`.	c #999591",
" +	c #57595C",
".+	c #5B5956",
"++	c #8D959D",
"@+	c #A39D97",
"#+	c #525253",
"$+	c #AFB5B9",
"%+	c #BBBAB9",
"&+	c #A8A3A0",
"*+	c #6F655C",
"=+	c #454748",
"-+	c #4D565E",
";+	c #635D58",
">+	c #454547",
",+	c #878B8F",
"'+	c #9D9994",
")+	c #474A4E",
"!+	c #6D6863",
"~+	c #5A6167",
"{+	c #898787",
"]+	c #696A6B",
"^+	c #6E787F",
"/+	c #ACA6A1",
"(+	c #929496",
"_+	c #6A6764",
":+	c #4E4842",
"<+	c #72787D",
"[+	c #4D4B4A",
"}+	c #505152",
"|+	c #61605F",
"1+	c #54585D",
"2+	c #716B66",
"3+	c #434444",
"4+	c #959EA5",
"5+	c #928D88",
"6+	c #91959B",
"7+	c #A8A297",
"8+	c #454B51",
"9+	c #5B5751",
"0+	c #636B71",
"a+	c #706C69",
"b+	c #67696A",
"c+	c #6E6E6F",
"d+	c #767677",
"e+	c #837871",
"f+	c #42464A",
"g+	c #B4B8BB",
"h+	c #949391",
"i+	c #989B9D",
"j+	c #D4D2CE",
"k+	c #5A5451",
"l+	c #444647",
"m+	c #404347",
"n+	c #8E8F8E",
"o+	c #616364",
"p+	c #747372",
"q+	c #95979A",
"r+	c #887F78",
"s+	c #50575E",
"t+	c #9C9C9A",
"u+	c #979EA1",
"v+	c #B8B6B6",
"w+	c #91979B",
"x+	c #A19887",
"y+	c #433E3E",
"z+	c #5A6168",
"A+	c #989897",
"B+	c #8C8D8D",
"C+	c #B0B1B2",
"D+	c #59524B",
"E+	c #586068",
"F+	c #95989C",
"G+	c #E3E3E2",
"H+	c #FFFFFF",
"I+	c #B0A292",
"J+	c #3F4042",
"K+	c #454749",
"L+	c #666767",
"M+	c #4B4947",
"N+	c #61686E",
"O+	c #97989A",
"P+	c #8C8B89",
"Q+	c #66615B",
"R+	c #444444",
". . . . . . . . . . . . . . . . .                   ",
". . . . . . . . . . . . . . . . . .                 ",
". + @ # $ % & . . . . . . . . . . .                 ",
"+ * = - ; > % . . , & . . . . . . .                 ",
"' ) ! ~ { ] ^ . & + . . . . . . . . . . . .         ",
"/ ( _ : < . . . . . . . . . . . . . . . . .         ",
"[ } | 1 2 & & 3 4 5 + . . . . . . . . . . .         ",
"6 7 8 9 0 a b c d e a + . . . . . . . . . .         ",
"f g h i j k l m n o p , . . . . . . . . . . . . . . ",
"q r s t u v w x y . . . . . . . . . . . . . . . . . ",
"& z A B C D E F G & & 3 H 5 + . . . . . . . . . . . ",
". I J q K L M N O a P c d e Q + . . . . . . . . . . ",
". , R S + T U V W X l Y Z `  .3 ..+.@.#.+ . . . . . ",
". . $.%.&.*.=.-.;.>.w ,.'.).!.~.{.].^./.(.. . . . . ",
". . . _.:...<.[.}.D E |.1.2.3.4.5.6.7.8.9.0.. . . . ",
". . . a.b.c.d.e.f.L M g.h.i.j.k.l.m.n.o.p.q.r.q . . ",
". . . . . . $.s.t.T U u.v.w.x.y.z.A.B.C.D.E.F.G.. . ",
". . . . . . . H.I.*.=.J.K.L.2.M.N.O.P.Q.R.S.T.U.. . ",
"        . . . V.W...X.[.Y.Z.`. +.+++@+#+$+%+&+*+=+. ",
"        . . . . ..c.-+;+>+,+'+)+!+~+{+]+^+/+(+_+:+& ",
"        . . . . . . $.<+[+}+|+1+2+3+4+5+6+7+8+9 9+c.",
"        . . . . . . . 0+a+b+c+d+e+c.f+g+h+N i+j+k+l+",
"                . . . m+n+o+p+q+r+. + s+t+u+v+w+x+y+",
"                . . . + z+A+B+C+D+, . ..E+F+G+H+I+J+",
"                . . . . q K+L+M+. . . & 4 N+O+P+Q+, ",
"                . . . . . . . . . . . . c.& R+R+, . "};
