/* XPM */
static const char * volumerendering_xpm[] = {
"28 28 471 2",
"  	c None",
". 	c #B14D1A",
"+ 	c #BD3F23",
"@ 	c #C33520",
"# 	c #D63313",
"$ 	c #D78251",
"% 	c #B2330F",
"& 	c #C42D11",
"* 	c #CF5613",
"= 	c #691D12",
"- 	c #CB7146",
"; 	c #CB5D33",
"> 	c #CC3F16",
", 	c #AB1612",
"' 	c #CA884D",
") 	c #9B2F0F",
"! 	c #90391F",
"~ 	c #E16E3C",
"{ 	c #DB6A43",
"] 	c #CC7A51",
"^ 	c #CD865A",
"/ 	c #9F210D",
"( 	c #7D2213",
"_ 	c #BF4421",
": 	c #B73318",
"< 	c #C03011",
"[ 	c #9A1C14",
"} 	c #C87E44",
"| 	c #94250A",
"1 	c #5B0907",
"2 	c #C72B11",
"3 	c #D44F1F",
"4 	c #B15049",
"5 	c #B55838",
"6 	c #B13415",
"7 	c #8C180C",
"8 	c #7C0A0B",
"9 	c #902516",
"0 	c #D84618",
"a 	c #B6381A",
"b 	c #BB2A14",
"c 	c #981A13",
"d 	c #C37D45",
"e 	c #A3280C",
"f 	c #5D0607",
"g 	c #C32A11",
"h 	c #E85916",
"i 	c #C13A30",
"j 	c #B65432",
"k 	c #CB4E1E",
"l 	c #B82B11",
"m 	c #9A100E",
"n 	c #B13018",
"o 	c #CF471B",
"p 	c #BD3A15",
"q 	c #B62616",
"r 	c #952419",
"s 	c #BB784E",
"t 	c #B22D0F",
"u 	c #670608",
"v 	c #C22B10",
"w 	c #EE5A15",
"x 	c #CC3B26",
"y 	c #B74D21",
"z 	c #D85516",
"A 	c #DA3B12",
"B 	c #A11A0F",
"C 	c #D24116",
"D 	c #CE3B1A",
"E 	c #CC3A14",
"F 	c #B9261A",
"G 	c #982619",
"H 	c #B46B49",
"I 	c #A7290E",
"J 	c #72080A",
"K 	c #C32511",
"L 	c #E84515",
"M 	c #CC3D18",
"N 	c #AB451F",
"O 	c #D65D17",
"P 	c #F17112",
"Q 	c #DD600F",
"R 	c #91140C",
"S 	c #A7190F",
"T 	c #E34913",
"U 	c #C72E16",
"V 	c #CF3317",
"W 	c #C02E1D",
"X 	c #BC2716",
"Y 	c #C35132",
"Z 	c #BB4618",
"` 	c #720709",
" .	c #C92312",
"..	c #EF5812",
"+.	c #D54C14",
"@.	c #A5421C",
"#.	c #B7431E",
"$.	c #EA6512",
"%.	c #E36610",
"&.	c #9D140E",
"*.	c #BD3212",
"=.	c #E45513",
"-.	c #C62A12",
";.	c #E23A14",
">.	c #BF2815",
",.	c #DD2716",
"'.	c #E45628",
").	c #CF541A",
"!.	c #7B080A",
"~.	c #D83812",
"{.	c #EF5013",
"].	c #DE5E19",
"^.	c #B26531",
"/.	c #AB4F2F",
"(.	c #BF1E12",
"_.	c #C32011",
":.	c #8C0F0C",
"<.	c #E54D11",
"[.	c #E64314",
"}.	c #CD2A13",
"|.	c #E84614",
"1.	c #CD1B14",
"2.	c #C42817",
"3.	c #E74919",
"4.	c #C83C10",
"5.	c #A52B0C",
"6.	c #CA3C11",
"7.	c #E94414",
"8.	c #E05316",
"9.	c #A75C38",
"0.	c #A6371C",
"a.	c #B81911",
"b.	c #BA1D11",
"c.	c #A4100F",
"d.	c #EF4F15",
"e.	c #DB5512",
"f.	c #DA3117",
"g.	c #A91B13",
"h.	c #B0391D",
"i.	c #D95224",
"j.	c #C24010",
"k.	c #D34011",
"l.	c #D02B12",
"m.	c #E73015",
"n.	c #D0491F",
"o.	c #AC6F50",
"p.	c #A63415",
"q.	c #B82311",
"r.	c #9B140D",
"s.	c #D62D13",
"t.	c #EA411C",
"u.	c #B11B18",
"v.	c #F57D11",
"w.	c #AB2417",
"x.	c #A63118",
"y.	c #AE1810",
"z.	c #BB2D10",
"A.	c #9D200C",
"B.	c #BE300F",
"C.	c #CF3111",
"D.	c #DD2914",
"E.	c #DB2714",
"F.	c #BC3617",
"G.	c #A75029",
"H.	c #AD3313",
"I.	c #C93612",
"J.	c #A6150F",
"K.	c #E13213",
"L.	c #D63014",
"M.	c #D62F13",
"N.	c #F06D10",
"O.	c #AE1511",
"P.	c #BB1D12",
"Q.	c #8E1612",
"R.	c #AF260F",
"S.	c #88170B",
"T.	c #970C0E",
"U.	c #CC3010",
"V.	c #C42212",
"W.	c #D72514",
"X.	c #BD2114",
"Y.	c #BD3E12",
"Z.	c #A64617",
"`.	c #B62410",
" +	c #BE1712",
".+	c #97150C",
"++	c #AE160F",
"@+	c #DE3314",
"#+	c #C41A15",
"$+	c #ED5B11",
"%+	c #F25012",
"&+	c #E52F15",
"*+	c #F45513",
"=+	c #D42C13",
"-+	c #96150D",
";+	c #85100B",
">+	c #B91212",
",+	c #A0110E",
"'+	c #D52A14",
")+	c #BD2015",
"!+	c #D5351A",
"~+	c #AF3E18",
"{+	c #C2400F",
"]+	c #B04011",
"^+	c #B84112",
"/+	c #B21411",
"(+	c #8C100C",
"_+	c #B91D10",
":+	c #CC2F18",
"<+	c #E33B18",
"[+	c #F34C15",
"}+	c #F66511",
"|+	c #EE3F17",
"1+	c #E32F15",
"2+	c #B81511",
"3+	c #970E0D",
"4+	c #86090B",
"5+	c #BF1512",
"6+	c #650708",
"7+	c #AE1510",
"8+	c #B72E14",
"9+	c #D22C18",
"0+	c #E3421A",
"a+	c #BB4419",
"b+	c #B93C0F",
"c+	c #AD2210",
"d+	c #B62310",
"e+	c #A10E0F",
"f+	c #A5180F",
"g+	c #CE3517",
"h+	c #E03618",
"i+	c #ED5117",
"j+	c #F56419",
"k+	c #F36017",
"l+	c #E73B17",
"m+	c #C52B12",
"n+	c #980F0E",
"o+	c #860D0B",
"p+	c #A10E0E",
"q+	c #B0190F",
"r+	c #670809",
"s+	c #A52617",
"t+	c #A94D2D",
"u+	c #DF461A",
"v+	c #EE5D1E",
"w+	c #C75219",
"x+	c #B54311",
"y+	c #9C1F0D",
"z+	c #A60D0F",
"A+	c #7C090B",
"B+	c #C02711",
"C+	c #C63315",
"D+	c #D05134",
"E+	c #E75A23",
"F+	c #EE541D",
"G+	c #E94317",
"H+	c #D12F1B",
"I+	c #AD2F13",
"J+	c #920D0D",
"K+	c #870A0C",
"L+	c #B51411",
"M+	c #470505",
"N+	c #80130F",
"O+	c #A2422A",
"P+	c #B96E52",
"Q+	c #DD4718",
"R+	c #EB521B",
"S+	c #C43714",
"T+	c #A83212",
"U+	c #AA1010",
"V+	c #9C0C0F",
"W+	c #B21B12",
"X+	c #BA5328",
"Y+	c #B95527",
"Z+	c #B96850",
"`+	c #BA432B",
" @	c #D65B34",
".@	c #DC4319",
"+@	c #B63F16",
"@@	c #B33E17",
"#@	c #B51C10",
"$@	c #A50E0F",
"%@	c #620607",
"&@	c #711A11",
"*@	c #802218",
"=@	c #B85D3B",
"-@	c #B13E32",
";@	c #E74425",
">@	c #C9623B",
",@	c #B53311",
"'@	c #A00F0F",
")@	c #B11110",
"!@	c #680909",
"~@	c #A8372C",
"{@	c #AE5C3E",
"]@	c #B85A31",
"^@	c #B74E31",
"/@	c #B1513A",
"(@	c #BD432B",
"_@	c #BC5432",
":@	c #C97941",
"<@	c #CC793D",
"[@	c #BE2412",
"}@	c #9B0F0F",
"|@	c #971C0F",
"1@	c #8D3E27",
"2@	c #903022",
"3@	c #BF6D48",
"4@	c #AB2517",
"5@	c #D74D34",
"6@	c #BB5936",
"7@	c #9A120E",
"8@	c #5B0609",
"9@	c #942317",
"0@	c #B26F4C",
"a@	c #B95137",
"b@	c #BA6F44",
"c@	c #AE3C24",
"d@	c #B96C48",
"e@	c #BF3B27",
"f@	c #B64429",
"g@	c #D69569",
"h@	c #C2562E",
"i@	c #B11010",
"j@	c #A9301F",
"k@	c #A63C18",
"l@	c #993623",
"m@	c #A24E3C",
"n@	c #B0503D",
"o@	c #C32315",
"p@	c #CB5F43",
"q@	c #AC402A",
"r@	c #990F0D",
"s@	c #80090B",
"t@	c #A01C12",
"u@	c #B6614A",
"v@	c #AF5336",
"w@	c #B64731",
"x@	c #AF5738",
"y@	c #C47953",
"z@	c #A23A27",
"A@	c #C26643",
"B@	c #B4402B",
"C@	c #C48054",
"D@	c #B41F12",
"E@	c #DE5416",
"F@	c #AF5538",
"G@	c #A3381E",
"H@	c #A12112",
"I@	c #B35537",
"J@	c #B7311F",
"K@	c #E85321",
"L@	c #CE684E",
"M@	c #A52114",
"N@	c #8C0C0C",
"O@	c #CD2C12",
"P@	c #D63517",
"Q@	c #C46942",
"R@	c #9C2318",
"S@	c #AD4E37",
"T@	c #AC3A1C",
"U@	c #AF6642",
"V@	c #B13F27",
"W@	c #BE5C39",
"X@	c #C24F34",
"Y@	c #AD3519",
"Z@	c #960C0E",
"`@	c #E3842A",
" #	c #E55A28",
".#	c #B24E30",
"+#	c #B54F33",
"@#	c #B7341B",
"##	c #C42A12",
"$#	c #EA5712",
"%#	c #F66A1C",
"&#	c #DD5D39",
"*#	c #A2150F",
"=#	c #75090A",
"-#	c #CB2B1F",
";#	c #C6562F",
">#	c #B62C17",
",#	c #9E291A",
"'#	c #B24017",
")#	c #A92411",
"!#	c #A62E14",
"~#	c #B0341A",
"{#	c #B62A15",
"]#	c #E94A18",
"^#	c #C61D12",
"/#	c #EC8A2C",
"(#	c #E87635",
"_#	c #EF7D25",
":#	c #D37447",
"<#	c #C25133",
"[#	c #DA2E16",
"}#	c #DE4120",
"|#	c #F25E1B",
"1#	c #F05F1C",
"2#	c #9F0E0F",
"3#	c #B12211",
"4#	c #C8654A",
"5#	c #E69045",
"6#	c #F7901D",
"7#	c #D77035",
"8#	c #CD461B",
"9#	c #C85A30",
"0#	c #DD5A19",
"a#	c #DC4019",
"b#	c #F48B1D",
"c#	c #DB4116",
"d#	c #C61E12",
"e#	c #F0902D",
"f#	c #F4912F",
"g#	c #EF8739",
"h#	c #DE4518",
"i#	c #E94913",
"j#	c #D0402C",
"k#	c #C76C46",
"l#	c #E15623",
"m#	c #E82A15",
"n#	c #CB2B12",
"o#	c #F77120",
"p#	c #CB4421",
"q#	c #E47B21",
"r#	c #F38A32",
"s#	c #D9421D",
"t#	c #F08437",
"u#	c #EF691C",
"v#	c #F79A2F",
"w#	c #F3751B",
"x#	c #EE8726",
"y#	c #BB1B12",
"z#	c #EB881F",
"A#	c #F49025",
"B#	c #F69A1B",
"C#	c #FAB535",
"D#	c #F67923",
"E#	c #F38027",
"F#	c #CB361D",
"G#	c #D72314",
"H#	c #C22211",
"I#	c #F18C16",
"J#	c #F6891F",
"K#	c #DB4113",
"L#	c #FABE36",
"M#	c #E75314",
"N#	c #F59733",
"O#	c #F37C26",
"P#	c #F89F2D",
"Q#	c #E5701B",
"R#	c #F0911F",
"S#	c #D36612",
"T#	c #D6600D",
"U#	c #E44C11",
"V#	c #FBB71D",
"W#	c #F99E22",
"X#	c #F67318",
"Y#	c #EF7E11",
"Z#	c #D02812",
"`#	c #F27E11",
" $	c #EF5115",
".$	c #D23A11",
"+$	c #ED7510",
"@$	c #DC4610",
"#$	c #F29619",
"$$	c #CE3811",
"%$	c #E36E0F",
"&$	c #E7790F",
"*$	c #E9640F",
"=$	c #E46C0F",
"-$	c #D2530E",
"                                                        ",
"                                          . + @ # $ %   ",
"                        & *             = - ; > , ' )   ",
"                  ! ~ { ] ^ /           ( _ : < [ } |   ",
"                  1 2 3 4 5 6 7       8 9 0 a b c d e   ",
"                  f g h i j k l       m n o p q r s t   ",
"                  u v w x y z A       B C D E F G H I   ",
"                  J K L M N O P Q   R S T U V W X Y Z   ",
"                  `  ...+.@.#.$.%.  &.*.=.-.;.>.,.'.).  ",
"                  !.~.{.].^./.(._.  :.<.[.}.|.1.2.3.4.  ",
"                  5.6.7.8.9.0.a.b.  c.d.2.e.f.g.h.i.j.  ",
"                  k.l.m.n.o.p.q.r.  s.t.u.v.w.x.y.z.A.  ",
"                B.C.D.E.F.G.H.I.r.J.K.L.M.N.O.P.Q.R.S.T.",
"                U.V.W.X.Y.Z.`. +.+++@+#+$+%+&+*+=+-+;+>+",
"              ,+'+)+!+~+{+]+^+/+(+_+:+<+[+}+|+1+2+3+4+5+",
"            6+7+8+9+0+a+b+c+d+e+f+g+h+i+j+k+l+m+n+o+p+q+",
"            r+s+t+u+v+w+x+y+z+A+B+C+D+E+F+G+H+I+J+K+L+  ",
"          M+N+O+P+Q+R+S+T+U+V+W+X+Y+Z+`+ @.@+@@@#@$@    ",
"        %@&@*@=@-@;@>@,@'@)@!@~@{@]@^@/@(@_@:@<@[@}@    ",
"        |@1@2@3@4@5@6@7@e+8@9@0@a@b@c@d@e@f@g@h@i@      ",
"      j@k@l@m@n@o@p@q@r@s@t@u@v@w@x@y@z@A@B@C@D@        ",
"    E@F@G@H@I@J@K@L@M@N@O@P@Q@R@S@T@U@V@W@X@Y@Z@        ",
"  `@ #.#+#@###$#%#&#*#=#-#;#>#,#'#)#!#~#{#]#^#          ",
"  /#(#_#:#<#[#}#|#1#2#3#4#5#6#7#8#9#0#a#b#c#d#          ",
"  e#f#g#h#i#j#k#l#m#n#o#p#q#r#s#t#u#v#w#x#y#            ",
"  z#A#B#C#D#E#F#G#H#I#J#K#L#M#N#O#P#Q#R#S#              ",
"  T#U#V#W#X#Y#Z#    `# $.$+$@$#$$$%$                    ",
"      &$*$=$          -$                                "};
