/* XPM */
static char * wii_xpm[] = {
"28 28 3 1",
" 	c None",
".	c #000000",
"+	c #151718",
"                            ",
"                            ",
"                            ",
"                            ",
"                            ",
"                            ",
"                            ",
"                            ",
"  ..     .     ..  ..   ..  ",
"  ..    ...    ..  ..   ..  ",
"   ..   ...   ..            ",
"   ..   . .   ..   ..   ..  ",
"   ..   . .   ..   ..   ..  ",
"   ..  .. ..  ..   ..   ..  ",
"    .  .   .  .    ..   ..  ",
"    .. .   . ..    ..   ..  ",
"    .. .   . ..    ..   ..  ",
"     ...   ....    ..   ..  ",
"     ..+    ..     ..   ..  ",
"     ..     ..     ..   ..  ",
"                            ",
"                            ",
"                            ",
"                            ",
"                            ",
"                            ",
"                            ",
"                            "};
