/* XPM */
static const char * windowlevel_xpm[] = {
"28 23 486 2",
"  	c None",
". 	c #5B4C36",
"+ 	c #766648",
"@ 	c #827150",
"# 	c #857452",
"$ 	c #867653",
"% 	c #877754",
"& 	c #766446",
"* 	c #5C3D21",
"= 	c #6B492A",
"- 	c #755232",
"; 	c #6E4B2B",
"> 	c #6C492A",
", 	c #745031",
"' 	c #6F4D2F",
") 	c #644429",
"! 	c #3E2615",
"~ 	c #6B5C41",
"{ 	c #8A7A55",
"] 	c #97865F",
"^ 	c #A18F65",
"/ 	c #A59369",
"( 	c #AA976A",
"_ 	c #A79469",
": 	c #88724E",
"< 	c #704C2C",
"[ 	c #84603F",
"} 	c #926D4B",
"| 	c #9E7854",
"1 	c #A37D59",
"2 	c #A67B52",
"3 	c #986D48",
"4 	c #956A45",
"5 	c #8C633E",
"6 	c #7D5734",
"7 	c #59381E",
"8 	c #442815",
"9 	c #594A34",
"0 	c #7A6A4B",
"a 	c #9C8B61",
"b 	c #B19F71",
"c 	c #BEAA79",
"d 	c #C0AC7C",
"e 	c #C1AD7C",
"f 	c #C2AE7D",
"g 	c #977C53",
"h 	c #765230",
"i 	c #99734F",
"j 	c #B28B69",
"k 	c #C09776",
"l 	c #BD9068",
"m 	c #BF926A",
"n 	c #BB8C60",
"o 	c #C29267",
"p 	c #C39872",
"q 	c #B38963",
"r 	c #A77F5A",
"s 	c #89613D",
"t 	c #6D4827",
"u 	c #5A3A1D",
"v 	c #79694A",
"w 	c #A39066",
"x 	c #C1AE7D",
"y 	c #D2BE8A",
"z 	c #D6C18D",
"A 	c #DEC993",
"B 	c #E8D39E",
"C 	c #CCB683",
"D 	c #7A5633",
"E 	c #A27850",
"F 	c #C59C79",
"G 	c #D7AE8C",
"H 	c #D7A880",
"I 	c #DDAA7C",
"J 	c #E8BA91",
"K 	c #F0C199",
"L 	c #D6A97E",
"M 	c #E4BA9A",
"N 	c #DDB392",
"O 	c #D7AC87",
"P 	c #B9916F",
"Q 	c #956C47",
"R 	c #674424",
"S 	c #63543C",
"T 	c #9A8960",
"U 	c #C8B683",
"V 	c #E4D099",
"W 	c #ECD7A0",
"X 	c #F5E0A8",
"Y 	c #FFEEB5",
"Z 	c #FFEFB7",
"` 	c #745533",
" .	c #9B7450",
"..	c #CFA786",
"+.	c #EAC1A2",
"@.	c #EFC3A0",
"#.	c #E8B887",
"$.	c #FFE5C0",
"%.	c #FCDBB6",
"&.	c #F0C196",
"*.	c #D6A97C",
"=.	c #F0C6A5",
"-.	c #E1B390",
";.	c #D4A57D",
">.	c #CBA486",
",.	c #AB8260",
"'.	c #805A37",
").	c #57361B",
"!.	c #756647",
"~.	c #A8966A",
"{.	c #D5C28E",
"].	c #F4E0A8",
"^.	c #FCEAB0",
"/.	c #FEF4BA",
"(.	c #FEF1B5",
"_.	c #E2D19D",
":.	c #704E2F",
"<.	c #AB835F",
"[.	c #D6A57B",
"}.	c #FCD6B7",
"|.	c #FAD9BB",
"1.	c #EFCBA2",
"2.	c #F6D5AA",
"3.	c #DFB07F",
"4.	c #EFBA86",
"5.	c #EDB783",
"6.	c #CD9A6E",
"7.	c #CF9C6F",
"8.	c #D9AF8F",
"9.	c #C79D7D",
"0.	c #B38E70",
"a.	c #8E6645",
"b.	c #674221",
"c.	c #776849",
"d.	c #AC996D",
"e.	c #CFBB87",
"f.	c #EDD8A0",
"g.	c #FDECB3",
"h.	c #FBECB1",
"i.	c #F3DDA5",
"j.	c #CEB988",
"k.	c #765434",
"l.	c #A57A51",
"m.	c #CFA077",
"n.	c #F7CEAC",
"o.	c #FFEAD2",
"p.	c #DBAD78",
"q.	c #F1BD84",
"r.	c #F2B272",
"s.	c #E9A968",
"t.	c #F1B073",
"u.	c #E7AB74",
"v.	c #CB996B",
"w.	c #E5BB9C",
"x.	c #C99D7B",
"y.	c #B28968",
"z.	c #956B47",
"A.	c #6E4725",
"B.	c #7A6B4B",
"C.	c #BBA878",
"D.	c #D0BC88",
"E.	c #EEDBA4",
"F.	c #F0DDA6",
"G.	c #DBC590",
"H.	c #D6C28D",
"I.	c #A89166",
"J.	c #7B5532",
"K.	c #B68962",
"L.	c #D0A37D",
"M.	c #F5CEAE",
"N.	c #F9D9BB",
"O.	c #D7A474",
"P.	c #EBA96B",
"Q.	c #CA8D51",
"R.	c #BF844C",
"S.	c #D6975C",
"T.	c #F1B376",
"U.	c #D5A16F",
"V.	c #E7BC9B",
"W.	c #D1AA8A",
"X.	c #AE8564",
"Y.	c #916845",
"Z.	c #764D28",
"`.	c #A7956B",
" +	c #ECD8A2",
".+	c #C9B785",
"++	c #AB9A6D",
"@+	c #B09D70",
"#+	c #B39A6E",
"$+	c #6E4928",
"%+	c #855936",
"&+	c #B79071",
"*+	c #E9BC99",
"=+	c #C69465",
"-+	c #B8804A",
";+	c #BE8249",
">+	c #AF7742",
",+	c #AE7743",
"'+	c #C2864E",
")+	c #CF9359",
"!+	c #D19A68",
"~+	c #E2B48E",
"{+	c #C69A75",
"]+	c #A27854",
"^+	c #8D623C",
"/+	c #754D27",
"(+	c #756749",
"_+	c #BCA677",
":+	c #AC916B",
"<+	c #A28B66",
"[+	c #B19F75",
"}+	c #837150",
"|+	c #B1966D",
"1+	c #DCC791",
"2+	c #684627",
"3+	c #7C5530",
"4+	c #674120",
"5+	c #B38861",
"6+	c #C89466",
"7+	c #AC7643",
"8+	c #9F6C3B",
"9+	c #AB7540",
"0+	c #B47B47",
"a+	c #C78955",
"b+	c #BD834D",
"c+	c #B67D48",
"d+	c #C08A58",
"e+	c #AB7642",
"f+	c #98683F",
"g+	c #855A31",
"h+	c #754D26",
"i+	c #B9A577",
"j+	c #DBC490",
"k+	c #B6A275",
"l+	c #A08562",
"m+	c #C2AE81",
"n+	c #A6946D",
"o+	c #A98F68",
"p+	c #BFAC7B",
"q+	c #B88D61",
"r+	c #D8A97B",
"s+	c #976837",
"t+	c #C48A4C",
"u+	c #CB9769",
"v+	c #A47247",
"w+	c #A06B3B",
"x+	c #AD7742",
"y+	c #A67442",
"z+	c #BB824C",
"A+	c #B77E48",
"B+	c #A87340",
"C+	c #AA7644",
"D+	c #B47F4E",
"E+	c #9B693B",
"F+	c #7C522A",
"G+	c #6D4824",
"H+	c #836D4F",
"I+	c #C5B080",
"J+	c #DAC48E",
"K+	c #9B8761",
"L+	c #97845F",
"M+	c #AF9F79",
"N+	c #D3C294",
"O+	c #7B6147",
"P+	c #9E7952",
"Q+	c #F7C695",
"R+	c #E6B78C",
"S+	c #80582F",
"T+	c #9C6935",
"U+	c #BF9570",
"V+	c #D7B89D",
"W+	c #A56C36",
"X+	c #BB8045",
"Y+	c #B37D47",
"Z+	c #9F6F40",
"`+	c #A37040",
" @	c #8A5C31",
".@	c #B98552",
"+@	c #9C6B3D",
"@@	c #9D6A3A",
"#@	c #774F27",
"$@	c #613E20",
"%@	c #8B7654",
"&@	c #D0BD8B",
"*@	c #96835D",
"=@	c #978561",
"-@	c #D1BE8C",
";@	c #F9ECB2",
">@	c #C0A878",
",@	c #A4703F",
"'@	c #BC8857",
")@	c #D1A172",
"!@	c #885E34",
"~@	c #8F6743",
"{@	c #EAD1BC",
"]@	c #FFF0E0",
"^@	c #DEC1A6",
"/@	c #C7A07C",
"(@	c #A58062",
"_@	c #8E6540",
":@	c #956637",
"<@	c #98673A",
"[@	c #9F6D38",
"}@	c #B88048",
"|@	c #85592F",
"1@	c #774F28",
"2@	c #54361B",
"3@	c #9D8A62",
"4@	c #A59068",
"5@	c #826E50",
"6@	c #B8A475",
"7@	c #E2CE98",
"8@	c #B08B5A",
"9@	c #C3874B",
"0@	c #B27A42",
"a@	c #B9824D",
"b@	c #966639",
"c@	c #94693E",
"d@	c #D1AA88",
"e@	c #FBDEC5",
"f@	c #CEA57D",
"g@	c #AF7D4B",
"h@	c #8F6133",
"i@	c #A17751",
"j@	c #966737",
"k@	c #B07942",
"l@	c #A97541",
"m@	c #AD7943",
"n@	c #83582D",
"o@	c #664321",
"p@	c #AC976D",
"q@	c #BFA978",
"r@	c #9E8360",
"s@	c #907857",
"t@	c #9E8562",
"u@	c #7A5936",
"v@	c #875D33",
"w@	c #9A6937",
"x@	c #986635",
"y@	c #A37145",
"z@	c #9C6E3F",
"A@	c #8A613B",
"B@	c #A3703E",
"C@	c #B07843",
"D@	c #B57C44",
"E@	c #A3764B",
"F@	c #BB936E",
"G@	c #8F6233",
"H@	c #80562E",
"I@	c #8F6034",
"J@	c #906034",
"K@	c #6F4824",
"L@	c #5D3D1F",
"M@	c #95815C",
"N@	c #B49D73",
"O@	c #9B8260",
"P@	c #907C59",
"Q@	c #A6926A",
"R@	c #958566",
"S@	c #E3D5A3",
"T@	c #764B23",
"U@	c #946334",
"V@	c #9A6839",
"W@	c #B27A44",
"X@	c #A7723D",
"Y@	c #9C6738",
"Z@	c #CD9052",
"`@	c #B87F48",
" #	c #B27F4D",
".#	c #A27853",
"+#	c #BD854B",
"@#	c #B17B46",
"##	c #9D6939",
"$#	c #653F20",
"%#	c #6F4A25",
"&#	c #8A7760",
"*#	c #786C56",
"=#	c #927E5B",
"-#	c #7F6D4E",
";#	c #988A66",
">#	c #FFFAC2",
",#	c #84643C",
"'#	c #906232",
")#	c #9E6C3D",
"!#	c #BA8149",
"~#	c #936437",
"{#	c #AF7843",
"]#	c #B27B45",
"^#	c #D59757",
"/#	c #B57D46",
"(#	c #986A3E",
"_#	c #936436",
":#	c #C3884E",
"<#	c #8A5A30",
"[#	c #674121",
"}#	c #704A25",
"|#	c #817558",
"1#	c #A08B67",
"2#	c #867455",
"3#	c #766748",
"4#	c #7B6C4E",
"5#	c #EADDA9",
"6#	c #FFFEC3",
"7#	c #70512F",
"8#	c #8B5F38",
"9#	c #A07245",
"0#	c #916133",
"a#	c #A26E3C",
"b#	c #94663B",
"c#	c #B27F4C",
"d#	c #BD8349",
"e#	c #9F6C39",
"f#	c #6F4A28",
"g#	c #A06E3C",
"h#	c #B37B45",
"i#	c #80532C",
"j#	c #764C27",
"k#	c #714A25",
"l#	c #C4B081",
"m#	c #CFBB88",
"n#	c #CCB987",
"o#	c #EFDBA5",
"p#	c #E5D19C",
"q#	c #B9A57B",
"r#	c #4A3320",
"s#	c #855630",
"t#	c #A6723F",
"u#	c #B7804B",
"v#	c #BF8B5A",
"w#	c #BA8A5A",
"x#	c #BC9065",
"y#	c #936336",
"z#	c #8F6135",
"A#	c #79512B",
"B#	c #D99A59",
"C#	c #906033",
"D#	c #774E28",
"E#	c #583A1D",
"F#	c #9F8E65",
"G#	c #D2BE8C",
"H#	c #ECD8A1",
"I#	c #DAC694",
"J#	c #A19069",
"K#	c #6F5640",
"L#	c #715A43",
"M#	c #624C34",
"N#	c #A17148",
"O#	c #A07147",
"P#	c #CD945C",
"Q#	c #E6B78D",
"R#	c #AB7F57",
"S#	c #9D6D3D",
"T#	c #926235",
"U#	c #7E522B",
"V#	c #A97441",
"W#	c #B27B43",
"X#	c #926035",
"Y#	c #B37A42",
"Z#	c #936433",
"`#	c #724C26",
" $	c #94845E",
".$	c #736446",
"+$	c #66543F",
"@$	c #95825F",
"#$	c #8B7656",
"$$	c #8A664C",
"%$	c #826243",
"&$	c #876D4F",
"*$	c #654930",
"=$	c #926031",
"-$	c #8D5E32",
";$	c #7B512C",
">$	c #8E6033",
",$	c #BA8049",
"'$	c #9B6738",
")$	c #936235",
"!$	c #B97E48",
"~$	c #634121",
"{$	c #321F10",
"]$	c #906136",
"^$	c #734B28",
"/$	c #875A31",
"($	c #A26F3E",
"_$	c #A3703F",
":$	c #5F3E1F",
"<$	c #452C16",
"                                                        ",
"            . + @ # @ $ % & * = - ; > , ' ) !           ",
"          ~ { ] ^ / ( _ : < [ } | 1 2 3 4 5 6 7 8       ",
"      9 0 a b c d e f g h i j k l m n o p q r s t u     ",
"      v w x y z A B C D E F G H I J K L M N O P Q R     ",
"    S T U V W X Y Z `  ...+.@.#.$.%.&.*.=.-.;.>.,.'.).  ",
"    !.~.{.].^./.(._.:.<.[.}.|.1.2.3.4.5.6.7.8.9.0.a.b.  ",
"    c.d.e.f.g.h.i.j.k.l.m.n.o.p.q.r.s.t.u.v.w.x.y.z.A.  ",
"    B.C.D.E.F.G.H.I.J.K.L.M.N.O.P.Q.R.S.T.U.V.W.X.Y.Z.  ",
"    v ] `. +.+++@+#+$+%+&+*+=+-+;+>+,+'+)+!+~+{+]+^+/+  ",
"    (+_+:+<+[+}+|+1+2+3+4+5+6+7+8+9+0+a+b+c+d+e+f+g+h+  ",
"    i+j+k+l+m+n+o+p+q+r+s+t+u+v+w+x+y+z+A+B+C+D+E+F+G+  ",
"  H+I+J+K+L+M+N+O+P+Q+R+S+T+U+V+W+X+Y+Z+`+ @.@+@@@#@$@  ",
"    %@&@*@=@-@;@>@,@'@)@!@~@{@]@^@/@(@_@:@<@[@}@|@1@2@  ",
"      3@4@5@6@7@8@9@0@a@b@c@d@e@f@g@h@i@j@k@l@m@n@o@    ",
"      p@q@r@s@t@u@v@w@x@y@z@A@B@C@D@E@F@G@H@I@J@K@L@    ",
"      M@N@O@P@Q@R@S@T@U@V@W@X@Y@Z@`@ #.#+#@###$#%#      ",
"      &#*#=#-#  ;#>#,#'#)#!#~#{#]#^#/#(#_#:#<#[#}#      ",
"      |#1#2#3#4#5#6#7#8#9#0#a#b#c#d#e#f#g#h#i#j#k#      ",
"      $ l#m#n#o#p#q#r#s#t#u#v#w#x#y#z#A#B#C#x@D#E#      ",
"      F#G#H#I#J#K#L#M#N#O#P#Q#R#S#T#U#V#W#X#Y#Z#`#      ",
"         $.$    +$@$#$$$%$&$*$=$-$;$>$,$'$)$!$V#~${$    ",
"                                      ]$^$/$($_$:$<$    "};
