/* XPM */ 
static const char * zoom_xpm[] = {
"28 28 179 2",
"  	c None",
"! 	c black",
"# 	c #040404",
"$ 	c #202020",
"% 	c #3E3E3E",
"& 	c #484848",
"' 	c #4C4C4C",
"( 	c #4D4D4D",
") 	c #3D3D3D",
"* 	c #1F1F1F",
"+ 	c #030303",
", 	c #151515",
"- 	c #7F7F7F",
". 	c #B4B4B4",
"0 	c #C0C0C0",
"1 	c #C2C2C2",
"2 	c #C1C1C1",
"3 	c #BEBEBE",
"4 	c #A8A8A8",
"5 	c #7E7E7E",
"6 	c #121212",
"7 	c #1C1C1C",
"8 	c #7B7B7B",
"9 	c #D9D9D9",
": 	c #EBEBEB",
"; 	c #F6F6F6",
"< 	c #FDFDFD",
"= 	c #FCFCFC",
"> 	c #F2F2F2",
"? 	c #E2E2E2",
"@ 	c #CACACA",
"A 	c #707070",
"B 	c #191919",
"C 	c #7C7C7C",
"D 	c #C5C5C5",
"E 	c #ECECEC",
"F 	c #FBFBFB",
"G 	c #FAFAFA",
"H 	c #F9F9F9",
"I 	c #F7F7F7",
"J 	c #DCDCDC",
"K 	c #ACACAC",
"L 	c #171717",
"M 	c #0F0F0F",
"N 	c #565656",
"O 	c #F9F9FA",
"P 	c #F8F8F8",
"Q 	c #D0D0D0",
"R 	c #A5A5A5",
"S 	c #5A5A5A",
"T 	c #272727",
"U 	c #9F9F9F",
"V 	c #DFDFDF",
"W 	c #F5F5F5",
"X 	c #B6B6B6",
"Y 	c #939393",
"Z 	c #373737",
"[ 	c #CCCCCC",
"] 	c #F0F0F0",
"^ 	c #EFEFEF",
"_ 	c #C6C6C6",
"` 	c #4F4F4F",
"a 	c #D2D2D2",
"b 	c #6D6D6D",
"c 	c #EAEAEA",
"d 	c #A7A7A7",
"e 	c #3C3C3C",
"f 	c #F3F3F3",
"g 	c #FBFBFA",
"h 	c #F8F8F9",
"i 	c #E0E0E0",
"j 	c #727272",
"k 	c #333333",
"l 	c #B7B7B7",
"m 	c #E8E8E8",
"n 	c #D8D8D8",
"o 	c #A6A6A6",
"p 	c #9E9E9E",
"q 	c #545454",
"r 	c #1E1E1E",
"s 	c #878787",
"t 	c #DDDDDD",
"u 	c #949494",
"v 	c #2B2B2B",
"w 	c #060606",
"x 	c #464646",
"y 	c #A2A2A2",
"z 	c #CECECE",
"{ 	c #F4F4F4",
"| 	c #DEDEDE",
"} 	c #C7C7C7",
"~ 	c #8B8B8B",
" !	c #969696",
"!!	c #626262",
"#!	c #6A6A6A",
"$!	c #9D9D9D",
"%!	c #BDBDBD",
"&!	c #E6E6E6",
"'!	c #F1F1F1",
"(!	c #E4E4E4",
")!	c #B5B5B5",
"*!	c #868686",
"+!	c #767777",
",!	c #6F6F71",
"-!	c #6B6B6B",
".!	c #8E8E8E",
"0!	c #8F8F8F",
"1!	c #A3A3A3",
"2!	c #B9B9B9",
"3!	c #BCBCBC",
"4!	c #7A7A7A",
"5!	c #8D8D8D",
"6!	c #B4B6B8",
"7!	c #575A61",
"8!	c #0D0D0D",
"9!	c #4A4A4A",
":!	c #848484",
";!	c #838383",
"<!	c #858585",
"=!	c #898989",
">!	c #818484",
"?!	c #74797E",
"@!	c #C7CCD2",
"A!	c #9FA7B5",
"B!	c #303F53",
"C!	c #101010",
"D!	c #3B3B3B",
"E!	c #606060",
"F!	c #767676",
"G!	c #797979",
"H!	c #686868",
"I!	c #454545",
"J!	c #212222",
"K!	c #0E131C",
"L!	c #4D5C71",
"M!	c #7F8A9B",
"N!	c #9EA6B2",
"O!	c #323E51",
"P!	c #030408",
"Q!	c #27364D",
"R!	c #384862",
"S!	c #8C96A4",
"T!	c #7A8697",
"U!	c #222C3E",
"V!	c #0E1319",
"W!	c #2E3E58",
"X!	c #42526B",
"Y!	c #8B94A4",
"Z!	c #5F6C81",
"[!	c #19212E",
"]!	c #141922",
"^!	c #30415E",
"_!	c #616E83",
"`!	c #A2A9B6",
"a!	c #58677B",
"b!	c #121620",
"c!	c #19202E",
"d!	c #2F425E",
"e!	c #6C788C",
"f!	c #48576E",
"g!	c #0B0D13",
"h!	c #263243",
"i!	c #2B3E5C",
"j!	c #7A8596",
"k!	c #737F91",
"l!	c #2E3D53",
"m!	c #07090D",
"n!	c #1F2B3C",
"o!	c #344561",
"p!	c #969EAC",
"q!	c #758193",
"r!	c #2C384B",
"s!	c #2C3C55",
"t!	c #4F5E75",
"u!	c #748092",
"v!	c #445470",
"w!	c #303F58",
"x!	c #2F3D57",
"y!	c #1A212E",
"                                                        ",
"            # $ % & ' ( & ) * +                         ",
"          , ( - . 0 1 2 3 4 5 & 6                       ",
"        7 8 . 9 : ; < = > ? @ 4 A B                     ",
"      * C D E F = G H G G = I J K C L                   ",
"    M N 2 : < F G H O O H I P H Q R S                   ",
"    T U V F = G G G G G G H W ; : X Y T                 ",
"    Z [ : = F G G G G G G G P ] ^ _ U `                 ",
"    % a W = O H G G G G G G G > ^ a 4 b                 ",
"    ) a F F H H G G G G G G G > c a d 8                 ",
"    e _ f g h H G G G G G G G ^ i 2 d j                 ",
"    k l ? F P H G G G G G G W m n o p q                 ",
"    r s D ; P ; P H H H H ; c t 3 u Y v                 ",
"    w x y z G P { { { W > E | } ~  !!!                  ",
"      6 #!$!%!&!'!f > E (!9 )!*!+!,!                    ",
"        , -!.!0!1!2!_ 3!1!s 4!5!6!7!                    ",
"          8!9!C :!s ;!<!~ =!>!?!@!A!B!                  ",
"              C!D!E!F!G!H!I!J!K!L!M!N!O!                ",
"                              P!Q!R!S!T!U!              ",
"                                V!W!X!Y!Z![!            ",
"                                  ]!^!_!`!a!b!          ",
"                                    c!d!e!N!f!g!        ",
"                                      h!i!j!k!l!m!      ",
"                                        n!o!p!q!r!      ",
"                                          s!t!u!v!      ",
"                                            w!x!y!      ",
"                                                        ",
"                                                        "};